<?xml version="1.0" encoding="UTF-8" standalone="no"?><svg xmlns="http://www.w3.org/2000/svg" xmlns:xlink="http://www.w3.org/1999/xlink" contentScriptType="application/ecmascript" contentStyleType="text/css" height="188px" preserveAspectRatio="none" style="width:406px;height:188px;" version="1.1" viewBox="0 0 406 188" width="406px" zoomAndPan="magnify"><defs><filter height="300%" id="f1di1qdi55wmmn" width="300%" x="-1" y="-1"><feGaussianBlur result="blurOut" stdDeviation="2.0"/><feColorMatrix in="blurOut" result="blurOut2" type="matrix" values="0 0 0 0 0 0 0 0 0 0 0 0 0 0 0 0 0 0 .4 0"/><feOffset dx="4.0" dy="4.0" in="blurOut2" result="blurOut3"/><feBlend in="SourceGraphic" in2="blurOut3" mode="normal"/></filter></defs><g><!--class A--><rect fill="#FEFECE" filter="url(#f1di1qdi55wmmn)" height="24.1328" id="A" style="stroke: #A80036; stroke-width: 1.5;" width="34" x="7" y="8"/><text fill="#000000" font-family="sans-serif" font-size="12" lengthAdjust="spacingAndGlyphs" textLength="0" x="38" y="24.6016"/><!--class B--><rect fill="#FEFECE" filter="url(#f1di1qdi55wmmn)" height="24.1328" id="B" style="stroke: #A80036; stroke-width: 1.5;" width="34" x="6" y="153"/><text fill="#000000" font-family="sans-serif" font-size="12" lengthAdjust="spacingAndGlyphs" textLength="0" x="37" y="169.6016"/><!--class C--><rect fill="#FEFECE" filter="url(#f1di1qdi55wmmn)" height="24.1328" id="C" style="stroke: #A80036; stroke-width: 1.5;" width="34" x="77" y="8"/><text fill="#000000" font-family="sans-serif" font-size="12" lengthAdjust="spacingAndGlyphs" textLength="0" x="108" y="24.6016"/><!--class D--><rect fill="#FEFECE" filter="url(#f1di1qdi55wmmn)" height="24.1328" id="D" style="stroke: #A80036; stroke-width: 1.5;" width="34" x="77" y="153"/><text fill="#000000" font-family="sans-serif" font-size="12" lengthAdjust="spacingAndGlyphs" textLength="0" x="108" y="169.6016"/><!--class E--><rect fill="#FEFECE" filter="url(#f1di1qdi55wmmn)" height="24.1328" id="E" style="stroke: #A80036; stroke-width: 1.5;" width="34" x="148" y="8"/><text fill="#000000" font-family="sans-serif" font-size="12" lengthAdjust="spacingAndGlyphs" textLength="0" x="179" y="24.6016"/><!--class F--><rect fill="#FEFECE" filter="url(#f1di1qdi55wmmn)" height="24.1328" id="F" style="stroke: #A80036; stroke-width: 1.5;" width="34" x="148" y="153"/><text fill="#000000" font-family="sans-serif" font-size="12" lengthAdjust="spacingAndGlyphs" textLength="0" x="179" y="169.6016"/><!--class G--><rect fill="#FEFECE" filter="url(#f1di1qdi55wmmn)" height="24.1328" id="G" style="stroke: #A80036; stroke-width: 1.5;" width="34" x="219" y="8"/><text fill="#000000" font-family="sans-serif" font-size="12" lengthAdjust="spacingAndGlyphs" textLength="0" x="250" y="24.6016"/><!--class H--><rect fill="#FEFECE" filter="url(#f1di1qdi55wmmn)" height="24.1328" id="H" style="stroke: #A80036; stroke-width: 1.5;" width="34" x="219" y="153"/><text fill="#000000" font-family="sans-serif" font-size="12" lengthAdjust="spacingAndGlyphs" textLength="0" x="250" y="169.6016"/><!--class I--><rect fill="#FEFECE" filter="url(#f1di1qdi55wmmn)" height="24.1328" id="I" style="stroke: #A80036; stroke-width: 1.5;" width="34" x="289" y="8"/><text fill="#000000" font-family="sans-serif" font-size="12" lengthAdjust="spacingAndGlyphs" textLength="0" x="320" y="24.6016"/><!--class J--><rect fill="#FEFECE" filter="url(#f1di1qdi55wmmn)" height="24.1328" id="J" style="stroke: #A80036; stroke-width: 1.5;" width="34" x="290" y="153"/><text fill="#000000" font-family="sans-serif" font-size="12" lengthAdjust="spacingAndGlyphs" textLength="0" x="321" y="169.6016"/><!--class K--><rect fill="#FEFECE" filter="url(#f1di1qdi55wmmn)" height="24.1328" id="K" style="stroke: #A80036; stroke-width: 1.5;" width="34" x="361" y="8"/><text fill="#000000" font-family="sans-serif" font-size="12" lengthAdjust="spacingAndGlyphs" textLength="0" x="392" y="24.6016"/><!--class L--><rect fill="#FEFECE" filter="url(#f1di1qdi55wmmn)" height="24.1328" id="L" style="stroke: #A80036; stroke-width: 1.5;" width="34" x="361" y="153"/><text fill="#000000" font-family="sans-serif" font-size="12" lengthAdjust="spacingAndGlyphs" textLength="0" x="392" y="169.6016"/><!--link A to B--><path d="M23.92,32.22 C23.75,57.39 23.32,118.42 23.11,147.74 " fill="none" id="A-&gt;B" style="stroke: #A80036; stroke-width: 1.0; stroke-dasharray: 7.0,7.0;"/><polygon fill="#A80036" points="23.08,152.83,27.1314,143.853,23.1086,147.8301,19.1315,143.8073,23.08,152.83" style="stroke: #A80036; stroke-width: 1.0;"/><!--link A to C--><!--link C to D--><path d="M94,32.22 C94,58.95 94,126.15 94,152.83 " fill="none" id="C-D" style="stroke: #A80036; stroke-width: 1.0;"/><!--link C to E--><!--link E to F--><path d="M165,32.22 C165,57.39 165,118.42 165,147.74 " fill="none" id="E-&gt;F" style="stroke: #A80036; stroke-width: 1.0;"/><polygon fill="#A80036" points="165,152.83,169,143.83,165,147.83,161,143.83,165,152.83" style="stroke: #A80036; stroke-width: 1.0;"/><!--link E to G--><!--reverse link G to H--><path d="M236,52.38 C236,84.12 236,131.47 236,152.83 " fill="none" id="G&lt;-H" style="stroke: #A80036; stroke-width: 1.0;"/><polygon fill="none" points="229,52.22,236,32.22,243,52.22,229,52.22" style="stroke: #A80036; stroke-width: 1.0;"/><!--link G to I--><!--reverse link I to J--><path d="M306.22,52.38 C306.44,84.12 306.77,131.47 306.92,152.83 " fill="none" id="I&lt;-J" style="stroke: #A80036; stroke-width: 1.0; stroke-dasharray: 7.0,7.0;"/><polygon fill="none" points="299.22,52.27,306.08,32.22,313.22,52.17,299.22,52.27" style="stroke: #A80036; stroke-width: 1.0;"/><!--reverse link K to L--><path d="M378,45.25 C378,76.57 378,129.8 378,152.83 " fill="none" id="K&lt;-L" style="stroke: #A80036; stroke-width: 1.0;"/><polygon fill="#A80036" points="378,32.22,374,38.22,378,44.22,382,38.22,378,32.22" style="stroke: #A80036; stroke-width: 1.0;"/><!--
@startuml

hide circle
hide empty methods
hide empty attributes

class A as "       "
class B as "       "
class C as "       "
class D as "       "
class E as "       "
class F as "       "
class G as "       "
class H as "       "
class I as "       "
class J as "       "
class K as "       "
class L as "       "

A ...> B
A -[hidden] C
C - - - D
C -[hidden] E
E - - -> F
E -[hidden] G
G <|- - - H
G -[hidden] I
I <|... J
K *- - - L
@enduml

PlantUML version 1.2019.09(Mon Aug 26 18:19:51 CEST 2019)
(GPL source distribution)
Java Runtime: Java(TM) SE Runtime Environment
JVM: Java HotSpot(TM) 64-Bit Server VM
Java Version: 1.8.0_152-b16
Operating System: Mac OS X
OS Version: 10.15.3
Default Encoding: UTF-8
Language: fr
Country: FR
--></g></svg>