<?xml version="1.0" encoding="UTF-8" standalone="yes"?><svg xmlns="http://www.w3.org/2000/svg" xmlns:xlink="http://www.w3.org/1999/xlink" height="305px" style="width:203px;height:305px;" version="1.1" viewBox="0 0 203 305" width="203px"><defs><filter height="300%" id="f1" width="300%" x="-1" y="-1"><feGaussianBlur result="blurOut" stdDeviation="2.0"/><feColorMatrix in="blurOut" result="blurOut2" type="matrix" values="0 0 0 0 0 0 0 0 0 0 0 0 0 0 0 0 0 0 .4 0"/><feOffset dx="4.0" dy="4.0" in="blurOut2" result="blurOut3"/><feBlend in="SourceGraphic" in2="blurOut3" mode="normal"/></filter></defs><g><polygon fill="#FFFFFF" filter="url(#f1)" points="22,32,42,32,49,54.4883,196,54.4883,196,298,22,298,22,32" style="stroke: #000000; stroke-width: 2.0;"/><line style="stroke: #000000; stroke-width: 2.0;" x1="22" x2="49" y1="54.4883" y2="54.4883"/><text fill="#000000" font-family="sans-serif" font-size="14" font-weight="bold" lengthAdjust="spacingAndGlyphs" textLength="14" x="25" y="48.5352">m</text><rect fill="#FEFECE" filter="url(#f1)" height="104.7754" style="stroke: #A80036; stroke-width: 1.5;" width="142" x="38" y="176.5"/><ellipse cx="63.35" cy="192.5" fill="#ADD1B2" rx="11" ry="11" style="stroke: #A80036; stroke-width: 1.0;"/><path d="M66.3231,198.1431 Q65.7421,198.4419 65.1029,198.5913 Q64.4638,198.7407 63.7582,198.7407 Q61.2514,198.7407 59.9315,197.0889 Q58.6117,195.437 58.6117,192.3159 Q58.6117,189.1865 59.9315,187.5347 Q61.2514,185.8828 63.7582,185.8828 Q64.4638,185.8828 65.1112,186.0322 Q65.7587,186.1816 66.3231,186.4805 L66.3231,189.2031 Q65.6923,188.6221 65.0988,188.3523 Q64.5053,188.0825 63.8744,188.0825 Q62.5297,188.0825 61.8449,189.1492 Q61.1601,190.2158 61.1601,192.3159 Q61.1601,194.4077 61.8449,195.4744 Q62.5297,196.541 63.8744,196.541 Q64.5053,196.541 65.0988,196.2712 Q65.6923,196.0015 66.3231,195.4204 Z "/><text fill="#000000" font-family="sans-serif" font-size="12" lengthAdjust="spacingAndGlyphs" textLength="87" x="79.65" y="197.0352">BonCommande</text><line style="stroke: #A80036; stroke-width: 1.5;" x1="39" x2="179" y1="208.5" y2="208.5"/><rect fill="none" height="6" style="stroke: #C82930; stroke-width: 1.0;" width="6" x="46" y="217.4775"/><text fill="#000000" font-family="sans-serif" font-size="11" lengthAdjust="spacingAndGlyphs" text-decoration="underline" textLength="116" x="58" y="223.1348">long serialVersionUID</text><line style="stroke: #000000; stroke-width: 1.0;" x1="58" x2="174" y1="225.1348" y2="225.1348"/><rect fill="none" height="6" style="stroke: #C82930; stroke-width: 1.0;" width="6" x="46" y="230.4326"/><text fill="#000000" font-family="sans-serif" font-size="11" lengthAdjust="spacingAndGlyphs" textLength="42" x="58" y="236.0898">long ref</text><rect fill="none" height="6" style="stroke: #C82930; stroke-width: 1.0;" width="6" x="46" y="243.3877"/><text fill="#000000" font-family="sans-serif" font-size="11" lengthAdjust="spacingAndGlyphs" textLength="63" x="58" y="249.0449">String motif</text><rect fill="none" height="6" style="stroke: #C82930; stroke-width: 1.0;" width="6" x="46" y="256.3428"/><text fill="#000000" font-family="sans-serif" font-size="11" lengthAdjust="spacingAndGlyphs" textLength="55" x="58" y="262">String obs</text><rect fill="none" height="6" style="stroke: #C82930; stroke-width: 1.0;" width="6" x="46" y="269.2979"/><text fill="#000000" font-family="sans-serif" font-size="11" lengthAdjust="spacingAndGlyphs" textLength="85" x="58" y="274.9551">double montant</text><rect fill="#FEFECE" filter="url(#f1)" height="40" style="stroke: #A80036; stroke-width: 1.5;" width="98" x="60" y="76"/><ellipse cx="75" cy="92" fill="#B4A7E5" rx="11" ry="11" style="stroke: #A80036; stroke-width: 1.0;"/><path d="M70.9277,87.7651 L70.9277,85.6069 L78.3071,85.6069 L78.3071,87.7651 L75.8418,87.7651 L75.8418,95.8418 L78.3071,95.8418 L78.3071,98 L70.9277,98 L70.9277,95.8418 L73.3931,95.8418 L73.3931,87.7651 Z "/><text fill="#000000" font-family="sans-serif" font-size="12" font-style="italic" lengthAdjust="spacingAndGlyphs" textLength="66" x="89" y="96.5352">Serializable</text><line style="stroke: #A80036; stroke-width: 1.5;" x1="61" x2="157" y1="108" y2="108"/><path d="M109,136 C109,149 109,163 109,176 " fill="none" style="stroke: #A80036; stroke-width: 1.0; stroke-dasharray: 7.0,7.0;"/><polygon fill="none" points="102.0001,136,109,116,116,136,102.0001,136" style="stroke: #A80036; stroke-width: 1.0;"/></g></svg>