<?xml version="1.0" encoding="UTF-8" standalone="yes"?><svg xmlns="http://www.w3.org/2000/svg" xmlns:xlink="http://www.w3.org/1999/xlink" height="287px" style="width:203px;height:287px;" version="1.1" viewBox="0 0 203 287" width="203px"><defs><filter height="300%" id="f1" width="300%" x="-1" y="-1"><feGaussianBlur result="blurOut" stdDeviation="2.0"/><feColorMatrix in="blurOut" result="blurOut2" type="matrix" values="0 0 0 0 0 0 0 0 0 0 0 0 0 0 0 0 0 0 .4 0"/><feOffset dx="4.0" dy="4.0" in="blurOut2" result="blurOut3"/><feBlend in="SourceGraphic" in2="blurOut3" mode="normal"/></filter></defs><g><polygon fill="#FFFFFF" filter="url(#f1)" points="22,24,42,24,49,46.4883,196,46.4883,196,280,22,280,22,24" style="stroke: #000000; stroke-width: 2.0;"/><line style="stroke: #000000; stroke-width: 2.0;" x1="22" x2="49" y1="46.4883" y2="46.4883"/><text fill="#000000" font-family="sans-serif" font-size="14" font-weight="bold" lengthAdjust="spacingAndGlyphs" textLength="14" x="26" y="39.5352">m</text><rect fill="#FEFECE" filter="url(#f1)" height="104.7754" style="stroke: #A80036; stroke-width: 1.5;" width="142" x="38" y="159"/><ellipse cx="63.35" cy="175" fill="#ADD1B2" rx="11" ry="11" style="stroke: #A80036; stroke-width: 1.0;"/><path d="M66.3231,180.6431 Q65.7421,180.9419 65.1029,181.0913 Q64.4638,181.2407 63.7582,181.2407 Q61.2514,181.2407 59.9315,179.5889 Q58.6117,177.937 58.6117,174.8159 Q58.6117,171.6865 59.9315,170.0347 Q61.2514,168.3828 63.7582,168.3828 Q64.4638,168.3828 65.1112,168.5322 Q65.7587,168.6816 66.3231,168.9805 L66.3231,171.7031 Q65.6923,171.1221 65.0988,170.8523 Q64.5053,170.5825 63.8744,170.5825 Q62.5297,170.5825 61.8449,171.6492 Q61.1601,172.7158 61.1601,174.8159 Q61.1601,176.9077 61.8449,177.9744 Q62.5297,179.041 63.8744,179.041 Q64.5053,179.041 65.0988,178.7712 Q65.6923,178.5015 66.3231,177.9204 Z "/><text fill="#000000" font-family="sans-serif" font-size="12" lengthAdjust="spacingAndGlyphs" textLength="87" x="79.65" y="179.5352">BonCommande</text><line style="stroke: #A80036; stroke-width: 1.5;" x1="39" x2="179" y1="191" y2="191"/><rect fill="none" height="6" style="stroke: #C82930; stroke-width: 1.0;" width="6" x="46" y="199.9775"/><text fill="#000000" font-family="sans-serif" font-size="11" lengthAdjust="spacingAndGlyphs" text-decoration="underline" textLength="116" x="58" y="205.6348">long serialVersionUID</text><line style="stroke: #000000; stroke-width: 1.0;" x1="58" x2="174" y1="207.6348" y2="207.6348"/><rect fill="none" height="6" style="stroke: #C82930; stroke-width: 1.0;" width="6" x="46" y="212.9326"/><text fill="#000000" font-family="sans-serif" font-size="11" lengthAdjust="spacingAndGlyphs" textLength="42" x="58" y="218.5898">long ref</text><rect fill="none" height="6" style="stroke: #C82930; stroke-width: 1.0;" width="6" x="46" y="225.8877"/><text fill="#000000" font-family="sans-serif" font-size="11" lengthAdjust="spacingAndGlyphs" textLength="63" x="58" y="231.5449">String motif</text><rect fill="none" height="6" style="stroke: #C82930; stroke-width: 1.0;" width="6" x="46" y="238.8428"/><text fill="#000000" font-family="sans-serif" font-size="11" lengthAdjust="spacingAndGlyphs" textLength="55" x="58" y="244.5">String obs</text><rect fill="none" height="6" style="stroke: #C82930; stroke-width: 1.0;" width="6" x="46" y="251.7979"/><text fill="#000000" font-family="sans-serif" font-size="11" lengthAdjust="spacingAndGlyphs" textLength="85" x="58" y="257.4551">double montant</text><rect fill="#FEFECE" filter="url(#f1)" height="40" style="stroke: #A80036; stroke-width: 1.5;" width="98" x="60" y="59"/><ellipse cx="75" cy="75" fill="#B4A7E5" rx="11" ry="11" style="stroke: #A80036; stroke-width: 1.0;"/><path d="M70.9277,70.7651 L70.9277,68.6069 L78.3071,68.6069 L78.3071,70.7651 L75.8418,70.7651 L75.8418,78.8418 L78.3071,78.8418 L78.3071,81 L70.9277,81 L70.9277,78.8418 L73.3931,78.8418 L73.3931,70.7651 Z "/><text fill="#000000" font-family="sans-serif" font-size="12" font-style="italic" lengthAdjust="spacingAndGlyphs" textLength="66" x="89" y="79.5352">Serializable</text><line style="stroke: #A80036; stroke-width: 1.5;" x1="61" x2="157" y1="91" y2="91"/><path d="M109,119.444 C109,131.851 109,145.691 109,158.792 " fill="none" style="stroke: #A80036; stroke-width: 1.0; stroke-dasharray: 7.0,7.0;"/><polygon fill="none" points="102.0001,119.124,109,99.124,116,119.124,102.0001,119.124" style="stroke: #A80036; stroke-width: 1.0;"/></g></svg>