<?xml version="1.0" encoding="UTF-8" standalone="no"?><svg xmlns="http://www.w3.org/2000/svg" xmlns:xlink="http://www.w3.org/1999/xlink" contentScriptType="application/ecmascript" contentStyleType="text/css" height="268px" preserveAspectRatio="none" style="width:194px;height:268px;" version="1.1" viewBox="0 0 194 268" width="194px" zoomAndPan="magnify"><defs><filter height="300%" id="f11g8lvgsz5gep" width="300%" x="-1" y="-1"><feGaussianBlur result="blurOut" stdDeviation="2.0"/><feColorMatrix in="blurOut" result="blurOut2" type="matrix" values="0 0 0 0 0 0 0 0 0 0 0 0 0 0 0 0 0 0 .4 0"/><feOffset dx="4.0" dy="4.0" in="blurOut2" result="blurOut3"/><feBlend in="SourceGraphic" in2="blurOut3" mode="normal"/></filter></defs><g><!--cluster m--><polygon fill="#FFFFFF" filter="url(#f11g8lvgsz5gep)" points="14,16,34,16,41,38.4883,172,38.4883,172,256,14,256,14,16" style="stroke: #000000; stroke-width: 1.5;"/><line style="stroke: #000000; stroke-width: 1.5;" x1="14" x2="41" y1="38.4883" y2="38.4883"/><text fill="#000000" font-family="sans-serif" font-size="14" font-weight="bold" lengthAdjust="spacingAndGlyphs" textLength="14" x="18" y="31.5352">m</text><!--class BonCommande--><rect fill="#FEFECE" filter="url(#f11g8lvgsz5gep)" height="104.7754" id="BonCommande" style="stroke: #A80036; stroke-width: 1.5;" width="142" x="22" y="143"/><ellipse cx="47.35" cy="159" fill="#ADD1B2" rx="11" ry="11" style="stroke: #A80036; stroke-width: 1.0;"/><path d="M49.8231,165.1431 Q49.2421,165.4419 48.6029,165.5913 Q47.9638,165.7407 47.2582,165.7407 Q44.7514,165.7407 43.4315,164.0889 Q42.1117,162.437 42.1117,159.3159 Q42.1117,156.1865 43.4315,154.5347 Q44.7514,152.8828 47.2582,152.8828 Q47.9638,152.8828 48.6112,153.0322 Q49.2587,153.1816 49.8231,153.4805 L49.8231,156.2031 Q49.1923,155.6221 48.5988,155.3523 Q48.0053,155.0825 47.3744,155.0825 Q46.0297,155.0825 45.3449,156.1492 Q44.6601,157.2158 44.6601,159.3159 Q44.6601,161.4077 45.3449,162.4744 Q46.0297,163.541 47.3744,163.541 Q48.0053,163.541 48.5988,163.2712 Q49.1923,163.0015 49.8231,162.4204 Z "/><text fill="#000000" font-family="sans-serif" font-size="12" lengthAdjust="spacingAndGlyphs" textLength="87" x="63.65" y="163.5352">BonCommande</text><line style="stroke: #A80036; stroke-width: 1.5;" x1="23" x2="163" y1="175" y2="175"/><rect fill="none" height="6" style="stroke: #C82930; stroke-width: 1.0;" width="6" x="30" y="183.9775"/><text fill="#000000" font-family="sans-serif" font-size="11" lengthAdjust="spacingAndGlyphs" text-decoration="underline" textLength="116" x="42" y="189.6348">long serialVersionUID</text><line style="stroke: #000000; stroke-width: 1.0;" x1="42" x2="158" y1="191.6348" y2="191.6348"/><rect fill="none" height="6" style="stroke: #C82930; stroke-width: 1.0;" width="6" x="30" y="196.9326"/><text fill="#000000" font-family="sans-serif" font-size="11" lengthAdjust="spacingAndGlyphs" textLength="42" x="42" y="202.5898">long ref</text><rect fill="none" height="6" style="stroke: #C82930; stroke-width: 1.0;" width="6" x="30" y="209.8877"/><text fill="#000000" font-family="sans-serif" font-size="11" lengthAdjust="spacingAndGlyphs" textLength="63" x="42" y="215.5449">String motif</text><rect fill="none" height="6" style="stroke: #C82930; stroke-width: 1.0;" width="6" x="30" y="222.8428"/><text fill="#000000" font-family="sans-serif" font-size="11" lengthAdjust="spacingAndGlyphs" textLength="55" x="42" y="228.5">String obs</text><rect fill="none" height="6" style="stroke: #C82930; stroke-width: 1.0;" width="6" x="30" y="235.7979"/><text fill="#000000" font-family="sans-serif" font-size="11" lengthAdjust="spacingAndGlyphs" textLength="85" x="42" y="241.4551">double montant</text><!--class Serializable--><rect fill="#FEFECE" filter="url(#f11g8lvgsz5gep)" height="40" id="Serializable" style="stroke: #A80036; stroke-width: 1.5;" width="98" x="44" y="43"/><ellipse cx="59" cy="59" fill="#B4A7E5" rx="11" ry="11" style="stroke: #A80036; stroke-width: 1.0;"/><path d="M55.4277,55.2651 L55.4277,53.1069 L62.8071,53.1069 L62.8071,55.2651 L60.3418,55.2651 L60.3418,63.3418 L62.8071,63.3418 L62.8071,65.5 L55.4277,65.5 L55.4277,63.3418 L57.8931,63.3418 L57.8931,55.2651 Z "/><text fill="#000000" font-family="sans-serif" font-size="12" font-style="italic" lengthAdjust="spacingAndGlyphs" textLength="66" x="73" y="63.5352">Serializable</text><line style="stroke: #A80036; stroke-width: 1.5;" x1="45" x2="141" y1="75" y2="75"/><!--link Serializable to BonCommande--><path d="M93,103.4435 C93,115.8514 93,129.6907 93,142.7919 " fill="none" id="Serializable-BonCommande" style="stroke: #A80036; stroke-width: 1.0; stroke-dasharray: 7.0,7.0;"/><polygon fill="none" points="86.0001,103.1239,93,83.1239,100.0001,103.1239,86.0001,103.1239" style="stroke: #A80036; stroke-width: 1.0;"/><!--
@startuml
hide methods
package m{
class BonCommande {
	-{static} long serialVersionUID
	-long ref
	-String motif
	-String obs
	-double montant
}
interface Serializable {
}
Serializable <|.. BonCommande
}
@enduml

PlantUML version 1.2018.13(Mon Nov 26 18:11:51 CET 2018)
(APACHE source distribution)
Java Runtime: Java(TM) SE Runtime Environment
JVM: Java HotSpot(TM) 64-Bit Server VM
Java Version: 1.8.0_152-b16
Operating System: Mac OS X
OS Version: 10.14.4
Default Encoding: UTF-8
Language: fr
Country: FR
--></g></svg>