<?xml version="1.0" encoding="UTF-8" standalone="yes"?><svg xmlns="http://www.w3.org/2000/svg" xmlns:xlink="http://www.w3.org/1999/xlink" height="439px" style="width:380px;height:439px;" version="1.1" viewBox="0 0 380 439" width="380px"><defs><filter height="300%" id="f1" width="300%" x="-1" y="-1"><feGaussianBlur result="blurOut" stdDeviation="2.0"/><feColorMatrix in="blurOut" result="blurOut2" type="matrix" values="0 0 0 0 0 0 0 0 0 0 0 0 0 0 0 0 0 0 .4 0"/><feOffset dx="4.0" dy="4.0" in="blurOut2" result="blurOut3"/><feBlend in="SourceGraphic" in2="blurOut3" mode="normal"/></filter></defs><g><polygon fill="#FFFFFF" filter="url(#f1)" points="22,24,42,24,49,46.4883,373,46.4883,373,432,22,432,22,24" style="stroke: #000000; stroke-width: 2.0;"/><line style="stroke: #000000; stroke-width: 2.0;" x1="22" x2="49" y1="46.4883" y2="46.4883"/><text fill="#000000" font-family="sans-serif" font-size="14" font-weight="bold" lengthAdjust="spacingAndGlyphs" textLength="14" x="26" y="39.5352">m</text><rect fill="#FEFECE" filter="url(#f1)" height="104.7754" style="stroke: #A80036; stroke-width: 1.5;" width="142" x="38" y="311"/><ellipse cx="63.35" cy="327" fill="#ADD1B2" rx="11" ry="11" style="stroke: #A80036; stroke-width: 1.0;"/><path d="M66.3231,332.6431 Q65.7421,332.9419 65.1029,333.0913 Q64.4638,333.2407 63.7582,333.2407 Q61.2514,333.2407 59.9315,331.5889 Q58.6117,329.937 58.6117,326.8159 Q58.6117,323.6865 59.9315,322.0347 Q61.2514,320.3828 63.7582,320.3828 Q64.4638,320.3828 65.1112,320.5322 Q65.7587,320.6816 66.3231,320.9805 L66.3231,323.7031 Q65.6923,323.1221 65.0988,322.8523 Q64.5053,322.5825 63.8744,322.5825 Q62.5297,322.5825 61.8449,323.6492 Q61.1601,324.7158 61.1601,326.8159 Q61.1601,328.9077 61.8449,329.9744 Q62.5297,331.041 63.8744,331.041 Q64.5053,331.041 65.0988,330.7712 Q65.6923,330.5015 66.3231,329.9204 Z "/><text fill="#000000" font-family="sans-serif" font-size="12" lengthAdjust="spacingAndGlyphs" textLength="87" x="79.65" y="331.5352">BonCommande</text><line style="stroke: #A80036; stroke-width: 1.5;" x1="39" x2="179" y1="343" y2="343"/><rect fill="none" height="6" style="stroke: #C82930; stroke-width: 1.0;" width="6" x="46" y="351.9775"/><text fill="#000000" font-family="sans-serif" font-size="11" lengthAdjust="spacingAndGlyphs" text-decoration="underline" textLength="116" x="58" y="357.6348">long serialVersionUID</text><line style="stroke: #000000; stroke-width: 1.0;" x1="58" x2="174" y1="359.6348" y2="359.6348"/><rect fill="none" height="6" style="stroke: #C82930; stroke-width: 1.0;" width="6" x="46" y="364.9326"/><text fill="#000000" font-family="sans-serif" font-size="11" lengthAdjust="spacingAndGlyphs" textLength="42" x="58" y="370.5898">long ref</text><rect fill="none" height="6" style="stroke: #C82930; stroke-width: 1.0;" width="6" x="46" y="377.8877"/><text fill="#000000" font-family="sans-serif" font-size="11" lengthAdjust="spacingAndGlyphs" textLength="63" x="58" y="383.5449">String motif</text><rect fill="none" height="6" style="stroke: #C82930; stroke-width: 1.0;" width="6" x="46" y="390.8428"/><text fill="#000000" font-family="sans-serif" font-size="11" lengthAdjust="spacingAndGlyphs" textLength="55" x="58" y="396.5">String obs</text><rect fill="none" height="6" style="stroke: #C82930; stroke-width: 1.0;" width="6" x="46" y="403.7979"/><text fill="#000000" font-family="sans-serif" font-size="11" lengthAdjust="spacingAndGlyphs" textLength="85" x="58" y="409.4551">double montant</text><rect fill="#FEFECE" filter="url(#f1)" height="40" style="stroke: #A80036; stroke-width: 1.5;" width="98" x="148" y="59"/><ellipse cx="163" cy="75" fill="#B4A7E5" rx="11" ry="11" style="stroke: #A80036; stroke-width: 1.0;"/><path d="M158.9277,70.7651 L158.9277,68.6069 L166.3071,68.6069 L166.3071,70.7651 L163.8418,70.7651 L163.8418,78.8418 L166.3071,78.8418 L166.3071,81 L158.9277,81 L158.9277,78.8418 L161.3931,78.8418 L161.3931,70.7651 Z "/><text fill="#000000" font-family="sans-serif" font-size="12" font-style="italic" lengthAdjust="spacingAndGlyphs" textLength="66" x="177" y="79.5352">Serializable</text><line style="stroke: #A80036; stroke-width: 1.5;" x1="149" x2="245" y1="91" y2="91"/><rect fill="#FEFECE" filter="url(#f1)" height="91.8203" style="stroke: #A80036; stroke-width: 1.5;" width="142" x="126" y="159"/><ellipse cx="171.75" cy="175" fill="#ADD1B2" rx="11" ry="11" style="stroke: #A80036; stroke-width: 1.0;"/><path d="M174.7231,180.6431 Q174.1421,180.9419 173.5029,181.0913 Q172.8638,181.2407 172.1582,181.2407 Q169.6514,181.2407 168.3315,179.5889 Q167.0117,177.937 167.0117,174.8159 Q167.0117,171.6865 168.3315,170.0347 Q169.6514,168.3828 172.1582,168.3828 Q172.8638,168.3828 173.5112,168.5322 Q174.1587,168.6816 174.7231,168.9805 L174.7231,171.7031 Q174.0923,171.1221 173.4988,170.8523 Q172.9053,170.5825 172.2744,170.5825 Q170.9297,170.5825 170.2449,171.6492 Q169.5601,172.7158 169.5601,174.8159 Q169.5601,176.9077 170.2449,177.9744 Q170.9297,179.041 172.2744,179.041 Q172.9053,179.041 173.4988,178.7712 Q174.0923,178.5015 174.7231,177.9204 Z "/><text fill="#000000" font-family="sans-serif" font-size="12" lengthAdjust="spacingAndGlyphs" textLength="42" x="192.25" y="179.5352">Facture</text><line style="stroke: #A80036; stroke-width: 1.5;" x1="127" x2="267" y1="191" y2="191"/><rect fill="none" height="6" style="stroke: #C82930; stroke-width: 1.0;" width="6" x="134" y="199.9775"/><text fill="#000000" font-family="sans-serif" font-size="11" lengthAdjust="spacingAndGlyphs" text-decoration="underline" textLength="116" x="146" y="205.6348">long serialVersionUID</text><line style="stroke: #000000; stroke-width: 1.0;" x1="146" x2="262" y1="207.6348" y2="207.6348"/><rect fill="none" height="6" style="stroke: #C82930; stroke-width: 1.0;" width="6" x="134" y="212.9326"/><text fill="#000000" font-family="sans-serif" font-size="11" lengthAdjust="spacingAndGlyphs" textLength="54" x="146" y="218.5898">String lieu</text><rect fill="none" height="6" style="stroke: #C82930; stroke-width: 1.0;" width="6" x="134" y="225.8877"/><text fill="#000000" font-family="sans-serif" font-size="11" lengthAdjust="spacingAndGlyphs" textLength="50" x="146" y="231.5449">Date date</text><rect fill="none" height="6" style="stroke: #C82930; stroke-width: 1.0;" width="6" x="134" y="238.8428"/><text fill="#000000" font-family="sans-serif" font-size="11" lengthAdjust="spacingAndGlyphs" textLength="82" x="146" y="244.5">int numJournee</text><rect fill="#FEFECE" filter="url(#f1)" height="104.7754" style="stroke: #A80036; stroke-width: 1.5;" width="142" x="215" y="311"/><ellipse cx="265.75" cy="327" fill="#ADD1B2" rx="11" ry="11" style="stroke: #A80036; stroke-width: 1.0;"/><path d="M268.7231,332.6431 Q268.1421,332.9419 267.5029,333.0913 Q266.8638,333.2407 266.1582,333.2407 Q263.6514,333.2407 262.3315,331.5889 Q261.0117,329.937 261.0117,326.8159 Q261.0117,323.6865 262.3315,322.0347 Q263.6514,320.3828 266.1582,320.3828 Q266.8638,320.3828 267.5112,320.5322 Q268.1587,320.6816 268.7231,320.9805 L268.7231,323.7031 Q268.0923,323.1221 267.4988,322.8523 Q266.9053,322.5825 266.2744,322.5825 Q264.9297,322.5825 264.2449,323.6492 Q263.5601,324.7158 263.5601,326.8159 Q263.5601,328.9077 264.2449,329.9744 Q264.9297,331.041 266.2744,331.041 Q266.9053,331.041 267.4988,330.7712 Q268.0923,330.5015 268.7231,329.9204 Z "/><text fill="#000000" font-family="sans-serif" font-size="12" lengthAdjust="spacingAndGlyphs" textLength="32" x="286.25" y="331.5352">Client</text><line style="stroke: #A80036; stroke-width: 1.5;" x1="216" x2="356" y1="343" y2="343"/><rect fill="none" height="6" style="stroke: #C82930; stroke-width: 1.0;" width="6" x="223" y="351.9775"/><text fill="#000000" font-family="sans-serif" font-size="11" lengthAdjust="spacingAndGlyphs" text-decoration="underline" textLength="116" x="235" y="357.6348">long serialVersionUID</text><line style="stroke: #000000; stroke-width: 1.0;" x1="235" x2="351" y1="359.6348" y2="359.6348"/><rect fill="none" height="6" style="stroke: #C82930; stroke-width: 1.0;" width="6" x="223" y="364.9326"/><text fill="#000000" font-family="sans-serif" font-size="11" lengthAdjust="spacingAndGlyphs" textLength="59" x="235" y="370.5898">String nom</text><rect fill="none" height="6" style="stroke: #C82930; stroke-width: 1.0;" width="6" x="223" y="377.8877"/><text fill="#000000" font-family="sans-serif" font-size="11" lengthAdjust="spacingAndGlyphs" textLength="77" x="235" y="383.5449">String adresse</text><rect fill="none" height="6" style="stroke: #C82930; stroke-width: 1.0;" width="6" x="223" y="390.8428"/><text fill="#000000" font-family="sans-serif" font-size="11" lengthAdjust="spacingAndGlyphs" textLength="50" x="235" y="396.5">int postal</text><rect fill="none" height="6" style="stroke: #C82930; stroke-width: 1.0;" width="6" x="223" y="403.7979"/><text fill="#000000" font-family="sans-serif" font-size="11" lengthAdjust="spacingAndGlyphs" textLength="56" x="235" y="409.4551">String ville</text><path d="M146.948,111.276 C131.492,124.088 116.349,140.268 108,159 C86.6074,206.994 90.2843,267.845 97.194,310.645 " fill="none" style="stroke: #A80036; stroke-width: 1.0; stroke-dasharray: 7.0,7.0;"/><polygon fill="none" points="142.732,105.688,162.897,99.178,151.193,116.842,142.732,105.688" style="stroke: #A80036; stroke-width: 1.0;"/><path d="M197,119.312 C197,131.927 197,145.942 197,158.922 " fill="none" style="stroke: #A80036; stroke-width: 1.0; stroke-dasharray: 7.0,7.0;"/><polygon fill="none" points="190,119.244,197,99.244,204,119.244,190,119.244" style="stroke: #A80036; stroke-width: 1.0;"/><path d="M247.052,111.276 C262.508,124.088 277.651,140.268 286,159 C307.392,206.993 304.05,267.844 297.422,310.645 " fill="none" style="stroke: #A80036; stroke-width: 1.0; stroke-dasharray: 7.0,7.0;"/><polygon fill="none" points="242.807,116.842,231.103,99.178,251.268,105.688,242.807,116.842" style="stroke: #A80036; stroke-width: 1.0;"/><path d="M171.31,251.271 C161.77,268.455 150.831,288.157 140.809,306.208 " fill="none" style="stroke: #A80036; stroke-width: 1.0;"/><polygon fill="#A80036" points="138.282,310.76,146.1479,304.8332,140.7091,306.3886,139.1537,300.9498,138.282,310.76" style="stroke: #A80036; stroke-width: 1.0;"/><text fill="#000000" font-family="sans-serif" font-size="13" lengthAdjust="spacingAndGlyphs" textLength="25" x="115.5371" y="300.2696">bc *</text><path d="M222.982,251.271 C232.631,268.455 243.694,288.157 253.83,306.208 " fill="none" style="stroke: #A80036; stroke-width: 1.0;"/><polygon fill="#A80036" points="256.386,310.76,255.4653,300.9543,253.9371,306.4008,248.4906,304.8726,256.386,310.76" style="stroke: #A80036; stroke-width: 1.0;"/><text fill="#000000" font-family="sans-serif" font-size="13" lengthAdjust="spacingAndGlyphs" textLength="63" x="185.1738" y="300.2696">0..1 client</text></g></svg>