<?xml version="1.0" encoding="UTF-8" standalone="yes"?><svg xmlns="http://www.w3.org/2000/svg" xmlns:xlink="http://www.w3.org/1999/xlink" height="495px" style="width:476px;height:495px;" version="1.1" viewBox="0 0 476 495" width="476px"><defs><filter height="300%" id="f1" width="300%" x="-1" y="-1"><feGaussianBlur result="blurOut" stdDeviation="2.0"/><feColorMatrix in="blurOut" result="blurOut2" type="matrix" values="0 0 0 0 0 0 0 0 0 0 0 0 0 0 0 0 0 0 .4 0"/><feOffset dx="4.0" dy="4.0" in="blurOut2" result="blurOut3"/><feBlend in="SourceGraphic" in2="blurOut3" mode="normal"/></filter></defs><g><polygon fill="#FFFFFF" filter="url(#f1)" points="22,32,42,32,49,54.4883,469,54.4883,469,488,22,488,22,32" style="stroke: #000000; stroke-width: 2.0;"/><line style="stroke: #000000; stroke-width: 2.0;" x1="22" x2="49" y1="54.4883" y2="54.4883"/><text fill="#000000" font-family="sans-serif" font-size="14" font-weight="bold" lengthAdjust="spacingAndGlyphs" textLength="14" x="25" y="48.5352">m</text><rect fill="#FEFECE" filter="url(#f1)" height="104.7754" style="stroke: #A80036; stroke-width: 1.5;" width="142" x="62" y="348"/><ellipse cx="87.35" cy="364" fill="#ADD1B2" rx="11" ry="11" style="stroke: #A80036; stroke-width: 1.0;"/><path d="M90.3231,369.6431 Q89.7421,369.9419 89.1029,370.0913 Q88.4638,370.2407 87.7582,370.2407 Q85.2514,370.2407 83.9315,368.5889 Q82.6117,366.937 82.6117,363.8159 Q82.6117,360.6865 83.9315,359.0347 Q85.2514,357.3828 87.7582,357.3828 Q88.4638,357.3828 89.1112,357.5322 Q89.7587,357.6816 90.3231,357.9805 L90.3231,360.7031 Q89.6923,360.1221 89.0988,359.8523 Q88.5053,359.5825 87.8744,359.5825 Q86.5297,359.5825 85.8449,360.6492 Q85.1601,361.7158 85.1601,363.8159 Q85.1601,365.9077 85.8449,366.9744 Q86.5297,368.041 87.8744,368.041 Q88.5053,368.041 89.0988,367.7712 Q89.6923,367.5015 90.3231,366.9204 Z "/><text fill="#000000" font-family="sans-serif" font-size="12" lengthAdjust="spacingAndGlyphs" textLength="87" x="103.65" y="368.5352">BonCommande</text><line style="stroke: #A80036; stroke-width: 1.5;" x1="63" x2="203" y1="380" y2="380"/><rect fill="none" height="6" style="stroke: #C82930; stroke-width: 1.0;" width="6" x="70" y="388.9775"/><text fill="#000000" font-family="sans-serif" font-size="11" lengthAdjust="spacingAndGlyphs" text-decoration="underline" textLength="116" x="82" y="394.6348">long serialVersionUID</text><line style="stroke: #000000; stroke-width: 1.0;" x1="82" x2="198" y1="396.6348" y2="396.6348"/><rect fill="none" height="6" style="stroke: #C82930; stroke-width: 1.0;" width="6" x="70" y="401.9326"/><text fill="#000000" font-family="sans-serif" font-size="11" lengthAdjust="spacingAndGlyphs" textLength="42" x="82" y="407.5898">long ref</text><rect fill="none" height="6" style="stroke: #C82930; stroke-width: 1.0;" width="6" x="70" y="414.8877"/><text fill="#000000" font-family="sans-serif" font-size="11" lengthAdjust="spacingAndGlyphs" textLength="63" x="82" y="420.5449">String motif</text><rect fill="none" height="6" style="stroke: #C82930; stroke-width: 1.0;" width="6" x="70" y="427.8428"/><text fill="#000000" font-family="sans-serif" font-size="11" lengthAdjust="spacingAndGlyphs" textLength="55" x="82" y="433.5">String obs</text><rect fill="none" height="6" style="stroke: #C82930; stroke-width: 1.0;" width="6" x="70" y="440.7979"/><text fill="#000000" font-family="sans-serif" font-size="11" lengthAdjust="spacingAndGlyphs" textLength="85" x="82" y="446.4551">double montant</text><rect fill="#FEFECE" filter="url(#f1)" height="40" style="stroke: #A80036; stroke-width: 1.5;" width="98" x="197" y="76"/><ellipse cx="212" cy="92" fill="#B4A7E5" rx="11" ry="11" style="stroke: #A80036; stroke-width: 1.0;"/><path d="M207.9277,87.7651 L207.9277,85.6069 L215.3071,85.6069 L215.3071,87.7651 L212.8418,87.7651 L212.8418,95.8418 L215.3071,95.8418 L215.3071,98 L207.9277,98 L207.9277,95.8418 L210.3931,95.8418 L210.3931,87.7651 Z "/><text fill="#000000" font-family="sans-serif" font-size="12" font-style="italic" lengthAdjust="spacingAndGlyphs" textLength="66" x="226" y="96.5352">Serializable</text><line style="stroke: #A80036; stroke-width: 1.5;" x1="198" x2="294" y1="108" y2="108"/><rect fill="#FEFECE" filter="url(#f1)" height="91.8203" style="stroke: #A80036; stroke-width: 1.5;" width="142" x="175" y="176"/><ellipse cx="220.75" cy="192" fill="#ADD1B2" rx="11" ry="11" style="stroke: #A80036; stroke-width: 1.0;"/><path d="M223.7231,197.6431 Q223.1421,197.9419 222.5029,198.0913 Q221.8638,198.2407 221.1582,198.2407 Q218.6514,198.2407 217.3315,196.5889 Q216.0117,194.937 216.0117,191.8159 Q216.0117,188.6865 217.3315,187.0347 Q218.6514,185.3828 221.1582,185.3828 Q221.8638,185.3828 222.5112,185.5322 Q223.1587,185.6816 223.7231,185.9805 L223.7231,188.7031 Q223.0923,188.1221 222.4988,187.8523 Q221.9053,187.5825 221.2744,187.5825 Q219.9297,187.5825 219.2449,188.6492 Q218.5601,189.7158 218.5601,191.8159 Q218.5601,193.9077 219.2449,194.9744 Q219.9297,196.041 221.2744,196.041 Q221.9053,196.041 222.4988,195.7712 Q223.0923,195.5015 223.7231,194.9204 Z "/><text fill="#000000" font-family="sans-serif" font-size="12" lengthAdjust="spacingAndGlyphs" textLength="42" x="241.25" y="196.5352">Facture</text><line style="stroke: #A80036; stroke-width: 1.5;" x1="176" x2="316" y1="208" y2="208"/><rect fill="none" height="6" style="stroke: #C82930; stroke-width: 1.0;" width="6" x="183" y="216.9775"/><text fill="#000000" font-family="sans-serif" font-size="11" lengthAdjust="spacingAndGlyphs" text-decoration="underline" textLength="116" x="195" y="222.6348">long serialVersionUID</text><line style="stroke: #000000; stroke-width: 1.0;" x1="195" x2="311" y1="224.6348" y2="224.6348"/><rect fill="none" height="6" style="stroke: #C82930; stroke-width: 1.0;" width="6" x="183" y="229.9326"/><text fill="#000000" font-family="sans-serif" font-size="11" lengthAdjust="spacingAndGlyphs" textLength="54" x="195" y="235.5898">String lieu</text><rect fill="none" height="6" style="stroke: #C82930; stroke-width: 1.0;" width="6" x="183" y="242.8877"/><text fill="#000000" font-family="sans-serif" font-size="11" lengthAdjust="spacingAndGlyphs" textLength="50" x="195" y="248.5449">Date date</text><rect fill="none" height="6" style="stroke: #C82930; stroke-width: 1.0;" width="6" x="183" y="255.8428"/><text fill="#000000" font-family="sans-serif" font-size="11" lengthAdjust="spacingAndGlyphs" textLength="82" x="195" y="261.5">int numJournee</text><rect fill="#FEFECE" filter="url(#f1)" height="104.7754" style="stroke: #A80036; stroke-width: 1.5;" width="142" x="287" y="348"/><ellipse cx="337.75" cy="364" fill="#ADD1B2" rx="11" ry="11" style="stroke: #A80036; stroke-width: 1.0;"/><path d="M340.7231,369.6431 Q340.1421,369.9419 339.5029,370.0913 Q338.8638,370.2407 338.1582,370.2407 Q335.6514,370.2407 334.3315,368.5889 Q333.0117,366.937 333.0117,363.8159 Q333.0117,360.6865 334.3315,359.0347 Q335.6514,357.3828 338.1582,357.3828 Q338.8638,357.3828 339.5112,357.5322 Q340.1587,357.6816 340.7231,357.9805 L340.7231,360.7031 Q340.0923,360.1221 339.4988,359.8523 Q338.9053,359.5825 338.2744,359.5825 Q336.9297,359.5825 336.2449,360.6492 Q335.5601,361.7158 335.5601,363.8159 Q335.5601,365.9077 336.2449,366.9744 Q336.9297,368.041 338.2744,368.041 Q338.9053,368.041 339.4988,367.7712 Q340.0923,367.5015 340.7231,366.9204 Z "/><text fill="#000000" font-family="sans-serif" font-size="12" lengthAdjust="spacingAndGlyphs" textLength="32" x="358.25" y="368.5352">Client</text><line style="stroke: #A80036; stroke-width: 1.5;" x1="288" x2="428" y1="380" y2="380"/><rect fill="none" height="6" style="stroke: #C82930; stroke-width: 1.0;" width="6" x="295" y="388.9775"/><text fill="#000000" font-family="sans-serif" font-size="11" lengthAdjust="spacingAndGlyphs" text-decoration="underline" textLength="116" x="307" y="394.6348">long serialVersionUID</text><line style="stroke: #000000; stroke-width: 1.0;" x1="307" x2="423" y1="396.6348" y2="396.6348"/><rect fill="none" height="6" style="stroke: #C82930; stroke-width: 1.0;" width="6" x="295" y="401.9326"/><text fill="#000000" font-family="sans-serif" font-size="11" lengthAdjust="spacingAndGlyphs" textLength="59" x="307" y="407.5898">String nom</text><rect fill="none" height="6" style="stroke: #C82930; stroke-width: 1.0;" width="6" x="295" y="414.8877"/><text fill="#000000" font-family="sans-serif" font-size="11" lengthAdjust="spacingAndGlyphs" textLength="77" x="307" y="420.5449">String adresse</text><rect fill="none" height="6" style="stroke: #C82930; stroke-width: 1.0;" width="6" x="295" y="427.8428"/><text fill="#000000" font-family="sans-serif" font-size="11" lengthAdjust="spacingAndGlyphs" textLength="50" x="307" y="433.5">int postal</text><rect fill="none" height="6" style="stroke: #C82930; stroke-width: 1.0;" width="6" x="295" y="440.7979"/><text fill="#000000" font-family="sans-serif" font-size="11" lengthAdjust="spacingAndGlyphs" textLength="56" x="307" y="446.4551">String ville</text><path d="M198,129 C183,141 168,158 158,176 C131,230 127,301 129,348 " fill="none" style="stroke: #A80036; stroke-width: 1.0; stroke-dasharray: 7.0,7.0;"/><polygon fill="none" points="194.064,123.179,214,116,202.892,134.045,194.064,123.179" style="stroke: #A80036; stroke-width: 1.0;"/><path d="M246,136 C246,149 246,163 246,176 " fill="none" style="stroke: #A80036; stroke-width: 1.0; stroke-dasharray: 7.0,7.0;"/><polygon fill="none" points="239,136,246,116,253,136,239,136" style="stroke: #A80036; stroke-width: 1.0;"/><path d="M294,129 C310,141 324,158 334,176 C361,230 364,301 362,348 " fill="none" style="stroke: #A80036; stroke-width: 1.0; stroke-dasharray: 7.0,7.0;"/><polygon fill="none" points="289.108,134.045,278,116,297.936,123.179,289.108,134.045" style="stroke: #A80036; stroke-width: 1.0;"/><path d="M217,268 C202,292 184,320 169,344 " fill="none" style="stroke: #A80036; stroke-width: 1.0;"/><polygon fill="#A80036" points="166,348,174.6,343.2,169,344,168.2,338.4,166,348" style="stroke: #A80036; stroke-width: 1.0;"/><text fill="#000000" font-family="sans-serif" font-size="13" lengthAdjust="spacingAndGlyphs" textLength="25" x="169.3922" y="337.2848">bc *</text><path d="M275,268 C289,292 307,320 322,344 " fill="none" style="stroke: #A80036; stroke-width: 1.0;"/><polygon fill="#A80036" points="325,348,322.8,338.4,322,344,316.4,343.2,325,348" style="stroke: #A80036; stroke-width: 1.0;"/><text fill="#000000" font-family="sans-serif" font-size="13" lengthAdjust="spacingAndGlyphs" textLength="63" x="287.9492" y="337.1773">0..1 client</text></g></svg>