<?xml version="1.0" encoding="UTF-8" standalone="no"?><svg xmlns="http://www.w3.org/2000/svg" xmlns:xlink="http://www.w3.org/1999/xlink" contentScriptType="application/ecmascript" contentStyleType="text/css" height="420px" preserveAspectRatio="none" style="width:371px;height:420px;" version="1.1" viewBox="0 0 371 420" width="371px" zoomAndPan="magnify"><defs><filter height="300%" id="f4ys2nlggj8x3" width="300%" x="-1" y="-1"><feGaussianBlur result="blurOut" stdDeviation="2.0"/><feColorMatrix in="blurOut" result="blurOut2" type="matrix" values="0 0 0 0 0 0 0 0 0 0 0 0 0 0 0 0 0 0 .4 0"/><feOffset dx="4.0" dy="4.0" in="blurOut2" result="blurOut3"/><feBlend in="SourceGraphic" in2="blurOut3" mode="normal"/></filter></defs><g><!--cluster m--><polygon fill="#FFFFFF" filter="url(#f4ys2nlggj8x3)" points="14,16,34,16,41,38.4883,349,38.4883,349,408,14,408,14,16" style="stroke: #000000; stroke-width: 1.5;"/><line style="stroke: #000000; stroke-width: 1.5;" x1="14" x2="41" y1="38.4883" y2="38.4883"/><text fill="#000000" font-family="sans-serif" font-size="14" font-weight="bold" lengthAdjust="spacingAndGlyphs" textLength="14" x="18" y="31.5352">m</text><!--class BonCommande--><rect fill="#FEFECE" filter="url(#f4ys2nlggj8x3)" height="104.7754" id="BonCommande" style="stroke: #A80036; stroke-width: 1.5;" width="142" x="22" y="295"/><ellipse cx="47.35" cy="311" fill="#ADD1B2" rx="11" ry="11" style="stroke: #A80036; stroke-width: 1.0;"/><path d="M49.8231,317.1431 Q49.2421,317.4419 48.6029,317.5913 Q47.9638,317.7407 47.2582,317.7407 Q44.7514,317.7407 43.4315,316.0889 Q42.1117,314.437 42.1117,311.3159 Q42.1117,308.1865 43.4315,306.5347 Q44.7514,304.8828 47.2582,304.8828 Q47.9638,304.8828 48.6112,305.0322 Q49.2587,305.1816 49.8231,305.4805 L49.8231,308.2031 Q49.1923,307.6221 48.5988,307.3523 Q48.0053,307.0825 47.3744,307.0825 Q46.0297,307.0825 45.3449,308.1492 Q44.6601,309.2158 44.6601,311.3159 Q44.6601,313.4077 45.3449,314.4744 Q46.0297,315.541 47.3744,315.541 Q48.0053,315.541 48.5988,315.2712 Q49.1923,315.0015 49.8231,314.4204 Z "/><text fill="#000000" font-family="sans-serif" font-size="12" lengthAdjust="spacingAndGlyphs" textLength="87" x="63.65" y="315.5352">BonCommande</text><line style="stroke: #A80036; stroke-width: 1.5;" x1="23" x2="163" y1="327" y2="327"/><rect fill="none" height="6" style="stroke: #C82930; stroke-width: 1.0;" width="6" x="30" y="335.9775"/><text fill="#000000" font-family="sans-serif" font-size="11" lengthAdjust="spacingAndGlyphs" text-decoration="underline" textLength="116" x="42" y="341.6348">long serialVersionUID</text><line style="stroke: #000000; stroke-width: 1.0;" x1="42" x2="158" y1="343.6348" y2="343.6348"/><rect fill="none" height="6" style="stroke: #C82930; stroke-width: 1.0;" width="6" x="30" y="348.9326"/><text fill="#000000" font-family="sans-serif" font-size="11" lengthAdjust="spacingAndGlyphs" textLength="42" x="42" y="354.5898">long ref</text><rect fill="none" height="6" style="stroke: #C82930; stroke-width: 1.0;" width="6" x="30" y="361.8877"/><text fill="#000000" font-family="sans-serif" font-size="11" lengthAdjust="spacingAndGlyphs" textLength="63" x="42" y="367.5449">String motif</text><rect fill="none" height="6" style="stroke: #C82930; stroke-width: 1.0;" width="6" x="30" y="374.8428"/><text fill="#000000" font-family="sans-serif" font-size="11" lengthAdjust="spacingAndGlyphs" textLength="55" x="42" y="380.5">String obs</text><rect fill="none" height="6" style="stroke: #C82930; stroke-width: 1.0;" width="6" x="30" y="387.7979"/><text fill="#000000" font-family="sans-serif" font-size="11" lengthAdjust="spacingAndGlyphs" textLength="85" x="42" y="393.4551">double montant</text><!--class Serializable--><rect fill="#FEFECE" filter="url(#f4ys2nlggj8x3)" height="40" id="Serializable" style="stroke: #A80036; stroke-width: 1.5;" width="98" x="132" y="43"/><ellipse cx="147" cy="59" fill="#B4A7E5" rx="11" ry="11" style="stroke: #A80036; stroke-width: 1.0;"/><path d="M143.4277,55.2651 L143.4277,53.1069 L150.8071,53.1069 L150.8071,55.2651 L148.3418,55.2651 L148.3418,63.3418 L150.8071,63.3418 L150.8071,65.5 L143.4277,65.5 L143.4277,63.3418 L145.8931,63.3418 L145.8931,55.2651 Z "/><text fill="#000000" font-family="sans-serif" font-size="12" font-style="italic" lengthAdjust="spacingAndGlyphs" textLength="66" x="161" y="63.5352">Serializable</text><line style="stroke: #A80036; stroke-width: 1.5;" x1="133" x2="229" y1="75" y2="75"/><!--class Facture--><rect fill="#FEFECE" filter="url(#f4ys2nlggj8x3)" height="91.8203" id="Facture" style="stroke: #A80036; stroke-width: 1.5;" width="142" x="110" y="143"/><ellipse cx="155.75" cy="159" fill="#ADD1B2" rx="11" ry="11" style="stroke: #A80036; stroke-width: 1.0;"/><path d="M158.2231,165.1431 Q157.6421,165.4419 157.0029,165.5913 Q156.3638,165.7407 155.6582,165.7407 Q153.1514,165.7407 151.8315,164.0889 Q150.5117,162.437 150.5117,159.3159 Q150.5117,156.1865 151.8315,154.5347 Q153.1514,152.8828 155.6582,152.8828 Q156.3638,152.8828 157.0112,153.0322 Q157.6587,153.1816 158.2231,153.4805 L158.2231,156.2031 Q157.5923,155.6221 156.9988,155.3523 Q156.4053,155.0825 155.7744,155.0825 Q154.4297,155.0825 153.7449,156.1492 Q153.0601,157.2158 153.0601,159.3159 Q153.0601,161.4077 153.7449,162.4744 Q154.4297,163.541 155.7744,163.541 Q156.4053,163.541 156.9988,163.2712 Q157.5923,163.0015 158.2231,162.4204 Z "/><text fill="#000000" font-family="sans-serif" font-size="12" lengthAdjust="spacingAndGlyphs" textLength="42" x="176.25" y="163.5352">Facture</text><line style="stroke: #A80036; stroke-width: 1.5;" x1="111" x2="251" y1="175" y2="175"/><rect fill="none" height="6" style="stroke: #C82930; stroke-width: 1.0;" width="6" x="118" y="183.9775"/><text fill="#000000" font-family="sans-serif" font-size="11" lengthAdjust="spacingAndGlyphs" text-decoration="underline" textLength="116" x="130" y="189.6348">long serialVersionUID</text><line style="stroke: #000000; stroke-width: 1.0;" x1="130" x2="246" y1="191.6348" y2="191.6348"/><rect fill="none" height="6" style="stroke: #C82930; stroke-width: 1.0;" width="6" x="118" y="196.9326"/><text fill="#000000" font-family="sans-serif" font-size="11" lengthAdjust="spacingAndGlyphs" textLength="54" x="130" y="202.5898">String lieu</text><rect fill="none" height="6" style="stroke: #C82930; stroke-width: 1.0;" width="6" x="118" y="209.8877"/><text fill="#000000" font-family="sans-serif" font-size="11" lengthAdjust="spacingAndGlyphs" textLength="50" x="130" y="215.5449">Date date</text><rect fill="none" height="6" style="stroke: #C82930; stroke-width: 1.0;" width="6" x="118" y="222.8428"/><text fill="#000000" font-family="sans-serif" font-size="11" lengthAdjust="spacingAndGlyphs" textLength="82" x="130" y="228.5">int numJournee</text><!--class Client--><rect fill="#FEFECE" filter="url(#f4ys2nlggj8x3)" height="104.7754" id="Client" style="stroke: #A80036; stroke-width: 1.5;" width="142" x="199" y="295"/><ellipse cx="249.75" cy="311" fill="#ADD1B2" rx="11" ry="11" style="stroke: #A80036; stroke-width: 1.0;"/><path d="M252.2231,317.1431 Q251.6421,317.4419 251.0029,317.5913 Q250.3638,317.7407 249.6582,317.7407 Q247.1514,317.7407 245.8315,316.0889 Q244.5117,314.437 244.5117,311.3159 Q244.5117,308.1865 245.8315,306.5347 Q247.1514,304.8828 249.6582,304.8828 Q250.3638,304.8828 251.0112,305.0322 Q251.6587,305.1816 252.2231,305.4805 L252.2231,308.2031 Q251.5923,307.6221 250.9988,307.3523 Q250.4053,307.0825 249.7744,307.0825 Q248.4297,307.0825 247.7449,308.1492 Q247.0601,309.2158 247.0601,311.3159 Q247.0601,313.4077 247.7449,314.4744 Q248.4297,315.541 249.7744,315.541 Q250.4053,315.541 250.9988,315.2712 Q251.5923,315.0015 252.2231,314.4204 Z "/><text fill="#000000" font-family="sans-serif" font-size="12" lengthAdjust="spacingAndGlyphs" textLength="32" x="270.25" y="315.5352">Client</text><line style="stroke: #A80036; stroke-width: 1.5;" x1="200" x2="340" y1="327" y2="327"/><rect fill="none" height="6" style="stroke: #C82930; stroke-width: 1.0;" width="6" x="207" y="335.9775"/><text fill="#000000" font-family="sans-serif" font-size="11" lengthAdjust="spacingAndGlyphs" text-decoration="underline" textLength="116" x="219" y="341.6348">long serialVersionUID</text><line style="stroke: #000000; stroke-width: 1.0;" x1="219" x2="335" y1="343.6348" y2="343.6348"/><rect fill="none" height="6" style="stroke: #C82930; stroke-width: 1.0;" width="6" x="207" y="348.9326"/><text fill="#000000" font-family="sans-serif" font-size="11" lengthAdjust="spacingAndGlyphs" textLength="59" x="219" y="354.5898">String nom</text><rect fill="none" height="6" style="stroke: #C82930; stroke-width: 1.0;" width="6" x="207" y="361.8877"/><text fill="#000000" font-family="sans-serif" font-size="11" lengthAdjust="spacingAndGlyphs" textLength="77" x="219" y="367.5449">String adresse</text><rect fill="none" height="6" style="stroke: #C82930; stroke-width: 1.0;" width="6" x="207" y="374.8428"/><text fill="#000000" font-family="sans-serif" font-size="11" lengthAdjust="spacingAndGlyphs" textLength="50" x="219" y="380.5">int postal</text><rect fill="none" height="6" style="stroke: #C82930; stroke-width: 1.0;" width="6" x="207" y="387.7979"/><text fill="#000000" font-family="sans-serif" font-size="11" lengthAdjust="spacingAndGlyphs" textLength="56" x="219" y="393.4551">String ville</text><!--link Serializable to BonCommande--><path d="M131.0167,95.7871 C115.9013,108.5423 101.1585,124.5573 93,143 C71.7427,191.0533 75.0641,251.8947 81.65,294.6772 " fill="none" id="Serializable-BonCommande" style="stroke: #A80036; stroke-width: 1.0; stroke-dasharray: 7.0,7.0;"/><polygon fill="none" points="127.155,89.9257,147.2706,83.2651,135.6991,101.0162,127.155,89.9257" style="stroke: #A80036; stroke-width: 1.0;"/><!--link Serializable to Facture--><path d="M181,103.3121 C181,115.9266 181,129.9418 181,142.9219 " fill="none" id="Serializable-Facture" style="stroke: #A80036; stroke-width: 1.0; stroke-dasharray: 7.0,7.0;"/><polygon fill="none" points="174.0001,103.2441,181,83.2441,188.0001,103.244,174.0001,103.2441" style="stroke: #A80036; stroke-width: 1.0;"/><!--link Serializable to Client--><path d="M231.0515,95.2759 C246.5076,108.0877 261.6506,124.2683 270,143 C291.3923,190.9933 288.0497,251.8441 281.4221,294.6452 " fill="none" id="Serializable-Client" style="stroke: #A80036; stroke-width: 1.0; stroke-dasharray: 7.0,7.0;"/><polygon fill="none" points="226.8071,100.8424,215.1029,83.1785,235.2679,89.6882,226.8071,100.8424" style="stroke: #A80036; stroke-width: 1.0;"/><!--link Facture to BonCommande--><path d="M155.3102,235.2708 C145.7695,252.4549 134.831,272.1567 124.8086,290.2083 " fill="none" id="Facture-BonCommande" style="stroke: #A80036; stroke-width: 1.0;"/><polygon fill="#A80036" points="122.2817,294.7596,130.1476,288.8328,124.7088,290.3882,123.1534,284.9494,122.2817,294.7596" style="stroke: #A80036; stroke-width: 1.0;"/><text fill="#000000" font-family="sans-serif" font-size="13" lengthAdjust="spacingAndGlyphs" textLength="25" x="99.5367" y="284.2691">bc *</text><!--link Facture to Client--><path d="M206.9817,235.2708 C216.6308,252.4549 227.6937,272.1567 237.8299,290.2083 " fill="none" id="Facture-Client" style="stroke: #A80036; stroke-width: 1.0;"/><polygon fill="#A80036" points="240.3855,294.7596,239.4666,284.9537,237.9374,290.3999,232.4912,288.8707,240.3855,294.7596" style="stroke: #A80036; stroke-width: 1.0;"/><text fill="#000000" font-family="sans-serif" font-size="13" lengthAdjust="spacingAndGlyphs" textLength="63" x="169.1732" y="284.2691">0..1 client</text><!--
@startuml
hide methods
package m {
  class BonCommande {
  	-{static} long serialVersionUID
  	-long ref
  	-String motif
  	-String obs
  	-double montant
  }
  interface Serializable {
  }

  Serializable <|.. BonCommande

  class Facture {
  	-{static} long serialVersionUID
  	-String lieu
  	-Date date
  	-int numJournee
  }
  Serializable <|.. Facture

  class Client {
  	-{static} long serialVersionUID
  	-String nom
  	-String adresse
  	-int postal
  	-String ville
  }

  Serializable <|.. Client

  Facture - -> "bc *" BonCommande
  Facture - -> "0..1 client" Client
}
@enduml

PlantUML version 1.2018.13(Mon Nov 26 18:11:51 CET 2018)
(APACHE source distribution)
Java Runtime: Java(TM) SE Runtime Environment
JVM: Java HotSpot(TM) 64-Bit Server VM
Java Version: 1.8.0_152-b16
Operating System: Mac OS X
OS Version: 10.14.4
Default Encoding: UTF-8
Language: fr
Country: FR
--></g></svg>