<?xml version="1.0" encoding="UTF-8" standalone="yes"?><svg xmlns="http://www.w3.org/2000/svg" xmlns:xlink="http://www.w3.org/1999/xlink" height="226px" style="width:290px;height:226px;" version="1.1" viewBox="0 0 290 226" width="290px"><defs><filter height="300%" id="f1" width="300%" x="-1" y="-1"><feGaussianBlur result="blurOut" stdDeviation="2.0"/><feColorMatrix in="blurOut" result="blurOut2" type="matrix" values="0 0 0 0 0 0 0 0 0 0 0 0 0 0 0 0 0 0 .4 0"/><feOffset dx="4.0" dy="4.0" in="blurOut2" result="blurOut3"/><feBlend in="SourceGraphic" in2="blurOut3" mode="normal"/></filter></defs><g><rect fill="#FFFFFF" filter="url(#f1)" height="121.9316" style="stroke: #A80036; stroke-width: 1.0;" width="10" x="45" y="48.4883"/><rect fill="#FFFFFF" filter="url(#f1)" height="100.9316" style="stroke: #A80036; stroke-width: 1.0;" width="10" x="153" y="69.4883"/><rect fill="#FFFFFF" filter="url(#f1)" height="14.3105" style="stroke: #A80036; stroke-width: 1.0;" width="10" x="261" y="98.7988"/><rect fill="#FFFFFF" filter="url(#f1)" height="14.3105" style="stroke: #A80036; stroke-width: 1.0;" width="10" x="261" y="142.1094"/><line style="stroke: #A80036; stroke-width: 1.0; stroke-dasharray: 5.0,5.0;" x1="50" x2="50" y1="38.4883" y2="188.4199"/><line style="stroke: #A80036; stroke-width: 1.0; stroke-dasharray: 5.0,5.0;" x1="157.5" x2="157.5" y1="38.4883" y2="188.4199"/><line style="stroke: #A80036; stroke-width: 1.0; stroke-dasharray: 5.0,5.0;" x1="265.5" x2="265.5" y1="38.4883" y2="188.4199"/><rect fill="#FEFECE" filter="url(#f1)" height="30.4883" style="stroke: #A80036; stroke-width: 1.5;" width="80" x="8" y="3"/><text fill="#000000" font-family="sans-serif" font-size="14" lengthAdjust="spacingAndGlyphs" textLength="66" x="15" y="23.5352">:Appelant</text><rect fill="#FEFECE" filter="url(#f1)" height="30.4883" style="stroke: #A80036; stroke-width: 1.5;" width="80" x="8" y="187.4199"/><text fill="#000000" font-family="sans-serif" font-size="14" lengthAdjust="spacingAndGlyphs" textLength="66" x="15" y="207.9551">:Appelant</text><rect fill="#FEFECE" filter="url(#f1)" height="30.4883" style="stroke: #A80036; stroke-width: 1.5;" width="35" x="138.5" y="3"/><text fill="#000000" font-family="sans-serif" font-size="14" lengthAdjust="spacingAndGlyphs" textLength="21" x="145.5" y="23.5352">b:B</text><rect fill="#FEFECE" filter="url(#f1)" height="30.4883" style="stroke: #A80036; stroke-width: 1.5;" width="35" x="138.5" y="187.4199"/><text fill="#000000" font-family="sans-serif" font-size="14" lengthAdjust="spacingAndGlyphs" textLength="21" x="145.5" y="207.9551">b:B</text><rect fill="#FEFECE" filter="url(#f1)" height="30.4883" style="stroke: #A80036; stroke-width: 1.5;" width="35" x="246.5" y="3"/><text fill="#000000" font-family="sans-serif" font-size="14" lengthAdjust="spacingAndGlyphs" textLength="21" x="253.5" y="23.5352">c:C</text><rect fill="#FEFECE" filter="url(#f1)" height="30.4883" style="stroke: #A80036; stroke-width: 1.5;" width="35" x="246.5" y="187.4199"/><text fill="#000000" font-family="sans-serif" font-size="14" lengthAdjust="spacingAndGlyphs" textLength="21" x="253.5" y="207.9551">c:C</text><rect fill="#FFFFFF" filter="url(#f1)" height="121.9316" style="stroke: #A80036; stroke-width: 1.0;" width="10" x="45" y="48.4883"/><rect fill="#FFFFFF" filter="url(#f1)" height="100.9316" style="stroke: #A80036; stroke-width: 1.0;" width="10" x="153" y="69.4883"/><rect fill="#FFFFFF" filter="url(#f1)" height="14.3105" style="stroke: #A80036; stroke-width: 1.0;" width="10" x="261" y="98.7988"/><rect fill="#FFFFFF" filter="url(#f1)" height="14.3105" style="stroke: #A80036; stroke-width: 1.0;" width="10" x="261" y="142.1094"/><polygon fill="#A80036" points="141,65.4883,151,69.4883,141,73.4883,145,69.4883" style="stroke: #A80036; stroke-width: 1.0;"/><line style="stroke: #A80036; stroke-width: 1.0;" x1="55" x2="147" y1="69.4883" y2="69.4883"/><text fill="#000000" font-family="sans-serif" font-size="13" lengthAdjust="spacingAndGlyphs" textLength="79" x="62" y="65.0566">methode1(p)</text><polygon fill="#A80036" points="249,94.7988,259,98.7988,249,102.7988,253,98.7988" style="stroke: #A80036; stroke-width: 1.0;"/><line style="stroke: #A80036; stroke-width: 1.0;" x1="163" x2="255" y1="98.7988" y2="98.7988"/><text fill="#000000" font-family="sans-serif" font-size="13" lengthAdjust="spacingAndGlyphs" textLength="71" x="170" y="94.3672">methode2()</text><polygon fill="#A80036" points="174,109.1094,164,113.1094,174,117.1094,170,113.1094" style="stroke: #A80036; stroke-width: 1.0;"/><line style="stroke: #A80036; stroke-width: 1.0; stroke-dasharray: 2.0,2.0;" x1="168" x2="265" y1="113.1094" y2="113.1094"/><polygon fill="#A80036" points="249,138.1094,259,142.1094,249,146.1094,253,142.1094" style="stroke: #A80036; stroke-width: 1.0;"/><line style="stroke: #A80036; stroke-width: 1.0;" x1="163" x2="255" y1="142.1094" y2="142.1094"/><text fill="#000000" font-family="sans-serif" font-size="13" lengthAdjust="spacingAndGlyphs" textLength="79" x="170" y="137.6777">methode3(p)</text><polygon fill="#A80036" points="174,152.4199,164,156.4199,174,160.4199,170,156.4199" style="stroke: #A80036; stroke-width: 1.0;"/><line style="stroke: #A80036; stroke-width: 1.0; stroke-dasharray: 2.0,2.0;" x1="168" x2="265" y1="156.4199" y2="156.4199"/><polygon fill="#A80036" points="61,166.4199,51,170.4199,61,174.4199,57,170.4199" style="stroke: #A80036; stroke-width: 1.0;"/><line style="stroke: #A80036; stroke-width: 1.0; stroke-dasharray: 2.0,2.0;" x1="55" x2="157" y1="170.4199" y2="170.4199"/></g></svg>