<?xml version="1.0" encoding="UTF-8" standalone="no"?><svg xmlns="http://www.w3.org/2000/svg" xmlns:xlink="http://www.w3.org/1999/xlink" contentScriptType="application/ecmascript" contentStyleType="text/css" height="228px" preserveAspectRatio="none" style="width:292px;height:228px;" version="1.1" viewBox="0 0 292 228" width="292px" zoomAndPan="magnify"><defs><filter height="300%" id="f1umxhxzva9z32" width="300%" x="-1" y="-1"><feGaussianBlur result="blurOut" stdDeviation="2.0"/><feColorMatrix in="blurOut" result="blurOut2" type="matrix" values="0 0 0 0 0 0 0 0 0 0 0 0 0 0 0 0 0 0 .4 0"/><feOffset dx="4.0" dy="4.0" in="blurOut2" result="blurOut3"/><feBlend in="SourceGraphic" in2="blurOut3" mode="normal"/></filter></defs><g><rect fill="#FFFFFF" filter="url(#f1umxhxzva9z32)" height="121.9316" style="stroke: #A80036; stroke-width: 1.0;" width="10" x="45" y="48.4883"/><rect fill="#FFFFFF" filter="url(#f1umxhxzva9z32)" height="100.6211" style="stroke: #A80036; stroke-width: 1.0;" width="10" x="153" y="69.7988"/><rect fill="#FFFFFF" filter="url(#f1umxhxzva9z32)" height="14" style="stroke: #A80036; stroke-width: 1.0;" width="10" x="261" y="99.1094"/><rect fill="#FFFFFF" filter="url(#f1umxhxzva9z32)" height="14" style="stroke: #A80036; stroke-width: 1.0;" width="10" x="261" y="142.4199"/><line style="stroke: #A80036; stroke-width: 1.0; stroke-dasharray: 5.0,5.0;" x1="50" x2="50" y1="38.4883" y2="188.4199"/><line style="stroke: #A80036; stroke-width: 1.0; stroke-dasharray: 5.0,5.0;" x1="157.5" x2="157.5" y1="38.4883" y2="188.4199"/><line style="stroke: #A80036; stroke-width: 1.0; stroke-dasharray: 5.0,5.0;" x1="265.5" x2="265.5" y1="38.4883" y2="188.4199"/><rect fill="#FEFECE" filter="url(#f1umxhxzva9z32)" height="30.4883" style="stroke: #A80036; stroke-width: 1.5;" width="80" x="8" y="3"/><text fill="#000000" font-family="sans-serif" font-size="14" lengthAdjust="spacingAndGlyphs" textLength="66" x="15" y="23.5352">:Appelant</text><rect fill="#FEFECE" filter="url(#f1umxhxzva9z32)" height="30.4883" style="stroke: #A80036; stroke-width: 1.5;" width="80" x="8" y="187.4199"/><text fill="#000000" font-family="sans-serif" font-size="14" lengthAdjust="spacingAndGlyphs" textLength="66" x="15" y="207.9551">:Appelant</text><rect fill="#FEFECE" filter="url(#f1umxhxzva9z32)" height="30.4883" style="stroke: #A80036; stroke-width: 1.5;" width="35" x="138.5" y="3"/><text fill="#000000" font-family="sans-serif" font-size="14" lengthAdjust="spacingAndGlyphs" textLength="21" x="145.5" y="23.5352">b:B</text><rect fill="#FEFECE" filter="url(#f1umxhxzva9z32)" height="30.4883" style="stroke: #A80036; stroke-width: 1.5;" width="35" x="138.5" y="187.4199"/><text fill="#000000" font-family="sans-serif" font-size="14" lengthAdjust="spacingAndGlyphs" textLength="21" x="145.5" y="207.9551">b:B</text><rect fill="#FEFECE" filter="url(#f1umxhxzva9z32)" height="30.4883" style="stroke: #A80036; stroke-width: 1.5;" width="35" x="246.5" y="3"/><text fill="#000000" font-family="sans-serif" font-size="14" lengthAdjust="spacingAndGlyphs" textLength="21" x="253.5" y="23.5352">c:C</text><rect fill="#FEFECE" filter="url(#f1umxhxzva9z32)" height="30.4883" style="stroke: #A80036; stroke-width: 1.5;" width="35" x="246.5" y="187.4199"/><text fill="#000000" font-family="sans-serif" font-size="14" lengthAdjust="spacingAndGlyphs" textLength="21" x="253.5" y="207.9551">c:C</text><rect fill="#FFFFFF" filter="url(#f1umxhxzva9z32)" height="121.9316" style="stroke: #A80036; stroke-width: 1.0;" width="10" x="45" y="48.4883"/><rect fill="#FFFFFF" filter="url(#f1umxhxzva9z32)" height="100.6211" style="stroke: #A80036; stroke-width: 1.0;" width="10" x="153" y="69.7988"/><rect fill="#FFFFFF" filter="url(#f1umxhxzva9z32)" height="14" style="stroke: #A80036; stroke-width: 1.0;" width="10" x="261" y="99.1094"/><rect fill="#FFFFFF" filter="url(#f1umxhxzva9z32)" height="14" style="stroke: #A80036; stroke-width: 1.0;" width="10" x="261" y="142.4199"/><polygon fill="#A80036" points="141,65.7988,151,69.7988,141,73.7988,145,69.7988" style="stroke: #A80036; stroke-width: 1.0;"/><line style="stroke: #A80036; stroke-width: 1.0;" x1="55" x2="147" y1="69.7988" y2="69.7988"/><text fill="#000000" font-family="sans-serif" font-size="13" lengthAdjust="spacingAndGlyphs" textLength="79" x="62" y="65.0566">methode1(p)</text><polygon fill="#A80036" points="249,95.1094,259,99.1094,249,103.1094,253,99.1094" style="stroke: #A80036; stroke-width: 1.0;"/><line style="stroke: #A80036; stroke-width: 1.0;" x1="163" x2="255" y1="99.1094" y2="99.1094"/><text fill="#000000" font-family="sans-serif" font-size="13" lengthAdjust="spacingAndGlyphs" textLength="71" x="170" y="94.3672">methode2()</text><polygon fill="#A80036" points="174,109.1094,164,113.1094,174,117.1094,170,113.1094" style="stroke: #A80036; stroke-width: 1.0;"/><line style="stroke: #A80036; stroke-width: 1.0; stroke-dasharray: 2.0,2.0;" x1="168" x2="265" y1="113.1094" y2="113.1094"/><polygon fill="#A80036" points="249,138.4199,259,142.4199,249,146.4199,253,142.4199" style="stroke: #A80036; stroke-width: 1.0;"/><line style="stroke: #A80036; stroke-width: 1.0;" x1="163" x2="255" y1="142.4199" y2="142.4199"/><text fill="#000000" font-family="sans-serif" font-size="13" lengthAdjust="spacingAndGlyphs" textLength="79" x="170" y="137.6777">methode3(p)</text><polygon fill="#A80036" points="174,152.4199,164,156.4199,174,160.4199,170,156.4199" style="stroke: #A80036; stroke-width: 1.0;"/><line style="stroke: #A80036; stroke-width: 1.0; stroke-dasharray: 2.0,2.0;" x1="168" x2="265" y1="156.4199" y2="156.4199"/><polygon fill="#A80036" points="61,166.4199,51,170.4199,61,174.4199,57,170.4199" style="stroke: #A80036; stroke-width: 1.0;"/><line style="stroke: #A80036; stroke-width: 1.0; stroke-dasharray: 2.0,2.0;" x1="55" x2="157" y1="170.4199" y2="170.4199"/><!--
@startuml

participant ":Appelant" as a
participant "b:B" as b
participant "c:C" as c
activate a
a -> b : methode1(p)
activate b
b->c:methode2()
activate c
c - -> b
deactivate c

b->c:methode3(p)
activate c
c - -> b
deactivate c

b- ->a
deactivate b

deactivate a

@enduml

PlantUML version 1.2018.13(Mon Nov 26 18:11:51 CET 2018)
(APACHE source distribution)
Java Runtime: Java(TM) SE Runtime Environment
JVM: Java HotSpot(TM) 64-Bit Server VM
Java Version: 1.8.0_152-b16
Operating System: Mac OS X
OS Version: 10.14.4
Default Encoding: UTF-8
Language: fr
Country: FR
--></g></svg>