<?xml version="1.0" encoding="UTF-8" standalone="yes"?><svg xmlns="http://www.w3.org/2000/svg" xmlns:xlink="http://www.w3.org/1999/xlink" height="300px" style="width:251px;height:300px;" version="1.1" viewBox="0 0 251 300" width="251px"><defs><filter height="300%" id="f1" width="300%" x="-1" y="-1"><feGaussianBlur result="blurOut" stdDeviation="2.0"/><feColorMatrix in="blurOut" result="blurOut2" type="matrix" values="0 0 0 0 0 0 0 0 0 0 0 0 0 0 0 0 0 0 .4 0"/><feOffset dx="4.0" dy="4.0" in="blurOut2" result="blurOut3"/><feBlend in="SourceGraphic" in2="blurOut3" mode="normal"/></filter></defs><g><polygon fill="#FFFFFF" filter="url(#f1)" points="22,24,42,24,49,46.4883,244,46.4883,244,293,22,293,22,24" style="stroke: #000000; stroke-width: 2.0;"/><line style="stroke: #000000; stroke-width: 2.0;" x1="22" x2="49" y1="46.4883" y2="46.4883"/><text fill="#000000" font-family="sans-serif" font-size="14" font-weight="bold" lengthAdjust="spacingAndGlyphs" textLength="14" x="26" y="39.5352">m</text><rect fill="#FEFECE" filter="url(#f1)" height="117.7305" style="stroke: #A80036; stroke-width: 1.5;" width="190" x="38" y="159"/><ellipse cx="107.75" cy="175" fill="#ADD1B2" rx="11" ry="11" style="stroke: #A80036; stroke-width: 1.0;"/><path d="M110.7231,180.6431 Q110.1421,180.9419 109.5029,181.0913 Q108.8638,181.2407 108.1582,181.2407 Q105.6514,181.2407 104.3315,179.5889 Q103.0117,177.937 103.0117,174.8159 Q103.0117,171.6865 104.3315,170.0347 Q105.6514,168.3828 108.1582,168.3828 Q108.8638,168.3828 109.5112,168.5322 Q110.1587,168.6816 110.7231,168.9805 L110.7231,171.7031 Q110.0923,171.1221 109.4988,170.8523 Q108.9053,170.5825 108.2744,170.5825 Q106.9297,170.5825 106.2449,171.6492 Q105.5601,172.7158 105.5601,174.8159 Q105.5601,176.9077 106.2449,177.9744 Q106.9297,179.041 108.2744,179.041 Q108.9053,179.041 109.4988,178.7712 Q110.0923,178.5015 110.7231,177.9204 Z "/><text fill="#000000" font-family="sans-serif" font-size="12" lengthAdjust="spacingAndGlyphs" textLength="42" x="128.25" y="179.5352">Facture</text><line style="stroke: #A80036; stroke-width: 1.5;" x1="39" x2="227" y1="191" y2="191"/><rect fill="none" height="6" style="stroke: #C82930; stroke-width: 1.0;" width="6" x="46" y="199.9775"/><text fill="#000000" font-family="sans-serif" font-size="11" lengthAdjust="spacingAndGlyphs" text-decoration="underline" textLength="116" x="58" y="205.6348">long serialVersionUID</text><line style="stroke: #000000; stroke-width: 1.0;" x1="58" x2="174" y1="207.6348" y2="207.6348"/><rect fill="none" height="6" style="stroke: #C82930; stroke-width: 1.0;" width="6" x="46" y="212.9326"/><text fill="#000000" font-family="sans-serif" font-size="11" lengthAdjust="spacingAndGlyphs" textLength="54" x="58" y="218.5898">String lieu</text><rect fill="none" height="6" style="stroke: #C82930; stroke-width: 1.0;" width="6" x="46" y="225.8877"/><text fill="#000000" font-family="sans-serif" font-size="11" lengthAdjust="spacingAndGlyphs" textLength="50" x="58" y="231.5449">Date date</text><rect fill="none" height="6" style="stroke: #C82930; stroke-width: 1.0;" width="6" x="46" y="238.8428"/><text fill="#000000" font-family="sans-serif" font-size="11" lengthAdjust="spacingAndGlyphs" textLength="82" x="58" y="244.5">int numJournee</text><rect fill="none" height="6" style="stroke: #C82930; stroke-width: 1.0;" width="6" x="46" y="251.7979"/><text fill="#000000" font-family="sans-serif" font-size="11" lengthAdjust="spacingAndGlyphs" textLength="63" x="58" y="257.4551">Client client</text><rect fill="none" height="6" style="stroke: #C82930; stroke-width: 1.0;" width="6" x="46" y="264.7529"/><text fill="#000000" font-family="sans-serif" font-size="11" lengthAdjust="spacingAndGlyphs" textLength="164" x="58" y="270.4102">ArrayList&lt;BonCommande&gt; bc</text><rect fill="#FEFECE" filter="url(#f1)" height="40" style="stroke: #A80036; stroke-width: 1.5;" width="98" x="84" y="59"/><ellipse cx="99" cy="75" fill="#B4A7E5" rx="11" ry="11" style="stroke: #A80036; stroke-width: 1.0;"/><path d="M94.9277,70.7651 L94.9277,68.6069 L102.3071,68.6069 L102.3071,70.7651 L99.8418,70.7651 L99.8418,78.8418 L102.3071,78.8418 L102.3071,81 L94.9277,81 L94.9277,78.8418 L97.3931,78.8418 L97.3931,70.7651 Z "/><text fill="#000000" font-family="sans-serif" font-size="12" font-style="italic" lengthAdjust="spacingAndGlyphs" textLength="66" x="113" y="79.5352">Serializable</text><line style="stroke: #A80036; stroke-width: 1.5;" x1="85" x2="181" y1="91" y2="91"/><path d="M133,119.409 C133,131.771 133,145.632 133,158.967 " fill="none" style="stroke: #A80036; stroke-width: 1.0; stroke-dasharray: 7.0,7.0;"/><polygon fill="none" points="126,119.212,133,99.212,140,119.212,126,119.212" style="stroke: #A80036; stroke-width: 1.0;"/></g></svg>