<?xml version="1.0" encoding="UTF-8" standalone="no"?><svg xmlns="http://www.w3.org/2000/svg" xmlns:xlink="http://www.w3.org/1999/xlink" contentScriptType="application/ecmascript" contentStyleType="text/css" height="281px" preserveAspectRatio="none" style="width:242px;height:281px;" version="1.1" viewBox="0 0 242 281" width="242px" zoomAndPan="magnify"><defs><filter height="300%" id="f1w7e6v0f57ide" width="300%" x="-1" y="-1"><feGaussianBlur result="blurOut" stdDeviation="2.0"/><feColorMatrix in="blurOut" result="blurOut2" type="matrix" values="0 0 0 0 0 0 0 0 0 0 0 0 0 0 0 0 0 0 .4 0"/><feOffset dx="4.0" dy="4.0" in="blurOut2" result="blurOut3"/><feBlend in="SourceGraphic" in2="blurOut3" mode="normal"/></filter></defs><g><!--cluster m--><polygon fill="#FFFFFF" filter="url(#f1w7e6v0f57ide)" points="14,16,34,16,41,38.4883,220,38.4883,220,269,14,269,14,16" style="stroke: #000000; stroke-width: 1.5;"/><line style="stroke: #000000; stroke-width: 1.5;" x1="14" x2="41" y1="38.4883" y2="38.4883"/><text fill="#000000" font-family="sans-serif" font-size="14" font-weight="bold" lengthAdjust="spacingAndGlyphs" textLength="14" x="18" y="31.5352">m</text><!--class Facture--><rect fill="#FEFECE" filter="url(#f1w7e6v0f57ide)" height="117.7305" id="Facture" style="stroke: #A80036; stroke-width: 1.5;" width="190" x="22" y="143"/><ellipse cx="91.75" cy="159" fill="#ADD1B2" rx="11" ry="11" style="stroke: #A80036; stroke-width: 1.0;"/><path d="M94.2231,165.1431 Q93.6421,165.4419 93.0029,165.5913 Q92.3638,165.7407 91.6582,165.7407 Q89.1514,165.7407 87.8315,164.0889 Q86.5117,162.437 86.5117,159.3159 Q86.5117,156.1865 87.8315,154.5347 Q89.1514,152.8828 91.6582,152.8828 Q92.3638,152.8828 93.0112,153.0322 Q93.6587,153.1816 94.2231,153.4805 L94.2231,156.2031 Q93.5923,155.6221 92.9988,155.3523 Q92.4053,155.0825 91.7744,155.0825 Q90.4297,155.0825 89.7449,156.1492 Q89.0601,157.2158 89.0601,159.3159 Q89.0601,161.4077 89.7449,162.4744 Q90.4297,163.541 91.7744,163.541 Q92.4053,163.541 92.9988,163.2712 Q93.5923,163.0015 94.2231,162.4204 Z "/><text fill="#000000" font-family="sans-serif" font-size="12" lengthAdjust="spacingAndGlyphs" textLength="42" x="112.25" y="163.5352">Facture</text><line style="stroke: #A80036; stroke-width: 1.5;" x1="23" x2="211" y1="175" y2="175"/><rect fill="none" height="6" style="stroke: #C82930; stroke-width: 1.0;" width="6" x="30" y="183.9775"/><text fill="#000000" font-family="sans-serif" font-size="11" lengthAdjust="spacingAndGlyphs" text-decoration="underline" textLength="116" x="42" y="189.6348">long serialVersionUID</text><line style="stroke: #000000; stroke-width: 1.0;" x1="42" x2="158" y1="191.6348" y2="191.6348"/><rect fill="none" height="6" style="stroke: #C82930; stroke-width: 1.0;" width="6" x="30" y="196.9326"/><text fill="#000000" font-family="sans-serif" font-size="11" lengthAdjust="spacingAndGlyphs" textLength="54" x="42" y="202.5898">String lieu</text><rect fill="none" height="6" style="stroke: #C82930; stroke-width: 1.0;" width="6" x="30" y="209.8877"/><text fill="#000000" font-family="sans-serif" font-size="11" lengthAdjust="spacingAndGlyphs" textLength="50" x="42" y="215.5449">Date date</text><rect fill="none" height="6" style="stroke: #C82930; stroke-width: 1.0;" width="6" x="30" y="222.8428"/><text fill="#000000" font-family="sans-serif" font-size="11" lengthAdjust="spacingAndGlyphs" textLength="82" x="42" y="228.5">int numJournee</text><rect fill="none" height="6" style="stroke: #C82930; stroke-width: 1.0;" width="6" x="30" y="235.7979"/><text fill="#000000" font-family="sans-serif" font-size="11" lengthAdjust="spacingAndGlyphs" textLength="63" x="42" y="241.4551">Client client</text><rect fill="none" height="6" style="stroke: #C82930; stroke-width: 1.0;" width="6" x="30" y="248.7529"/><text fill="#000000" font-family="sans-serif" font-size="11" lengthAdjust="spacingAndGlyphs" textLength="164" x="42" y="254.4102">ArrayList&lt;BonCommande&gt; bc</text><!--class Serializable--><rect fill="#FEFECE" filter="url(#f1w7e6v0f57ide)" height="40" id="Serializable" style="stroke: #A80036; stroke-width: 1.5;" width="98" x="68" y="43"/><ellipse cx="83" cy="59" fill="#B4A7E5" rx="11" ry="11" style="stroke: #A80036; stroke-width: 1.0;"/><path d="M79.4277,55.2651 L79.4277,53.1069 L86.8071,53.1069 L86.8071,55.2651 L84.3418,55.2651 L84.3418,63.3418 L86.8071,63.3418 L86.8071,65.5 L79.4277,65.5 L79.4277,63.3418 L81.8931,63.3418 L81.8931,55.2651 Z "/><text fill="#000000" font-family="sans-serif" font-size="12" font-style="italic" lengthAdjust="spacingAndGlyphs" textLength="66" x="97" y="63.5352">Serializable</text><line style="stroke: #A80036; stroke-width: 1.5;" x1="69" x2="165" y1="75" y2="75"/><!--link Serializable to Facture--><path d="M117,103.4087 C117,115.7713 117,129.6323 117,142.9673 " fill="none" id="Serializable-Facture" style="stroke: #A80036; stroke-width: 1.0; stroke-dasharray: 7.0,7.0;"/><polygon fill="none" points="110.0001,103.2118,117,83.2118,124.0001,103.2118,110.0001,103.2118" style="stroke: #A80036; stroke-width: 1.0;"/><!--
@startuml
hide methods
package m {
class Facture {
	-{static} long serialVersionUID
	-String lieu
	-Date date
	-int numJournee
	-Client client
	-ArrayList<BonCommande> bc
}
interface Serializable {
}
Serializable <|.. Facture
}
@enduml

PlantUML version 1.2018.13(Mon Nov 26 18:11:51 CET 2018)
(APACHE source distribution)
Java Runtime: Java(TM) SE Runtime Environment
JVM: Java HotSpot(TM) 64-Bit Server VM
Java Version: 1.8.0_152-b16
Operating System: Mac OS X
OS Version: 10.14.4
Default Encoding: UTF-8
Language: fr
Country: FR
--></g></svg>