<?xml version="1.0" encoding="UTF-8" standalone="no"?><svg xmlns="http://www.w3.org/2000/svg" xmlns:xlink="http://www.w3.org/1999/xlink" contentScriptType="application/ecmascript" contentStyleType="text/css" height="301px" preserveAspectRatio="none" style="width:308px;height:301px;" version="1.1" viewBox="0 0 308 301" width="308px" zoomAndPan="magnify"><defs><filter height="300%" id="fzo5t0vty93ty" width="300%" x="-1" y="-1"><feGaussianBlur result="blurOut" stdDeviation="2.0"/><feColorMatrix in="blurOut" result="blurOut2" type="matrix" values="0 0 0 0 0 0 0 0 0 0 0 0 0 0 0 0 0 0 .4 0"/><feOffset dx="4.0" dy="4.0" in="blurOut2" result="blurOut3"/><feBlend in="SourceGraphic" in2="blurOut3" mode="normal"/></filter></defs><g><!--class BonCommande--><rect fill="#FEFECE" filter="url(#fzo5t0vty93ty)" height="104.7754" id="BonCommande" style="stroke: #A80036; stroke-width: 1.5;" width="128" x="6" y="186"/><ellipse cx="25.05" cy="202" fill="#ADD1B2" rx="11" ry="11" style="stroke: #A80036; stroke-width: 1.0;"/><path d="M27.5231,208.1431 Q26.9421,208.4419 26.3029,208.5913 Q25.6638,208.7407 24.9582,208.7407 Q22.4514,208.7407 21.1315,207.0889 Q19.8117,205.437 19.8117,202.3159 Q19.8117,199.1865 21.1315,197.5347 Q22.4514,195.8828 24.9582,195.8828 Q25.6638,195.8828 26.3112,196.0322 Q26.9587,196.1816 27.5231,196.4805 L27.5231,199.2031 Q26.8923,198.6221 26.2988,198.3523 Q25.7053,198.0825 25.0744,198.0825 Q23.7297,198.0825 23.0449,199.1492 Q22.3601,200.2158 22.3601,202.3159 Q22.3601,204.4077 23.0449,205.4744 Q23.7297,206.541 25.0744,206.541 Q25.7053,206.541 26.2988,206.2712 Q26.8923,206.0015 27.5231,205.4204 Z "/><text fill="#000000" font-family="sans-serif" font-size="12" lengthAdjust="spacingAndGlyphs" textLength="87" x="39.95" y="206.5352">BonCommande</text><line style="stroke: #A80036; stroke-width: 1.5;" x1="7" x2="133" y1="218" y2="218"/><text fill="#000000" font-family="sans-serif" font-size="11" lengthAdjust="spacingAndGlyphs" text-decoration="underline" textLength="116" x="12" y="232.6348">long serialVersionUID</text><line style="stroke: #000000; stroke-width: 1.0;" x1="12" x2="128" y1="234.6348" y2="234.6348"/><text fill="#000000" font-family="sans-serif" font-size="11" lengthAdjust="spacingAndGlyphs" textLength="42" x="12" y="245.5898">long ref</text><text fill="#000000" font-family="sans-serif" font-size="11" lengthAdjust="spacingAndGlyphs" textLength="63" x="12" y="258.5449">String motif</text><text fill="#000000" font-family="sans-serif" font-size="11" lengthAdjust="spacingAndGlyphs" textLength="55" x="12" y="271.5">String obs</text><text fill="#000000" font-family="sans-serif" font-size="11" lengthAdjust="spacingAndGlyphs" textLength="85" x="12" y="284.4551">double montant</text><!--class Facture--><rect fill="#FEFECE" filter="url(#fzo5t0vty93ty)" height="117.7305" id="Facture" style="stroke: #A80036; stroke-width: 1.5;" width="176" x="63" y="8"/><ellipse cx="125.75" cy="24" fill="#ADD1B2" rx="11" ry="11" style="stroke: #A80036; stroke-width: 1.0;"/><path d="M128.2231,30.1431 Q127.6421,30.4419 127.0029,30.5913 Q126.3638,30.7407 125.6582,30.7407 Q123.1514,30.7407 121.8315,29.0889 Q120.5117,27.437 120.5117,24.3159 Q120.5117,21.1865 121.8315,19.5347 Q123.1514,17.8828 125.6582,17.8828 Q126.3638,17.8828 127.0112,18.0322 Q127.6587,18.1816 128.2231,18.4805 L128.2231,21.2031 Q127.5923,20.6221 126.9988,20.3523 Q126.4053,20.0825 125.7744,20.0825 Q124.4297,20.0825 123.7449,21.1492 Q123.0601,22.2158 123.0601,24.3159 Q123.0601,26.4077 123.7449,27.4744 Q124.4297,28.541 125.7744,28.541 Q126.4053,28.541 126.9988,28.2712 Q127.5923,28.0015 128.2231,27.4204 Z "/><text fill="#000000" font-family="sans-serif" font-size="12" lengthAdjust="spacingAndGlyphs" textLength="42" x="146.25" y="28.5352">Facture</text><line style="stroke: #A80036; stroke-width: 1.5;" x1="64" x2="238" y1="40" y2="40"/><text fill="#000000" font-family="sans-serif" font-size="11" lengthAdjust="spacingAndGlyphs" text-decoration="underline" textLength="116" x="69" y="54.6348">long serialVersionUID</text><line style="stroke: #000000; stroke-width: 1.0;" x1="69" x2="185" y1="56.6348" y2="56.6348"/><text fill="#000000" font-family="sans-serif" font-size="11" lengthAdjust="spacingAndGlyphs" textLength="54" x="69" y="67.5898">String lieu</text><text fill="#000000" font-family="sans-serif" font-size="11" lengthAdjust="spacingAndGlyphs" textLength="50" x="69" y="80.5449">Date date</text><text fill="#000000" font-family="sans-serif" font-size="11" lengthAdjust="spacingAndGlyphs" textLength="82" x="69" y="93.5">int numJournee</text><text fill="#000000" font-family="sans-serif" font-size="11" lengthAdjust="spacingAndGlyphs" textLength="63" x="69" y="106.4551">Client client</text><text fill="#000000" font-family="sans-serif" font-size="11" lengthAdjust="spacingAndGlyphs" textLength="164" x="69" y="119.4102">ArrayList&lt;BonCommande&gt; bc</text><!--class Client--><rect fill="#FEFECE" filter="url(#fzo5t0vty93ty)" height="104.7754" id="Client" style="stroke: #A80036; stroke-width: 1.5;" width="128" x="169" y="186"/><ellipse cx="212.8" cy="202" fill="#ADD1B2" rx="11" ry="11" style="stroke: #A80036; stroke-width: 1.0;"/><path d="M215.2731,208.1431 Q214.6921,208.4419 214.0529,208.5913 Q213.4138,208.7407 212.7082,208.7407 Q210.2014,208.7407 208.8815,207.0889 Q207.5617,205.437 207.5617,202.3159 Q207.5617,199.1865 208.8815,197.5347 Q210.2014,195.8828 212.7082,195.8828 Q213.4138,195.8828 214.0612,196.0322 Q214.7087,196.1816 215.2731,196.4805 L215.2731,199.2031 Q214.6423,198.6221 214.0488,198.3523 Q213.4553,198.0825 212.8244,198.0825 Q211.4797,198.0825 210.7949,199.1492 Q210.1101,200.2158 210.1101,202.3159 Q210.1101,204.4077 210.7949,205.4744 Q211.4797,206.541 212.8244,206.541 Q213.4553,206.541 214.0488,206.2712 Q214.6423,206.0015 215.2731,205.4204 Z "/><text fill="#000000" font-family="sans-serif" font-size="12" lengthAdjust="spacingAndGlyphs" textLength="32" x="233.2" y="206.5352">Client</text><line style="stroke: #A80036; stroke-width: 1.5;" x1="170" x2="296" y1="218" y2="218"/><text fill="#000000" font-family="sans-serif" font-size="11" lengthAdjust="spacingAndGlyphs" text-decoration="underline" textLength="116" x="175" y="232.6348">long serialVersionUID</text><line style="stroke: #000000; stroke-width: 1.0;" x1="175" x2="291" y1="234.6348" y2="234.6348"/><text fill="#000000" font-family="sans-serif" font-size="11" lengthAdjust="spacingAndGlyphs" textLength="59" x="175" y="245.5898">String nom</text><text fill="#000000" font-family="sans-serif" font-size="11" lengthAdjust="spacingAndGlyphs" textLength="77" x="175" y="258.5449">String adresse</text><text fill="#000000" font-family="sans-serif" font-size="11" lengthAdjust="spacingAndGlyphs" textLength="50" x="175" y="271.5">int postal</text><text fill="#000000" font-family="sans-serif" font-size="11" lengthAdjust="spacingAndGlyphs" textLength="56" x="175" y="284.4551">String ville</text><!--link Facture to BonCommande--><path d="M123.1244,126.0206 C114.7166,143.8223 105.5023,163.3316 97.1429,181.0308 " fill="none" id="Facture-BonCommande" style="stroke: #A80036; stroke-width: 1.0;"/><polygon fill="#A80036" points="94.8092,185.972,102.2697,179.5423,96.9445,181.4509,95.0359,176.1258,94.8092,185.972" style="stroke: #A80036; stroke-width: 1.0;"/><text fill="#000000" font-family="sans-serif" font-size="13" lengthAdjust="spacingAndGlyphs" textLength="25" x="71.5402" y="175.1366">bc *</text><!--link Facture to Client--><path d="M179.2197,126.0206 C187.7313,143.8223 197.0594,163.3316 205.522,181.0308 " fill="none" id="Facture-Client" style="stroke: #A80036; stroke-width: 1.0;"/><polygon fill="#A80036" points="207.8846,185.972,207.6109,176.1269,205.7277,181.4611,200.3936,179.5779,207.8846,185.972" style="stroke: #A80036; stroke-width: 1.0;"/><text fill="#000000" font-family="sans-serif" font-size="13" lengthAdjust="spacingAndGlyphs" textLength="63" x="136.9231" y="175.1366">0..1 client</text><!--
@startuml
hide methods
  class BonCommande {
  	{static} long serialVersionUID
  	long ref
  	String motif
  	String obs
  	double montant
  }

  class Facture {
  	{static} long serialVersionUID
  	String lieu
  	Date date
  	int numJournee
    Client client
  	ArrayList<BonCommande> bc
  }

  class Client {
  	{static} long serialVersionUID
  	String nom
  	String adresse
  	int postal
  	String ville
  }

  Facture - -> "bc *" BonCommande
  Facture - -> "0..1 client" Client
@enduml

PlantUML version 1.2018.13(Mon Nov 26 18:11:51 CET 2018)
(APACHE source distribution)
Java Runtime: Java(TM) SE Runtime Environment
JVM: Java HotSpot(TM) 64-Bit Server VM
Java Version: 1.8.0_152-b16
Operating System: Mac OS X
OS Version: 10.14.4
Default Encoding: UTF-8
Language: fr
Country: FR
--></g></svg>