<?xml version="1.0" encoding="UTF-8" standalone="yes"?><svg xmlns="http://www.w3.org/2000/svg" xmlns:xlink="http://www.w3.org/1999/xlink" height="299px" style="width:306px;height:299px;" version="1.1" viewBox="0 0 306 299" width="306px"><defs><filter height="300%" id="f1" width="300%" x="-1" y="-1"><feGaussianBlur result="blurOut" stdDeviation="2.0"/><feColorMatrix in="blurOut" result="blurOut2" type="matrix" values="0 0 0 0 0 0 0 0 0 0 0 0 0 0 0 0 0 0 .4 0"/><feOffset dx="4.0" dy="4.0" in="blurOut2" result="blurOut3"/><feBlend in="SourceGraphic" in2="blurOut3" mode="normal"/></filter></defs><g><rect fill="#FEFECE" filter="url(#f1)" height="104.7754" style="stroke: #A80036; stroke-width: 1.5;" width="128" x="6" y="186"/><ellipse cx="25.05" cy="202" fill="#ADD1B2" rx="11" ry="11" style="stroke: #A80036; stroke-width: 1.0;"/><path d="M28.0231,207.6431 Q27.4421,207.9419 26.8029,208.0913 Q26.1638,208.2407 25.4582,208.2407 Q22.9514,208.2407 21.6315,206.5889 Q20.3117,204.937 20.3117,201.8159 Q20.3117,198.6865 21.6315,197.0347 Q22.9514,195.3828 25.4582,195.3828 Q26.1638,195.3828 26.8112,195.5322 Q27.4587,195.6816 28.0231,195.9805 L28.0231,198.7031 Q27.3923,198.1221 26.7988,197.8523 Q26.2053,197.5825 25.5744,197.5825 Q24.2297,197.5825 23.5449,198.6492 Q22.8601,199.7158 22.8601,201.8159 Q22.8601,203.9077 23.5449,204.9744 Q24.2297,206.041 25.5744,206.041 Q26.2053,206.041 26.7988,205.7712 Q27.3923,205.5015 28.0231,204.9204 Z "/><text fill="#000000" font-family="sans-serif" font-size="12" lengthAdjust="spacingAndGlyphs" textLength="87" x="39.95" y="206.5352">BonCommande</text><line style="stroke: #A80036; stroke-width: 1.5;" x1="7" x2="133" y1="218" y2="218"/><text fill="#000000" font-family="sans-serif" font-size="11" lengthAdjust="spacingAndGlyphs" text-decoration="underline" textLength="116" x="12" y="232.6348">long serialVersionUID</text><line style="stroke: #000000; stroke-width: 1.0;" x1="12" x2="128" y1="234.6348" y2="234.6348"/><text fill="#000000" font-family="sans-serif" font-size="11" lengthAdjust="spacingAndGlyphs" textLength="42" x="12" y="245.5898">long ref</text><text fill="#000000" font-family="sans-serif" font-size="11" lengthAdjust="spacingAndGlyphs" textLength="63" x="12" y="258.5449">String motif</text><text fill="#000000" font-family="sans-serif" font-size="11" lengthAdjust="spacingAndGlyphs" textLength="55" x="12" y="271.5">String obs</text><text fill="#000000" font-family="sans-serif" font-size="11" lengthAdjust="spacingAndGlyphs" textLength="85" x="12" y="284.4551">double montant</text><rect fill="#FEFECE" filter="url(#f1)" height="117.7305" style="stroke: #A80036; stroke-width: 1.5;" width="176" x="63" y="8"/><ellipse cx="125.75" cy="24" fill="#ADD1B2" rx="11" ry="11" style="stroke: #A80036; stroke-width: 1.0;"/><path d="M128.7231,29.6431 Q128.1421,29.9419 127.5029,30.0913 Q126.8638,30.2407 126.1582,30.2407 Q123.6514,30.2407 122.3315,28.5889 Q121.0117,26.937 121.0117,23.8159 Q121.0117,20.6865 122.3315,19.0347 Q123.6514,17.3828 126.1582,17.3828 Q126.8638,17.3828 127.5112,17.5322 Q128.1587,17.6816 128.7231,17.9805 L128.7231,20.7031 Q128.0923,20.1221 127.4988,19.8523 Q126.9053,19.5825 126.2744,19.5825 Q124.9297,19.5825 124.2449,20.6492 Q123.5601,21.7158 123.5601,23.8159 Q123.5601,25.9077 124.2449,26.9744 Q124.9297,28.041 126.2744,28.041 Q126.9053,28.041 127.4988,27.7712 Q128.0923,27.5015 128.7231,26.9204 Z "/><text fill="#000000" font-family="sans-serif" font-size="12" lengthAdjust="spacingAndGlyphs" textLength="42" x="146.25" y="28.5352">Facture</text><line style="stroke: #A80036; stroke-width: 1.5;" x1="64" x2="238" y1="40" y2="40"/><text fill="#000000" font-family="sans-serif" font-size="11" lengthAdjust="spacingAndGlyphs" text-decoration="underline" textLength="116" x="69" y="54.6348">long serialVersionUID</text><line style="stroke: #000000; stroke-width: 1.0;" x1="69" x2="185" y1="56.6348" y2="56.6348"/><text fill="#000000" font-family="sans-serif" font-size="11" lengthAdjust="spacingAndGlyphs" textLength="54" x="69" y="67.5898">String lieu</text><text fill="#000000" font-family="sans-serif" font-size="11" lengthAdjust="spacingAndGlyphs" textLength="50" x="69" y="80.5449">Date date</text><text fill="#000000" font-family="sans-serif" font-size="11" lengthAdjust="spacingAndGlyphs" textLength="82" x="69" y="93.5">int numJournee</text><text fill="#000000" font-family="sans-serif" font-size="11" lengthAdjust="spacingAndGlyphs" textLength="63" x="72" y="106.4551">Client client</text><text fill="#000000" font-family="sans-serif" font-size="11" lengthAdjust="spacingAndGlyphs" textLength="164" x="69" y="119.4102">ArrayList&lt;BonCommande&gt; bc</text><rect fill="#FEFECE" filter="url(#f1)" height="104.7754" style="stroke: #A80036; stroke-width: 1.5;" width="128" x="169" y="186"/><ellipse cx="212.8" cy="202" fill="#ADD1B2" rx="11" ry="11" style="stroke: #A80036; stroke-width: 1.0;"/><path d="M215.7731,207.6431 Q215.1921,207.9419 214.5529,208.0913 Q213.9138,208.2407 213.2082,208.2407 Q210.7014,208.2407 209.3815,206.5889 Q208.0617,204.937 208.0617,201.8159 Q208.0617,198.6865 209.3815,197.0347 Q210.7014,195.3828 213.2082,195.3828 Q213.9138,195.3828 214.5612,195.5322 Q215.2087,195.6816 215.7731,195.9805 L215.7731,198.7031 Q215.1423,198.1221 214.5488,197.8523 Q213.9553,197.5825 213.3244,197.5825 Q211.9797,197.5825 211.2949,198.6492 Q210.6101,199.7158 210.6101,201.8159 Q210.6101,203.9077 211.2949,204.9744 Q211.9797,206.041 213.3244,206.041 Q213.9553,206.041 214.5488,205.7712 Q215.1423,205.5015 215.7731,204.9204 Z "/><text fill="#000000" font-family="sans-serif" font-size="12" lengthAdjust="spacingAndGlyphs" textLength="32" x="233.2" y="206.5352">Client</text><line style="stroke: #A80036; stroke-width: 1.5;" x1="170" x2="296" y1="218" y2="218"/><text fill="#000000" font-family="sans-serif" font-size="11" lengthAdjust="spacingAndGlyphs" text-decoration="underline" textLength="116" x="175" y="232.6348">long serialVersionUID</text><line style="stroke: #000000; stroke-width: 1.0;" x1="175" x2="291" y1="234.6348" y2="234.6348"/><text fill="#000000" font-family="sans-serif" font-size="11" lengthAdjust="spacingAndGlyphs" textLength="59" x="175" y="245.5898">String nom</text><text fill="#000000" font-family="sans-serif" font-size="11" lengthAdjust="spacingAndGlyphs" textLength="77" x="175" y="258.5449">String adresse</text><text fill="#000000" font-family="sans-serif" font-size="11" lengthAdjust="spacingAndGlyphs" textLength="50" x="175" y="271.5">int postal</text><text fill="#000000" font-family="sans-serif" font-size="11" lengthAdjust="spacingAndGlyphs" textLength="56" x="175" y="284.4551">String ville</text><path d="M123.124,126.021 C114.717,143.822 105.5023,163.332 97.1429,181.031 " fill="none" style="stroke: #A80036; stroke-width: 1.0;"/><polygon fill="#A80036" points="94.8092,185.972,102.2702,179.5429,96.9449,181.4511,95.0367,176.1258,94.8092,185.972" style="stroke: #A80036; stroke-width: 1.0;"/><text fill="#000000" font-family="sans-serif" font-size="13" lengthAdjust="spacingAndGlyphs" textLength="25" x="71.5402" y="175.1366">bc *</text><path d="M179.22,126.021 C187.731,143.822 197.059,163.332 205.522,181.031 " fill="none" style="stroke: #A80036; stroke-width: 1.0;"/><polygon fill="#A80036" points="207.885,185.972,207.6113,176.1269,205.7281,181.4611,200.3939,179.5779,207.885,185.972" style="stroke: #A80036; stroke-width: 1.0;"/><text fill="#000000" font-family="sans-serif" font-size="13" lengthAdjust="spacingAndGlyphs" textLength="63" x="136.9235" y="175.1366">0..1 client</text></g></svg>