<?xml version="1.0" encoding="UTF-8" standalone="yes"?><svg xmlns="http://www.w3.org/2000/svg" xmlns:xlink="http://www.w3.org/1999/xlink" height="319px" style="width:378px;height:319px;" version="1.1" viewBox="0 0 378 319" width="378px"><defs><filter height="300%" id="f1" width="300%" x="-1" y="-1"><feGaussianBlur result="blurOut" stdDeviation="2.0"/><feColorMatrix in="blurOut" result="blurOut2" type="matrix" values="0 0 0 0 0 0 0 0 0 0 0 0 0 0 0 0 0 0 .4 0"/><feOffset dx="4.0" dy="4.0" in="blurOut2" result="blurOut3"/><feBlend in="SourceGraphic" in2="blurOut3" mode="normal"/></filter></defs><g><rect fill="#FEFECE" filter="url(#f1)" height="104.7754" style="stroke: #A80036; stroke-width: 1.5;" width="128" x="30" y="206"/><ellipse cx="49.05" cy="222" fill="#ADD1B2" rx="11" ry="11" style="stroke: #A80036; stroke-width: 1.0;"/><path d="M52.0231,227.6431 Q51.4421,227.9419 50.8029,228.0913 Q50.1638,228.2407 49.4582,228.2407 Q46.9514,228.2407 45.6315,226.5889 Q44.3117,224.937 44.3117,221.8159 Q44.3117,218.6865 45.6315,217.0347 Q46.9514,215.3828 49.4582,215.3828 Q50.1638,215.3828 50.8112,215.5322 Q51.4587,215.6816 52.0231,215.9805 L52.0231,218.7031 Q51.3923,218.1221 50.7988,217.8523 Q50.2053,217.5825 49.5744,217.5825 Q48.2297,217.5825 47.5449,218.6492 Q46.8601,219.7158 46.8601,221.8159 Q46.8601,223.9077 47.5449,224.9744 Q48.2297,226.041 49.5744,226.041 Q50.2053,226.041 50.7988,225.7712 Q51.3923,225.5015 52.0231,224.9204 Z "/><text fill="#000000" font-family="sans-serif" font-size="12" lengthAdjust="spacingAndGlyphs" textLength="87" x="63.95" y="226.5352">BonCommande</text><line style="stroke: #A80036; stroke-width: 1.5;" x1="31" x2="157" y1="238" y2="238"/><text fill="#000000" font-family="sans-serif" font-size="11" lengthAdjust="spacingAndGlyphs" text-decoration="underline" textLength="116" x="36" y="252.6348">long serialVersionUID</text><line style="stroke: #000000; stroke-width: 1.0;" x1="36" x2="152" y1="254.6348" y2="254.6348"/><text fill="#000000" font-family="sans-serif" font-size="11" lengthAdjust="spacingAndGlyphs" textLength="42" x="36" y="265.5898">long ref</text><text fill="#000000" font-family="sans-serif" font-size="11" lengthAdjust="spacingAndGlyphs" textLength="63" x="36" y="278.5449">String motif</text><text fill="#000000" font-family="sans-serif" font-size="11" lengthAdjust="spacingAndGlyphs" textLength="55" x="36" y="291.5">String obs</text><text fill="#000000" font-family="sans-serif" font-size="11" lengthAdjust="spacingAndGlyphs" textLength="85" x="36" y="304.4551">double montant</text><rect fill="#FEFECE" filter="url(#f1)" height="117.7305" style="stroke: #A80036; stroke-width: 1.5;" width="176" x="111" y="8"/><ellipse cx="173.75" cy="24" fill="#ADD1B2" rx="11" ry="11" style="stroke: #A80036; stroke-width: 1.0;"/><path d="M176.7231,29.6431 Q176.1421,29.9419 175.5029,30.0913 Q174.8638,30.2407 174.1582,30.2407 Q171.6514,30.2407 170.3315,28.5889 Q169.0117,26.937 169.0117,23.8159 Q169.0117,20.6865 170.3315,19.0347 Q171.6514,17.3828 174.1582,17.3828 Q174.8638,17.3828 175.5112,17.5322 Q176.1587,17.6816 176.7231,17.9805 L176.7231,20.7031 Q176.0923,20.1221 175.4988,19.8523 Q174.9053,19.5825 174.2744,19.5825 Q172.9297,19.5825 172.2449,20.6492 Q171.5601,21.7158 171.5601,23.8159 Q171.5601,25.9077 172.2449,26.9744 Q172.9297,28.041 174.2744,28.041 Q174.9053,28.041 175.4988,27.7712 Q176.0923,27.5015 176.7231,26.9204 Z "/><text fill="#000000" font-family="sans-serif" font-size="12" lengthAdjust="spacingAndGlyphs" textLength="42" x="194.25" y="28.5352">Facture</text><line style="stroke: #A80036; stroke-width: 1.5;" x1="112" x2="286" y1="40" y2="40"/><text fill="#000000" font-family="sans-serif" font-size="11" lengthAdjust="spacingAndGlyphs" text-decoration="underline" textLength="116" x="117" y="54.6348">long serialVersionUID</text><line style="stroke: #000000; stroke-width: 1.0;" x1="117" x2="233" y1="56.6348" y2="56.6348"/><text fill="#000000" font-family="sans-serif" font-size="11" lengthAdjust="spacingAndGlyphs" textLength="54" x="117" y="67.5898">String lieu</text><text fill="#000000" font-family="sans-serif" font-size="11" lengthAdjust="spacingAndGlyphs" textLength="50" x="117" y="80.5449">Date date</text><text fill="#000000" font-family="sans-serif" font-size="11" lengthAdjust="spacingAndGlyphs" textLength="82" x="117" y="93.5">int numJournee</text><text fill="#000000" font-family="sans-serif" font-size="11" lengthAdjust="spacingAndGlyphs" textLength="63" x="120" y="106.4551">Client client</text><text fill="#000000" font-family="sans-serif" font-size="11" lengthAdjust="spacingAndGlyphs" textLength="164" x="117" y="119.4102">ArrayList&lt;BonCommande&gt; bc</text><rect fill="#FEFECE" filter="url(#f1)" height="104.7754" style="stroke: #A80036; stroke-width: 1.5;" width="128" x="241" y="206"/><ellipse cx="284.8" cy="222" fill="#ADD1B2" rx="11" ry="11" style="stroke: #A80036; stroke-width: 1.0;"/><path d="M287.7731,227.6431 Q287.1921,227.9419 286.5529,228.0913 Q285.9138,228.2407 285.2082,228.2407 Q282.7014,228.2407 281.3815,226.5889 Q280.0617,224.937 280.0617,221.8159 Q280.0617,218.6865 281.3815,217.0347 Q282.7014,215.3828 285.2082,215.3828 Q285.9138,215.3828 286.5612,215.5322 Q287.2087,215.6816 287.7731,215.9805 L287.7731,218.7031 Q287.1423,218.1221 286.5488,217.8523 Q285.9553,217.5825 285.3244,217.5825 Q283.9797,217.5825 283.2949,218.6492 Q282.6101,219.7158 282.6101,221.8159 Q282.6101,223.9077 283.2949,224.9744 Q283.9797,226.041 285.3244,226.041 Q285.9553,226.041 286.5488,225.7712 Q287.1423,225.5015 287.7731,224.9204 Z "/><text fill="#000000" font-family="sans-serif" font-size="12" lengthAdjust="spacingAndGlyphs" textLength="32" x="305.2" y="226.5352">Client</text><line style="stroke: #A80036; stroke-width: 1.5;" x1="242" x2="368" y1="238" y2="238"/><text fill="#000000" font-family="sans-serif" font-size="11" lengthAdjust="spacingAndGlyphs" text-decoration="underline" textLength="116" x="247" y="252.6348">long serialVersionUID</text><line style="stroke: #000000; stroke-width: 1.0;" x1="247" x2="363" y1="254.6348" y2="254.6348"/><text fill="#000000" font-family="sans-serif" font-size="11" lengthAdjust="spacingAndGlyphs" textLength="59" x="247" y="265.5898">String nom</text><text fill="#000000" font-family="sans-serif" font-size="11" lengthAdjust="spacingAndGlyphs" textLength="77" x="247" y="278.5449">String adresse</text><text fill="#000000" font-family="sans-serif" font-size="11" lengthAdjust="spacingAndGlyphs" textLength="50" x="247" y="291.5">int postal</text><text fill="#000000" font-family="sans-serif" font-size="11" lengthAdjust="spacingAndGlyphs" textLength="56" x="247" y="304.4551">String ville</text><path d="M166,126 C153,150 138,178 125,202 " fill="none" style="stroke: #A80036; stroke-width: 1.0;"/><polygon fill="#A80036" points="123,206,130.6026,199.739,125.2361,201.5279,123.4472,196.1613,123,206" style="stroke: #A80036; stroke-width: 1.0;"/><text fill="#000000" font-family="sans-serif" font-size="13" lengthAdjust="spacingAndGlyphs" textLength="25" x="123.8172" y="195.2079">bc *</text><path d="M232,126 C245,150 260,178 274,202 " fill="none" style="stroke: #A80036; stroke-width: 1.0;"/><polygon fill="#A80036" points="276,206,275.5528,196.1613,273.7639,201.5279,268.3974,199.739,276,206" style="stroke: #A80036; stroke-width: 1.0;"/><text fill="#000000" font-family="sans-serif" font-size="13" lengthAdjust="spacingAndGlyphs" textLength="63" x="241.4648" y="195.1773">0..1 client</text></g></svg>