<?xml version="1.0" encoding="UTF-8" standalone="yes"?><svg xmlns="http://www.w3.org/2000/svg" xmlns:xlink="http://www.w3.org/1999/xlink" height="84px" style="width:300px;height:84px;" version="1.1" viewBox="0 0 300 84" width="300px"><defs><filter height="300%" id="f1" width="300%" x="-1" y="-1"><feGaussianBlur result="blurOut" stdDeviation="2.0"/><feColorMatrix in="blurOut" result="blurOut2" type="matrix" values="0 0 0 0 0 0 0 0 0 0 0 0 0 0 0 0 0 0 .4 0"/><feOffset dx="4.0" dy="4.0" in="blurOut2" result="blurOut3"/><feBlend in="SourceGraphic" in2="blurOut3" mode="normal"/></filter></defs><g><polygon fill="#FFFFFF" filter="url(#f1)" points="6,8,41,8,48,30.4883,55,30.4883,55,77.4648,6,77.4648,6,8" style="stroke: #000000; stroke-width: 2.0;"/><line style="stroke: #000000; stroke-width: 2.0;" x1="6" x2="48" y1="30.4883" y2="30.4883"/><text fill="#000000" font-family="sans-serif" font-size="14" font-weight="bold" lengthAdjust="spacingAndGlyphs" textLength="29" x="10" y="23.5352">IHM</text><polygon fill="#FFFFFF" filter="url(#f1)" points="90.5,8,178.5,8,185.5,30.4883,192.5,30.4883,192.5,77.4648,90.5,77.4648,90.5,8" style="stroke: #000000; stroke-width: 2.0;"/><line style="stroke: #000000; stroke-width: 2.0;" x1="90.5" x2="185.5" y1="30.4883" y2="30.4883"/><text fill="#000000" font-family="sans-serif" font-size="14" font-weight="bold" lengthAdjust="spacingAndGlyphs" textLength="82" x="94.5" y="23.5352">Application</text><polygon fill="#FFFFFF" filter="url(#f1)" points="227.5,8,279.5,8,286.5,30.4883,293.5,30.4883,293.5,77.4648,227.5,77.4648,227.5,8" style="stroke: #000000; stroke-width: 2.0;"/><line style="stroke: #000000; stroke-width: 2.0;" x1="227.5" x2="286.5" y1="30.4883" y2="30.4883"/><text fill="#000000" font-family="sans-serif" font-size="14" font-weight="bold" lengthAdjust="spacingAndGlyphs" textLength="46" x="231.5" y="23.5352">Metier</text><path d="M55.2148,60.4138 C65.1649,65.5601 75.1149,68.2114 85.065,68.3677 " fill="none" style="stroke: #A80036; stroke-width: 1.0; stroke-dasharray: 7.0,7.0;"/><polygon fill="#A80036" points="90.2682,68.222,81.1596,64.4758,85.2702,68.3621,81.3839,72.4727,90.2682,68.222" style="stroke: #A80036; stroke-width: 1.0;"/><path d="M90.2682,16.778 C80.1356,16.0514 70.003,17.9122 59.8704,22.3604 " fill="none" style="stroke: #A80036; stroke-width: 1.0; stroke-dasharray: 7.0,7.0;"/><polygon fill="#A80036" points="55.2148,24.5862,65.0599,24.3127,59.7257,22.4294,61.609,17.0952,55.2148,24.5862" style="stroke: #A80036; stroke-width: 1.0;"/><path d="M192.633,42.5 C202.491,42.5 212.349,42.5 222.207,42.5 " fill="none" style="stroke: #A80036; stroke-width: 1.0; stroke-dasharray: 7.0,7.0;"/><polygon fill="#A80036" points="227.362,42.5,218.362,38.5,222.362,42.5,218.362,46.5,227.362,42.5" style="stroke: #A80036; stroke-width: 1.0;"/></g></svg>