<?xml version="1.0" encoding="UTF-8" standalone="no"?><svg xmlns="http://www.w3.org/2000/svg" xmlns:xlink="http://www.w3.org/1999/xlink" contentScriptType="application/ecmascript" contentStyleType="text/css" height="72px" preserveAspectRatio="none" style="width:315px;height:72px;" version="1.1" viewBox="0 0 315 72" width="315px" zoomAndPan="magnify"><defs><filter height="300%" id="f1moisgee6tre7" width="300%" x="-1" y="-1"><feGaussianBlur result="blurOut" stdDeviation="2.0"/><feColorMatrix in="blurOut" result="blurOut2" type="matrix" values="0 0 0 0 0 0 0 0 0 0 0 0 0 0 0 0 0 0 .4 0"/><feOffset dx="4.0" dy="4.0" in="blurOut2" result="blurOut3"/><feBlend in="SourceGraphic" in2="blurOut3" mode="normal"/></filter></defs><g><polygon fill="#FFFFFF" filter="url(#f1moisgee6tre7)" points="6,8,41,8,48,30.4883,55,30.4883,55,60.9766,6,60.9766,6,8" style="stroke: #000000; stroke-width: 1.5;"/><line style="stroke: #000000; stroke-width: 1.5;" x1="6" x2="48" y1="30.4883" y2="30.4883"/><text fill="#000000" font-family="sans-serif" font-size="14" font-weight="bold" lengthAdjust="spacingAndGlyphs" textLength="29" x="10" y="23.5352">IHM</text><polygon fill="#FFFFFF" filter="url(#f1moisgee6tre7)" points="90.5,8,178.5,8,185.5,30.4883,192.5,30.4883,192.5,60.9766,90.5,60.9766,90.5,8" style="stroke: #000000; stroke-width: 1.5;"/><line style="stroke: #000000; stroke-width: 1.5;" x1="90.5" x2="185.5" y1="30.4883" y2="30.4883"/><text fill="#000000" font-family="sans-serif" font-size="14" font-weight="bold" lengthAdjust="spacingAndGlyphs" textLength="82" x="94.5" y="23.5352">Application</text><polygon fill="#FFFFFF" filter="url(#f1moisgee6tre7)" points="227.5,8,279.5,8,286.5,30.4883,293.5,30.4883,293.5,60.9766,227.5,60.9766,227.5,8" style="stroke: #000000; stroke-width: 1.5;"/><line style="stroke: #000000; stroke-width: 1.5;" x1="227.5" x2="286.5" y1="30.4883" y2="30.4883"/><text fill="#000000" font-family="sans-serif" font-size="14" font-weight="bold" lengthAdjust="spacingAndGlyphs" textLength="46" x="231.5" y="23.5352">Metier</text><!--link IHM to Application--><path d="M55.2148,48.2599 C65.1649,52.2128 75.1149,54.2493 85.065,54.3694 " fill="none" id="IHM-Application" style="stroke: #A80036; stroke-width: 1.0; stroke-dasharray: 7.0,7.0;"/><polygon fill="#A80036" points="90.2682,54.2575,81.1842,50.4521,85.2694,54.3651,81.3563,58.4502,90.2682,54.2575" style="stroke: #A80036; stroke-width: 1.0;"/><!--link Application to IHM--><path d="M90.2682,14.7425 C80.2269,14.1895 70.1855,15.5881 60.1442,18.9386 " fill="none" id="Application-IHM" style="stroke: #A80036; stroke-width: 1.0; stroke-dasharray: 7.0,7.0;"/><polygon fill="#A80036" points="55.2148,20.7401,65.041,21.4074,59.911,19.0237,62.2947,13.8936,55.2148,20.7401" style="stroke: #A80036; stroke-width: 1.0;"/><!--link Application to Metier--><path d="M192.6328,34.5 C202.4908,34.5 212.3487,34.5 222.2067,34.5 " fill="none" id="Application-Metier" style="stroke: #A80036; stroke-width: 1.0; stroke-dasharray: 7.0,7.0;"/><polygon fill="#A80036" points="227.3617,34.5,218.3617,30.5,222.3617,34.5,218.3617,38.5,227.3617,34.5" style="stroke: #A80036; stroke-width: 1.0;"/><!--
@startuml
hide methods
package IHM {

}
package Application {

}
package Metier {

}
IHM .> Application
Application .> IHM
Application .> Metier
@enduml

PlantUML version 1.2018.13(Mon Nov 26 18:11:51 CET 2018)
(APACHE source distribution)
Java Runtime: Java(TM) SE Runtime Environment
JVM: Java HotSpot(TM) 64-Bit Server VM
Java Version: 1.8.0_152-b16
Operating System: Mac OS X
OS Version: 10.14.4
Default Encoding: UTF-8
Language: fr
Country: FR
--></g></svg>