<?xml version="1.0" encoding="UTF-8" standalone="yes"?><svg xmlns="http://www.w3.org/2000/svg" xmlns:xlink="http://www.w3.org/1999/xlink" height="84px" style="width:299px;height:84px;" version="1.1" viewBox="0 0 299 84" width="299px"><defs><filter height="300%" id="f1" width="300%" x="-1" y="-1"><feGaussianBlur result="blurOut" stdDeviation="2.0"/><feColorMatrix in="blurOut" result="blurOut2" type="matrix" values="0 0 0 0 0 0 0 0 0 0 0 0 0 0 0 0 0 0 .4 0"/><feOffset dx="4.0" dy="4.0" in="blurOut2" result="blurOut3"/><feBlend in="SourceGraphic" in2="blurOut3" mode="normal"/></filter></defs><g><polygon fill="#FFFFFF" filter="url(#f1)" points="6,8.5,41,8.5,48,30.9883,55,30.9883,55,77.9648,6,77.9648,6,8.5" style="stroke: #000000; stroke-width: 2.0;"/><line style="stroke: #000000; stroke-width: 2.0;" x1="6" x2="48" y1="30.9883" y2="30.9883"/><text fill="#000000" font-family="sans-serif" font-size="14" font-weight="bold" lengthAdjust="spacingAndGlyphs" textLength="29" x="10" y="24.0352">IHM</text><polygon fill="#FFFFFF" filter="url(#f1)" points="89,8.5,177,8.5,184,30.9883,191,30.9883,191,77.9648,89,77.9648,89,8.5" style="stroke: #000000; stroke-width: 2.0;"/><line style="stroke: #000000; stroke-width: 2.0;" x1="89" x2="184" y1="30.9883" y2="30.9883"/><text fill="#000000" font-family="sans-serif" font-size="14" font-weight="bold" lengthAdjust="spacingAndGlyphs" textLength="82" x="93" y="24.0352">Application</text><polygon fill="#FFFFFF" filter="url(#f1)" points="226,8.5,278,8.5,285,30.9883,292,30.9883,292,77.9648,226,77.9648,226,8.5" style="stroke: #000000; stroke-width: 2.0;"/><line style="stroke: #000000; stroke-width: 2.0;" x1="226" x2="285" y1="30.9883" y2="30.9883"/><text fill="#000000" font-family="sans-serif" font-size="14" font-weight="bold" lengthAdjust="spacingAndGlyphs" textLength="46" x="230" y="24.0352">Metier</text><path d="M54,61 C63,66 74,68 84,68 " fill="none" style="stroke: #A80036; stroke-width: 1.0; stroke-dasharray: 7.0,7.0;"/><polygon fill="#A80036" points="89,68,80,64,84,68,80,72,89,68" style="stroke: #A80036; stroke-width: 1.0;"/><path d="M89,17 C79,16 68,18 59,23 " fill="none" style="stroke: #A80036; stroke-width: 1.0; stroke-dasharray: 7.0,7.0;"/><polygon fill="#A80036" points="54,25,63.8419,25.3712,58.6424,23.143,60.8706,17.9435,54,25" style="stroke: #A80036; stroke-width: 1.0;"/><path d="M191,43 C201,43 211,43 221,43 " fill="none" style="stroke: #A80036; stroke-width: 1.0; stroke-dasharray: 7.0,7.0;"/><polygon fill="#A80036" points="226,43,217,39,221,43,217,47,226,43" style="stroke: #A80036; stroke-width: 1.0;"/></g></svg>