<?xml version="1.0" encoding="UTF-8" standalone="yes"?><svg xmlns="http://www.w3.org/2000/svg" xmlns:xlink="http://www.w3.org/1999/xlink" height="221px" style="width:843px;height:221px;" version="1.1" viewBox="0 0 843 221" width="843px"><defs><filter height="300%" id="f1" width="300%" x="-1" y="-1"><feGaussianBlur result="blurOut" stdDeviation="2.0"/><feColorMatrix in="blurOut" result="blurOut2" type="matrix" values="0 0 0 0 0 0 0 0 0 0 0 0 0 0 0 0 0 0 .4 0"/><feOffset dx="4.0" dy="4.0" in="blurOut2" result="blurOut3"/><feBlend in="SourceGraphic" in2="blurOut3" mode="normal"/></filter></defs><g><polygon fill="#FFFFFF" filter="url(#f1)" points="22,131,36,131,43,153.4883,452,153.4883,452,214,22,214,22,131" style="stroke: #000000; stroke-width: 2.0;"/><line style="stroke: #000000; stroke-width: 2.0;" x1="22" x2="43" y1="153.4883" y2="153.4883"/><text fill="#000000" font-family="sans-serif" font-size="14" font-weight="bold" lengthAdjust="spacingAndGlyphs" textLength="8" x="26" y="146.5352">v</text><polygon fill="#FFFFFF" filter="url(#f1)" points="476,131,496,131,503,153.4883,836,153.4883,836,214,476,214,476,131" style="stroke: #000000; stroke-width: 2.0;"/><line style="stroke: #000000; stroke-width: 2.0;" x1="476" x2="503" y1="153.4883" y2="153.4883"/><text fill="#000000" font-family="sans-serif" font-size="14" font-weight="bold" lengthAdjust="spacingAndGlyphs" textLength="14" x="480" y="146.5352">m</text><polygon fill="#FFFFFF" filter="url(#f1)" points="406,24,419,24,426,46.4883,530,46.4883,530,107,406,107,406,24" style="stroke: #000000; stroke-width: 2.0;"/><line style="stroke: #000000; stroke-width: 2.0;" x1="406" x2="426" y1="46.4883" y2="46.4883"/><text fill="#000000" font-family="sans-serif" font-size="14" font-weight="bold" lengthAdjust="spacingAndGlyphs" textLength="7" x="410" y="39.5352">c</text><rect fill="#FEFECE" filter="url(#f1)" height="32" style="stroke: #A80036; stroke-width: 1.5;" width="103" x="332.5" y="166"/><ellipse cx="347.5" cy="182" fill="#ADD1B2" rx="11" ry="11" style="stroke: #A80036; stroke-width: 1.0;"/><path d="M350.4731,187.6431 Q349.8921,187.9419 349.2529,188.0913 Q348.6138,188.2407 347.9082,188.2407 Q345.4014,188.2407 344.0815,186.5889 Q342.7617,184.937 342.7617,181.8159 Q342.7617,178.6865 344.0815,177.0347 Q345.4014,175.3828 347.9082,175.3828 Q348.6138,175.3828 349.2612,175.5322 Q349.9087,175.6816 350.4731,175.9805 L350.4731,178.7031 Q349.8423,178.1221 349.2488,177.8523 Q348.6553,177.5825 348.0244,177.5825 Q346.6797,177.5825 345.9949,178.6492 Q345.3101,179.7158 345.3101,181.8159 Q345.3101,183.9077 345.9949,184.9744 Q346.6797,186.041 348.0244,186.041 Q348.6553,186.041 349.2488,185.7712 Q349.8423,185.5015 350.4731,184.9204 Z "/><text fill="#000000" font-family="sans-serif" font-size="12" lengthAdjust="spacingAndGlyphs" textLength="71" x="361.5" y="186.5352">MainWindow</text><rect fill="#FEFECE" filter="url(#f1)" height="32" style="stroke: #A80036; stroke-width: 1.5;" width="108" x="189" y="166"/><ellipse cx="204" cy="182" fill="#ADD1B2" rx="11" ry="11" style="stroke: #A80036; stroke-width: 1.0;"/><path d="M206.9731,187.6431 Q206.3921,187.9419 205.7529,188.0913 Q205.1138,188.2407 204.4082,188.2407 Q201.9014,188.2407 200.5815,186.5889 Q199.2617,184.937 199.2617,181.8159 Q199.2617,178.6865 200.5815,177.0347 Q201.9014,175.3828 204.4082,175.3828 Q205.1138,175.3828 205.7612,175.5322 Q206.4087,175.6816 206.9731,175.9805 L206.9731,178.7031 Q206.3423,178.1221 205.7488,177.8523 Q205.1553,177.5825 204.5244,177.5825 Q203.1797,177.5825 202.4949,178.6492 Q201.8101,179.7158 201.8101,181.8159 Q201.8101,183.9077 202.4949,184.9744 Q203.1797,186.041 204.5244,186.041 Q205.1553,186.041 205.7488,185.7712 Q206.3423,185.5015 206.9731,184.9204 Z "/><text fill="#000000" font-family="sans-serif" font-size="12" lengthAdjust="spacingAndGlyphs" textLength="76" x="218" y="186.5352">ClientWindow</text><rect fill="#FEFECE" filter="url(#f1)" height="32" style="stroke: #A80036; stroke-width: 1.5;" width="116" x="38" y="166"/><ellipse cx="53" cy="182" fill="#ADD1B2" rx="11" ry="11" style="stroke: #A80036; stroke-width: 1.0;"/><path d="M55.9731,187.6431 Q55.3921,187.9419 54.7529,188.0913 Q54.1138,188.2407 53.4082,188.2407 Q50.9014,188.2407 49.5815,186.5889 Q48.2617,184.937 48.2617,181.8159 Q48.2617,178.6865 49.5815,177.0347 Q50.9014,175.3828 53.4082,175.3828 Q54.1138,175.3828 54.7612,175.5322 Q55.4087,175.6816 55.9731,175.9805 L55.9731,178.7031 Q55.3423,178.1221 54.7488,177.8523 Q54.1553,177.5825 53.5244,177.5825 Q52.1797,177.5825 51.4949,178.6492 Q50.8101,179.7158 50.8101,181.8159 Q50.8101,183.9077 51.4949,184.9744 Q52.1797,186.041 53.5244,186.041 Q54.1553,186.041 54.7488,185.7712 Q55.3423,185.5015 55.9731,184.9204 Z "/><text fill="#000000" font-family="sans-serif" font-size="12" lengthAdjust="spacingAndGlyphs" textLength="84" x="67" y="186.5352">HistoryWindow</text><rect fill="#FEFECE" filter="url(#f1)" height="32" style="stroke: #A80036; stroke-width: 1.5;" width="64" x="647" y="166"/><ellipse cx="662" cy="182" fill="#ADD1B2" rx="11" ry="11" style="stroke: #A80036; stroke-width: 1.0;"/><path d="M664.9731,187.6431 Q664.3921,187.9419 663.7529,188.0913 Q663.1138,188.2407 662.4082,188.2407 Q659.9014,188.2407 658.5815,186.5889 Q657.2617,184.937 657.2617,181.8159 Q657.2617,178.6865 658.5815,177.0347 Q659.9014,175.3828 662.4082,175.3828 Q663.1138,175.3828 663.7612,175.5322 Q664.4087,175.6816 664.9731,175.9805 L664.9731,178.7031 Q664.3423,178.1221 663.7488,177.8523 Q663.1553,177.5825 662.5244,177.5825 Q661.1797,177.5825 660.4949,178.6492 Q659.8101,179.7158 659.8101,181.8159 Q659.8101,183.9077 660.4949,184.9744 Q661.1797,186.041 662.5244,186.041 Q663.1553,186.041 663.7488,185.7712 Q664.3423,185.5015 664.9731,184.9204 Z "/><text fill="#000000" font-family="sans-serif" font-size="12" lengthAdjust="spacingAndGlyphs" textLength="32" x="676" y="186.5352">Client</text><rect fill="#FEFECE" filter="url(#f1)" height="32" style="stroke: #A80036; stroke-width: 1.5;" width="74" x="746" y="166"/><ellipse cx="761" cy="182" fill="#ADD1B2" rx="11" ry="11" style="stroke: #A80036; stroke-width: 1.0;"/><path d="M763.9731,187.6431 Q763.3921,187.9419 762.7529,188.0913 Q762.1138,188.2407 761.4082,188.2407 Q758.9014,188.2407 757.5815,186.5889 Q756.2617,184.937 756.2617,181.8159 Q756.2617,178.6865 757.5815,177.0347 Q758.9014,175.3828 761.4082,175.3828 Q762.1138,175.3828 762.7612,175.5322 Q763.4087,175.6816 763.9731,175.9805 L763.9731,178.7031 Q763.3423,178.1221 762.7488,177.8523 Q762.1553,177.5825 761.5244,177.5825 Q760.1797,177.5825 759.4949,178.6492 Q758.8101,179.7158 758.8101,181.8159 Q758.8101,183.9077 759.4949,184.9744 Q760.1797,186.041 761.5244,186.041 Q762.1553,186.041 762.7488,185.7712 Q763.3423,185.5015 763.9731,184.9204 Z "/><text fill="#000000" font-family="sans-serif" font-size="12" lengthAdjust="spacingAndGlyphs" textLength="42" x="775" y="186.5352">Facture</text><rect fill="#FEFECE" filter="url(#f1)" height="32" style="stroke: #A80036; stroke-width: 1.5;" width="119" x="492.5" y="166"/><ellipse cx="507.5" cy="182" fill="#ADD1B2" rx="11" ry="11" style="stroke: #A80036; stroke-width: 1.0;"/><path d="M510.4731,187.6431 Q509.8921,187.9419 509.2529,188.0913 Q508.6138,188.2407 507.9082,188.2407 Q505.4014,188.2407 504.0815,186.5889 Q502.7617,184.937 502.7617,181.8159 Q502.7617,178.6865 504.0815,177.0347 Q505.4014,175.3828 507.9082,175.3828 Q508.6138,175.3828 509.2612,175.5322 Q509.9087,175.6816 510.4731,175.9805 L510.4731,178.7031 Q509.8423,178.1221 509.2488,177.8523 Q508.6553,177.5825 508.0244,177.5825 Q506.6797,177.5825 505.9949,178.6492 Q505.3101,179.7158 505.3101,181.8159 Q505.3101,183.9077 505.9949,184.9744 Q506.6797,186.041 508.0244,186.041 Q508.6553,186.041 509.2488,185.7712 Q509.8423,185.5015 510.4731,184.9204 Z "/><text fill="#000000" font-family="sans-serif" font-size="12" lengthAdjust="spacingAndGlyphs" textLength="87" x="521.5" y="186.5352">BonCommande</text><rect fill="#FEFECE" filter="url(#f1)" height="32" style="stroke: #A80036; stroke-width: 1.5;" width="92" x="422" y="59"/><ellipse cx="437" cy="75" fill="#ADD1B2" rx="11" ry="11" style="stroke: #A80036; stroke-width: 1.0;"/><path d="M439.9731,80.6431 Q439.3921,80.9419 438.7529,81.0913 Q438.1138,81.2407 437.4082,81.2407 Q434.9014,81.2407 433.5815,79.5889 Q432.2617,77.937 432.2617,74.8159 Q432.2617,71.6865 433.5815,70.0347 Q434.9014,68.3828 437.4082,68.3828 Q438.1138,68.3828 438.7612,68.5322 Q439.4087,68.6816 439.9731,68.9805 L439.9731,71.7031 Q439.3423,71.1221 438.7488,70.8523 Q438.1553,70.5825 437.5244,70.5825 Q436.1797,70.5825 435.4949,71.6492 Q434.8101,72.7158 434.8101,74.8159 Q434.8101,76.9077 435.4949,77.9744 Q436.1797,79.041 437.5244,79.041 Q438.1553,79.041 438.7488,78.7712 Q439.3423,78.5015 439.9731,77.9204 Z "/><text fill="#000000" font-family="sans-serif" font-size="12" lengthAdjust="spacingAndGlyphs" textLength="60" x="451" y="79.5352">Controleur</text><path d="M455.242,91.251 C439.362,111.479 412.41,145.8109 396.603,165.9467 " fill="none" style="stroke: #A80036; stroke-width: 1.0;"/><text fill="#000000" font-family="sans-serif" font-size="13" lengthAdjust="spacingAndGlyphs" textLength="8" x="391.6678" y="155.1795">1</text><path d="M421.992,84.556 C390.621,92.22 348.802,104.742 315,123 C293.671,134.5205 272.618,152.7965 258.84,165.9561 " fill="none" style="stroke: #A80036; stroke-width: 1.0;"/><text fill="#000000" font-family="sans-serif" font-size="13" lengthAdjust="spacingAndGlyphs" textLength="8" x="255.058" y="155.1923">1</text><path d="M421.933,79.657 C350.345,87.364 216.037,103.837 172,123 C148.566,133.1976 125.996,152.2803 111.628,165.9851 " fill="none" style="stroke: #A80036; stroke-width: 1.0;"/><text fill="#000000" font-family="sans-serif" font-size="13" lengthAdjust="spacingAndGlyphs" textLength="8" x="107.7707" y="155.2316">1</text><path d="M514.03,79.899 C578.745,87.385 692.776,102.94 729,123 C745.589,132.1866 759.846,148.3615 769.538,161.4547 " fill="none" style="stroke: #A80036; stroke-width: 1.0;"/><polygon fill="#A80036" points="772.647,165.7623,770.6252,156.1232,769.7216,161.7074,764.1374,160.8038,772.647,165.7623" style="stroke: #A80036; stroke-width: 1.0;"/><text fill="#000000" font-family="sans-serif" font-size="13" lengthAdjust="spacingAndGlyphs" textLength="8" x="759.7132" y="155.2242">1</text><path d="M514.005,81.465 C547.939,87.882 594.084,100.186 629,123 C644.249,132.9634 657.377,148.936 666.351,161.7508 " fill="none" style="stroke: #A80036; stroke-width: 1.0;"/><polygon fill="#A80036" points="669.231,165.9624,667.4514,156.2757,666.4081,161.8355,660.8483,160.7922,669.231,165.9624" style="stroke: #A80036; stroke-width: 1.0;"/><text fill="#000000" font-family="sans-serif" font-size="13" lengthAdjust="spacingAndGlyphs" textLength="6" x="658.682" y="155.2008">*</text><path d="M480.758,91.251 C495.645,110.215 520.264,141.5746 536.308,162.0118 " fill="none" style="stroke: #A80036; stroke-width: 1.0;"/><polygon fill="#A80036" points="539.397,165.9467,536.9857,156.3976,536.3095,162.0139,530.6932,161.3377,539.397,165.9467" style="stroke: #A80036; stroke-width: 1.0;"/><text fill="#000000" font-family="sans-serif" font-size="13" lengthAdjust="spacingAndGlyphs" textLength="6" x="527.8384" y="155.1795">*</text></g></svg>