<?xml version="1.0" encoding="UTF-8" standalone="no"?><svg xmlns="http://www.w3.org/2000/svg" xmlns:xlink="http://www.w3.org/1999/xlink" contentScriptType="application/ecmascript" contentStyleType="text/css" height="139px" preserveAspectRatio="none" style="width:939px;height:139px;" version="1.1" viewBox="0 0 939 139" width="939px" zoomAndPan="magnify"><defs><filter height="300%" id="f96nsabj95tsb" width="300%" x="-1" y="-1"><feGaussianBlur result="blurOut" stdDeviation="2.0"/><feColorMatrix in="blurOut" result="blurOut2" type="matrix" values="0 0 0 0 0 0 0 0 0 0 0 0 0 0 0 0 0 0 .4 0"/><feOffset dx="4.0" dy="4.0" in="blurOut2" result="blurOut3"/><feBlend in="SourceGraphic" in2="blurOut3" mode="normal"/></filter></defs><g><!--cluster v--><polygon fill="#FFFFFF" filter="url(#f96nsabj95tsb)" points="141,60,155,60,162,82.4883,555,82.4883,555,127,141,127,141,60" style="stroke: #000000; stroke-width: 1.5;"/><line style="stroke: #000000; stroke-width: 1.5;" x1="141" x2="162" y1="82.4883" y2="82.4883"/><text fill="#000000" font-family="sans-serif" font-size="14" font-weight="bold" lengthAdjust="spacingAndGlyphs" textLength="8" x="145" y="75.5352">v</text><!--cluster m--><polygon fill="#FFFFFF" filter="url(#f96nsabj95tsb)" points="573,60,593,60,600,82.4883,917,82.4883,917,127,573,127,573,60" style="stroke: #000000; stroke-width: 1.5;"/><line style="stroke: #000000; stroke-width: 1.5;" x1="573" x2="600" y1="82.4883" y2="82.4883"/><text fill="#000000" font-family="sans-serif" font-size="14" font-weight="bold" lengthAdjust="spacingAndGlyphs" textLength="14" x="577" y="75.5352">m</text><!--cluster c--><polygon fill="#FFFFFF" filter="url(#f96nsabj95tsb)" points="14,60,27,60,34,82.4883,122,82.4883,122,127,14,127,14,60" style="stroke: #000000; stroke-width: 1.5;"/><line style="stroke: #000000; stroke-width: 1.5;" x1="14" x2="34" y1="82.4883" y2="82.4883"/><text fill="#000000" font-family="sans-serif" font-size="14" font-weight="bold" lengthAdjust="spacingAndGlyphs" textLength="7" x="18" y="75.5352">c</text><!--class MainWindow--><rect fill="#FEFECE" filter="url(#f96nsabj95tsb)" height="32" id="MainWindow" style="stroke: #A80036; stroke-width: 1.5;" width="103" x="443.5" y="87"/><ellipse cx="458.5" cy="103" fill="#ADD1B2" rx="11" ry="11" style="stroke: #A80036; stroke-width: 1.0;"/><path d="M460.9731,109.1431 Q460.3921,109.4419 459.7529,109.5913 Q459.1138,109.7407 458.4082,109.7407 Q455.9014,109.7407 454.5815,108.0889 Q453.2617,106.437 453.2617,103.3159 Q453.2617,100.1865 454.5815,98.5347 Q455.9014,96.8828 458.4082,96.8828 Q459.1138,96.8828 459.7612,97.0322 Q460.4087,97.1816 460.9731,97.4805 L460.9731,100.2031 Q460.3423,99.6221 459.7488,99.3523 Q459.1553,99.0825 458.5244,99.0825 Q457.1797,99.0825 456.4949,100.1492 Q455.8101,101.2158 455.8101,103.3159 Q455.8101,105.4077 456.4949,106.4744 Q457.1797,107.541 458.5244,107.541 Q459.1553,107.541 459.7488,107.2712 Q460.3423,107.0015 460.9731,106.4204 Z "/><text fill="#000000" font-family="sans-serif" font-size="12" lengthAdjust="spacingAndGlyphs" textLength="71" x="472.5" y="107.5352">MainWindow</text><!--class ClientWindow--><rect fill="#FEFECE" filter="url(#f96nsabj95tsb)" height="32" id="ClientWindow" style="stroke: #A80036; stroke-width: 1.5;" width="108" x="300" y="87"/><ellipse cx="315" cy="103" fill="#ADD1B2" rx="11" ry="11" style="stroke: #A80036; stroke-width: 1.0;"/><path d="M317.4731,109.1431 Q316.8921,109.4419 316.2529,109.5913 Q315.6138,109.7407 314.9082,109.7407 Q312.4014,109.7407 311.0815,108.0889 Q309.7617,106.437 309.7617,103.3159 Q309.7617,100.1865 311.0815,98.5347 Q312.4014,96.8828 314.9082,96.8828 Q315.6138,96.8828 316.2612,97.0322 Q316.9087,97.1816 317.4731,97.4805 L317.4731,100.2031 Q316.8423,99.6221 316.2488,99.3523 Q315.6553,99.0825 315.0244,99.0825 Q313.6797,99.0825 312.9949,100.1492 Q312.3101,101.2158 312.3101,103.3159 Q312.3101,105.4077 312.9949,106.4744 Q313.6797,107.541 315.0244,107.541 Q315.6553,107.541 316.2488,107.2712 Q316.8423,107.0015 317.4731,106.4204 Z "/><text fill="#000000" font-family="sans-serif" font-size="12" lengthAdjust="spacingAndGlyphs" textLength="76" x="329" y="107.5352">ClientWindow</text><!--class HistoryWindow--><rect fill="#FEFECE" filter="url(#f96nsabj95tsb)" height="32" id="HistoryWindow" style="stroke: #A80036; stroke-width: 1.5;" width="116" x="149" y="87"/><ellipse cx="164" cy="103" fill="#ADD1B2" rx="11" ry="11" style="stroke: #A80036; stroke-width: 1.0;"/><path d="M166.4731,109.1431 Q165.8921,109.4419 165.2529,109.5913 Q164.6138,109.7407 163.9082,109.7407 Q161.4014,109.7407 160.0815,108.0889 Q158.7617,106.437 158.7617,103.3159 Q158.7617,100.1865 160.0815,98.5347 Q161.4014,96.8828 163.9082,96.8828 Q164.6138,96.8828 165.2612,97.0322 Q165.9087,97.1816 166.4731,97.4805 L166.4731,100.2031 Q165.8423,99.6221 165.2488,99.3523 Q164.6553,99.0825 164.0244,99.0825 Q162.6797,99.0825 161.9949,100.1492 Q161.3101,101.2158 161.3101,103.3159 Q161.3101,105.4077 161.9949,106.4744 Q162.6797,107.541 164.0244,107.541 Q164.6553,107.541 165.2488,107.2712 Q165.8423,107.0015 166.4731,106.4204 Z "/><text fill="#000000" font-family="sans-serif" font-size="12" lengthAdjust="spacingAndGlyphs" textLength="84" x="178" y="107.5352">HistoryWindow</text><!--class Client--><rect fill="#FEFECE" filter="url(#f96nsabj95tsb)" height="32" id="Client" style="stroke: #A80036; stroke-width: 1.5;" width="64" x="736" y="87"/><ellipse cx="751" cy="103" fill="#ADD1B2" rx="11" ry="11" style="stroke: #A80036; stroke-width: 1.0;"/><path d="M753.4731,109.1431 Q752.8921,109.4419 752.2529,109.5913 Q751.6138,109.7407 750.9082,109.7407 Q748.4014,109.7407 747.0815,108.0889 Q745.7617,106.437 745.7617,103.3159 Q745.7617,100.1865 747.0815,98.5347 Q748.4014,96.8828 750.9082,96.8828 Q751.6138,96.8828 752.2612,97.0322 Q752.9087,97.1816 753.4731,97.4805 L753.4731,100.2031 Q752.8423,99.6221 752.2488,99.3523 Q751.6553,99.0825 751.0244,99.0825 Q749.6797,99.0825 748.9949,100.1492 Q748.3101,101.2158 748.3101,103.3159 Q748.3101,105.4077 748.9949,106.4744 Q749.6797,107.541 751.0244,107.541 Q751.6553,107.541 752.2488,107.2712 Q752.8423,107.0015 753.4731,106.4204 Z "/><text fill="#000000" font-family="sans-serif" font-size="12" lengthAdjust="spacingAndGlyphs" textLength="32" x="765" y="107.5352">Client</text><!--class Facture--><rect fill="#FEFECE" filter="url(#f96nsabj95tsb)" height="32" id="Facture" style="stroke: #A80036; stroke-width: 1.5;" width="74" x="835" y="87"/><ellipse cx="850" cy="103" fill="#ADD1B2" rx="11" ry="11" style="stroke: #A80036; stroke-width: 1.0;"/><path d="M852.4731,109.1431 Q851.8921,109.4419 851.2529,109.5913 Q850.6138,109.7407 849.9082,109.7407 Q847.4014,109.7407 846.0815,108.0889 Q844.7617,106.437 844.7617,103.3159 Q844.7617,100.1865 846.0815,98.5347 Q847.4014,96.8828 849.9082,96.8828 Q850.6138,96.8828 851.2612,97.0322 Q851.9087,97.1816 852.4731,97.4805 L852.4731,100.2031 Q851.8423,99.6221 851.2488,99.3523 Q850.6553,99.0825 850.0244,99.0825 Q848.6797,99.0825 847.9949,100.1492 Q847.3101,101.2158 847.3101,103.3159 Q847.3101,105.4077 847.9949,106.4744 Q848.6797,107.541 850.0244,107.541 Q850.6553,107.541 851.2488,107.2712 Q851.8423,107.0015 852.4731,106.4204 Z "/><text fill="#000000" font-family="sans-serif" font-size="12" lengthAdjust="spacingAndGlyphs" textLength="42" x="864" y="107.5352">Facture</text><!--class BonCommande--><rect fill="#FEFECE" filter="url(#f96nsabj95tsb)" height="32" id="BonCommande" style="stroke: #A80036; stroke-width: 1.5;" width="119" x="581.5" y="87"/><ellipse cx="596.5" cy="103" fill="#ADD1B2" rx="11" ry="11" style="stroke: #A80036; stroke-width: 1.0;"/><path d="M598.9731,109.1431 Q598.3921,109.4419 597.7529,109.5913 Q597.1138,109.7407 596.4082,109.7407 Q593.9014,109.7407 592.5815,108.0889 Q591.2617,106.437 591.2617,103.3159 Q591.2617,100.1865 592.5815,98.5347 Q593.9014,96.8828 596.4082,96.8828 Q597.1138,96.8828 597.7612,97.0322 Q598.4087,97.1816 598.9731,97.4805 L598.9731,100.2031 Q598.3423,99.6221 597.7488,99.3523 Q597.1553,99.0825 596.5244,99.0825 Q595.1797,99.0825 594.4949,100.1492 Q593.8101,101.2158 593.8101,103.3159 Q593.8101,105.4077 594.4949,106.4744 Q595.1797,107.541 596.5244,107.541 Q597.1553,107.541 597.7488,107.2712 Q598.3423,107.0015 598.9731,106.4204 Z "/><text fill="#000000" font-family="sans-serif" font-size="12" lengthAdjust="spacingAndGlyphs" textLength="87" x="610.5" y="107.5352">BonCommande</text><!--class Controleur--><rect fill="#FEFECE" filter="url(#f96nsabj95tsb)" height="32" id="Controleur" style="stroke: #A80036; stroke-width: 1.5;" width="92" x="22" y="87"/><ellipse cx="37" cy="103" fill="#ADD1B2" rx="11" ry="11" style="stroke: #A80036; stroke-width: 1.0;"/><path d="M39.4731,109.1431 Q38.8921,109.4419 38.2529,109.5913 Q37.6138,109.7407 36.9082,109.7407 Q34.4014,109.7407 33.0815,108.0889 Q31.7617,106.437 31.7617,103.3159 Q31.7617,100.1865 33.0815,98.5347 Q34.4014,96.8828 36.9082,96.8828 Q37.6138,96.8828 38.2612,97.0322 Q38.9087,97.1816 39.4731,97.4805 L39.4731,100.2031 Q38.8423,99.6221 38.2488,99.3523 Q37.6553,99.0825 37.0244,99.0825 Q35.6797,99.0825 34.9949,100.1492 Q34.3101,101.2158 34.3101,103.3159 Q34.3101,105.4077 34.9949,106.4744 Q35.6797,107.541 37.0244,107.541 Q37.6553,107.541 38.2488,107.2712 Q38.8423,107.0015 39.4731,106.4204 Z "/><text fill="#000000" font-family="sans-serif" font-size="12" lengthAdjust="spacingAndGlyphs" textLength="60" x="51" y="107.5352">Controleur</text><!--link Controleur to MainWindow--><path d="M80.1513,86.7688 C94.6252,68.9339 120.6333,41.3167 150.5,30 C204.1137,9.6855 354.6521,10.3147 408.5,30 C439.3213,41.2674 466.7407,68.8997 482.0806,86.7509 " fill="none" id="Controleur-MainWindow" style="stroke: #A80036; stroke-width: 1.0;"/><text fill="#000000" font-family="sans-serif" font-size="13" lengthAdjust="spacingAndGlyphs" textLength="8" x="468.2646" y="76.2089">1</text><!--link Controleur to ClientWindow--><path d="M80.1513,86.7688 C94.6252,68.9339 120.6333,41.3167 150.5,30 C198.2952,11.8901 217.3981,12.7212 265.5,30 C296.8032,41.2445 324.9269,68.8838 340.6982,86.7426 " fill="none" id="Controleur-ClientWindow" style="stroke: #A80036; stroke-width: 1.0;"/><text fill="#000000" font-family="sans-serif" font-size="13" lengthAdjust="spacingAndGlyphs" textLength="8" x="326.7507" y="76.1977">1</text><!--link Controleur to HistoryWindow--><path d="M114.1523,103 C125.7583,103 137.3643,103 148.9702,103 " fill="none" id="Controleur-HistoryWindow" style="stroke: #A80036; stroke-width: 1.0;"/><text fill="#000000" font-family="sans-serif" font-size="13" lengthAdjust="spacingAndGlyphs" textLength="8" x="133.0226" y="99.6273">1</text><!--link Controleur to Facture--><path d="M80.1513,86.7688 C94.6252,68.9339 120.6333,41.3167 150.5,30 C218.0367,4.41 733.9197,2.0158 800.5,30 C825.6778,40.5824 846.4312,64.8377 858.9761,82.4935 " fill="none" id="Controleur-Facture" style="stroke: #A80036; stroke-width: 1.0;"/><polygon fill="#A80036" points="861.9863,86.8277,860.1376,77.1539,859.1341,82.721,853.5669,81.7175,861.9863,86.8277" style="stroke: #A80036; stroke-width: 1.0;"/><text fill="#000000" font-family="sans-serif" font-size="13" lengthAdjust="spacingAndGlyphs" textLength="8" x="849.1691" y="76.3121">1</text><!--link Controleur to Client--><path d="M80.1513,86.7688 C94.6252,68.9339 120.6333,41.3167 150.5,30 C207.6464,8.3469 644.509,5.5138 700.5,30 C724.8477,40.6478 744.3229,64.8899 755.9804,82.5247 " fill="none" id="Controleur-Client" style="stroke: #A80036; stroke-width: 1.0;"/><polygon fill="#A80036" points="758.774,86.8535,757.2549,77.1225,756.0629,82.6523,750.533,81.4603,758.774,86.8535" style="stroke: #A80036; stroke-width: 1.0;"/><text fill="#000000" font-family="sans-serif" font-size="13" lengthAdjust="spacingAndGlyphs" textLength="6" x="748.5713" y="76.3468">*</text><!--link Controleur to BonCommande--><path d="M80.1513,86.7688 C94.6252,68.9339 120.6333,41.3167 150.5,30 C232.583,-1.1017 462.3546,1.8615 545.5,30 C576.1907,40.3865 604.7812,65.025 622.5305,82.8083 " fill="none" id="Controleur-BonCommande" style="stroke: #A80036; stroke-width: 1.0;"/><polygon fill="#A80036" points="626.3679,86.7164,622.9166,77.492,622.8649,83.1487,617.2083,83.0969,626.3679,86.7164" style="stroke: #A80036; stroke-width: 1.0;"/><text fill="#000000" font-family="sans-serif" font-size="13" lengthAdjust="spacingAndGlyphs" textLength="6" x="614.3069" y="76.1625">*</text><!--
@startuml
hide methods
hide attributes

package v{
	class MainWindow
	class ClientWindow
	class HistoryWindow
}
package m{
  class Client
  class Facture
  class BonCommande
}
package c{
	class Controleur {
	}
}
Controleur - "1" MainWindow
Controleur - "1" ClientWindow
Controleur - "1" HistoryWindow
Controleur -> "1" Facture
Controleur -> "*" Client
Controleur -> "*" BonCommande

@enduml

PlantUML version 1.2018.13(Mon Nov 26 18:11:51 CET 2018)
(APACHE source distribution)
Java Runtime: Java(TM) SE Runtime Environment
JVM: Java HotSpot(TM) 64-Bit Server VM
Java Version: 1.8.0_152-b16
Operating System: Mac OS X
OS Version: 10.14.4
Default Encoding: UTF-8
Language: fr
Country: FR
--></g></svg>