<?xml version="1.0" encoding="UTF-8" standalone="yes"?><svg xmlns="http://www.w3.org/2000/svg" xmlns:xlink="http://www.w3.org/1999/xlink" height="295px" style="width:1131px;height:295px;" version="1.1" viewBox="0 0 1131 295" width="1131px"><defs><filter height="300%" id="f1" width="300%" x="-1" y="-1"><feGaussianBlur result="blurOut" stdDeviation="2.0"/><feColorMatrix in="blurOut" result="blurOut2" type="matrix" values="0 0 0 0 0 0 0 0 0 0 0 0 0 0 0 0 0 0 .4 0"/><feOffset dx="4.0" dy="4.0" in="blurOut2" result="blurOut3"/><feBlend in="SourceGraphic" in2="blurOut3" mode="normal"/></filter></defs><g><polygon fill="#FFFFFF" filter="url(#f1)" points="22,156,36,156,43,178.4883,596,178.4883,596,288,22,288,22,156" style="stroke: #000000; stroke-width: 2.0;"/><line style="stroke: #000000; stroke-width: 2.0;" x1="22" x2="43" y1="178.4883" y2="178.4883"/><text fill="#000000" font-family="sans-serif" font-size="14" font-weight="bold" lengthAdjust="spacingAndGlyphs" textLength="8" x="26" y="171.5352">v</text><polygon fill="#FFFFFF" filter="url(#f1)" points="620,156,640,156,647,178.4883,1124,178.4883,1124,288,620,288,620,156" style="stroke: #000000; stroke-width: 2.0;"/><line style="stroke: #000000; stroke-width: 2.0;" x1="620" x2="647" y1="178.4883" y2="178.4883"/><text fill="#000000" font-family="sans-serif" font-size="14" font-weight="bold" lengthAdjust="spacingAndGlyphs" textLength="14" x="624" y="171.5352">m</text><polygon fill="#FFFFFF" filter="url(#f1)" points="550,32,563,32,570,54.4883,674,54.4883,674,124,550,124,550,32" style="stroke: #000000; stroke-width: 2.0;"/><line style="stroke: #000000; stroke-width: 2.0;" x1="550" x2="570" y1="54.4883" y2="54.4883"/><text fill="#000000" font-family="sans-serif" font-size="14" font-weight="bold" lengthAdjust="spacingAndGlyphs" textLength="7" x="554" y="47.5352">c</text><rect fill="#FEFECE" filter="url(#f1)" height="32" style="stroke: #A80036; stroke-width: 1.5;" width="103" x="453" y="220"/><ellipse cx="468" cy="236" fill="#ADD1B2" rx="11" ry="11" style="stroke: #A80036; stroke-width: 1.0;"/><path d="M470.9731,241.6431 Q470.3921,241.9419 469.7529,242.0913 Q469.1138,242.2407 468.4082,242.2407 Q465.9014,242.2407 464.5815,240.5889 Q463.2617,238.937 463.2617,235.8159 Q463.2617,232.6865 464.5815,231.0347 Q465.9014,229.3828 468.4082,229.3828 Q469.1138,229.3828 469.7612,229.5322 Q470.4087,229.6816 470.9731,229.9805 L470.9731,232.7031 Q470.3423,232.1221 469.7488,231.8523 Q469.1553,231.5825 468.5244,231.5825 Q467.1797,231.5825 466.4949,232.6492 Q465.8101,233.7158 465.8101,235.8159 Q465.8101,237.9077 466.4949,238.9744 Q467.1797,240.041 468.5244,240.041 Q469.1553,240.041 469.7488,239.7712 Q470.3423,239.5015 470.9731,238.9204 Z "/><text fill="#000000" font-family="sans-serif" font-size="12" lengthAdjust="spacingAndGlyphs" textLength="71" x="482" y="240.5352">MainWindow</text><rect fill="#FEFECE" filter="url(#f1)" height="32" style="stroke: #A80036; stroke-width: 1.5;" width="108" x="261" y="220"/><ellipse cx="276" cy="236" fill="#ADD1B2" rx="11" ry="11" style="stroke: #A80036; stroke-width: 1.0;"/><path d="M278.9731,241.6431 Q278.3921,241.9419 277.7529,242.0913 Q277.1138,242.2407 276.4082,242.2407 Q273.9014,242.2407 272.5815,240.5889 Q271.2617,238.937 271.2617,235.8159 Q271.2617,232.6865 272.5815,231.0347 Q273.9014,229.3828 276.4082,229.3828 Q277.1138,229.3828 277.7612,229.5322 Q278.4087,229.6816 278.9731,229.9805 L278.9731,232.7031 Q278.3423,232.1221 277.7488,231.8523 Q277.1553,231.5825 276.5244,231.5825 Q275.1797,231.5825 274.4949,232.6492 Q273.8101,233.7158 273.8101,235.8159 Q273.8101,237.9077 274.4949,238.9744 Q275.1797,240.041 276.5244,240.041 Q277.1553,240.041 277.7488,239.7712 Q278.3423,239.5015 278.9731,238.9204 Z "/><text fill="#000000" font-family="sans-serif" font-size="12" lengthAdjust="spacingAndGlyphs" textLength="76" x="290" y="240.5352">ClientWindow</text><rect fill="#FEFECE" filter="url(#f1)" height="32" style="stroke: #A80036; stroke-width: 1.5;" width="116" x="62" y="220"/><ellipse cx="77" cy="236" fill="#ADD1B2" rx="11" ry="11" style="stroke: #A80036; stroke-width: 1.0;"/><path d="M79.9731,241.6431 Q79.3921,241.9419 78.7529,242.0913 Q78.1138,242.2407 77.4082,242.2407 Q74.9014,242.2407 73.5815,240.5889 Q72.2617,238.937 72.2617,235.8159 Q72.2617,232.6865 73.5815,231.0347 Q74.9014,229.3828 77.4082,229.3828 Q78.1138,229.3828 78.7612,229.5322 Q79.4087,229.6816 79.9731,229.9805 L79.9731,232.7031 Q79.3423,232.1221 78.7488,231.8523 Q78.1553,231.5825 77.5244,231.5825 Q76.1797,231.5825 75.4949,232.6492 Q74.8101,233.7158 74.8101,235.8159 Q74.8101,237.9077 75.4949,238.9744 Q76.1797,240.041 77.5244,240.041 Q78.1553,240.041 78.7488,239.7712 Q79.3423,239.5015 79.9731,238.9204 Z "/><text fill="#000000" font-family="sans-serif" font-size="12" lengthAdjust="spacingAndGlyphs" textLength="84" x="91" y="240.5352">HistoryWindow</text><rect fill="#FEFECE" filter="url(#f1)" height="32" style="stroke: #A80036; stroke-width: 1.5;" width="64" x="863" y="220"/><ellipse cx="878" cy="236" fill="#ADD1B2" rx="11" ry="11" style="stroke: #A80036; stroke-width: 1.0;"/><path d="M880.9731,241.6431 Q880.3921,241.9419 879.7529,242.0913 Q879.1138,242.2407 878.4082,242.2407 Q875.9014,242.2407 874.5815,240.5889 Q873.2617,238.937 873.2617,235.8159 Q873.2617,232.6865 874.5815,231.0347 Q875.9014,229.3828 878.4082,229.3828 Q879.1138,229.3828 879.7612,229.5322 Q880.4087,229.6816 880.9731,229.9805 L880.9731,232.7031 Q880.3423,232.1221 879.7488,231.8523 Q879.1553,231.5825 878.5244,231.5825 Q877.1797,231.5825 876.4949,232.6492 Q875.8101,233.7158 875.8101,235.8159 Q875.8101,237.9077 876.4949,238.9744 Q877.1797,240.041 878.5244,240.041 Q879.1553,240.041 879.7488,239.7712 Q880.3423,239.5015 880.9731,238.9204 Z "/><text fill="#000000" font-family="sans-serif" font-size="12" lengthAdjust="spacingAndGlyphs" textLength="32" x="892" y="240.5352">Client</text><rect fill="#FEFECE" filter="url(#f1)" height="32" style="stroke: #A80036; stroke-width: 1.5;" width="74" x="1010" y="220"/><ellipse cx="1025" cy="236" fill="#ADD1B2" rx="11" ry="11" style="stroke: #A80036; stroke-width: 1.0;"/><path d="M1027.9731,241.6431 Q1027.3921,241.9419 1026.7529,242.0913 Q1026.1138,242.2407 1025.4082,242.2407 Q1022.9014,242.2407 1021.5815,240.5889 Q1020.2617,238.937 1020.2617,235.8159 Q1020.2617,232.6865 1021.5815,231.0347 Q1022.9014,229.3828 1025.4082,229.3828 Q1026.1138,229.3828 1026.7612,229.5322 Q1027.4087,229.6816 1027.9731,229.9805 L1027.9731,232.7031 Q1027.3423,232.1221 1026.7488,231.8523 Q1026.1553,231.5825 1025.5244,231.5825 Q1024.1797,231.5825 1023.4949,232.6492 Q1022.8101,233.7158 1022.8101,235.8159 Q1022.8101,237.9077 1023.4949,238.9744 Q1024.1797,240.041 1025.5244,240.041 Q1026.1553,240.041 1026.7488,239.7712 Q1027.3423,239.5015 1027.9731,238.9204 Z "/><text fill="#000000" font-family="sans-serif" font-size="12" lengthAdjust="spacingAndGlyphs" textLength="42" x="1039" y="240.5352">Facture</text><rect fill="#FEFECE" filter="url(#f1)" height="32" style="stroke: #A80036; stroke-width: 1.5;" width="119" x="661" y="220"/><ellipse cx="676" cy="236" fill="#ADD1B2" rx="11" ry="11" style="stroke: #A80036; stroke-width: 1.0;"/><path d="M678.9731,241.6431 Q678.3921,241.9419 677.7529,242.0913 Q677.1138,242.2407 676.4082,242.2407 Q673.9014,242.2407 672.5815,240.5889 Q671.2617,238.937 671.2617,235.8159 Q671.2617,232.6865 672.5815,231.0347 Q673.9014,229.3828 676.4082,229.3828 Q677.1138,229.3828 677.7612,229.5322 Q678.4087,229.6816 678.9731,229.9805 L678.9731,232.7031 Q678.3423,232.1221 677.7488,231.8523 Q677.1553,231.5825 676.5244,231.5825 Q675.1797,231.5825 674.4949,232.6492 Q673.8101,233.7158 673.8101,235.8159 Q673.8101,237.9077 674.4949,238.9744 Q675.1797,240.041 676.5244,240.041 Q677.1553,240.041 677.7488,239.7712 Q678.3423,239.5015 678.9731,238.9204 Z "/><text fill="#000000" font-family="sans-serif" font-size="12" lengthAdjust="spacingAndGlyphs" textLength="87" x="690" y="240.5352">BonCommande</text><rect fill="#FEFECE" filter="url(#f1)" height="32" style="stroke: #A80036; stroke-width: 1.5;" width="92" x="566" y="76"/><ellipse cx="581" cy="92" fill="#ADD1B2" rx="11" ry="11" style="stroke: #A80036; stroke-width: 1.0;"/><path d="M583.9731,97.6431 Q583.3921,97.9419 582.7529,98.0913 Q582.1138,98.2407 581.4082,98.2407 Q578.9014,98.2407 577.5815,96.5889 Q576.2617,94.937 576.2617,91.8159 Q576.2617,88.6865 577.5815,87.0347 Q578.9014,85.3828 581.4082,85.3828 Q582.1138,85.3828 582.7612,85.5322 Q583.4087,85.6816 583.9731,85.9805 L583.9731,88.7031 Q583.3423,88.1221 582.7488,87.8523 Q582.1553,87.5825 581.5244,87.5825 Q580.1797,87.5825 579.4949,88.6492 Q578.8101,89.7158 578.8101,91.8159 Q578.8101,93.9077 579.4949,94.9744 Q580.1797,96.041 581.5244,96.041 Q582.1553,96.041 582.7488,95.7712 Q583.3423,95.5015 583.9731,94.9204 Z "/><text fill="#000000" font-family="sans-serif" font-size="12" lengthAdjust="spacingAndGlyphs" textLength="60" x="595" y="96.5352">Controleur</text><path d="M600,108 C579,136 537,192 516,220 " fill="none" style="stroke: #A80036; stroke-width: 1.0;"/><text fill="#000000" font-family="sans-serif" font-size="13" lengthAdjust="spacingAndGlyphs" textLength="8" x="530.9938" y="209.1628">1</text><path d="M566,96 C523,101 460,113 411,140 C375,161 343,198 327,220 " fill="none" style="stroke: #A80036; stroke-width: 1.0;"/><text fill="#000000" font-family="sans-serif" font-size="13" lengthAdjust="spacingAndGlyphs" textLength="8" x="342.2375" y="209.1628">1</text><path d="M566,94 C476,99 280,112 220,140 C181,159 148,198 131,220 " fill="none" style="stroke: #A80036; stroke-width: 1.0;"/><text fill="#000000" font-family="sans-serif" font-size="13" lengthAdjust="spacingAndGlyphs" textLength="8" x="145.75" y="209.1628">1</text><path d="M658,94 C742,99 916,112 968,140 C999,158 1024,193 1036,215 " fill="none" style="stroke: #A80036; stroke-width: 1.0;"/><polygon fill="#A80036" points="1039,220,1037.7976,210.2248,1036.4267,215.713,1030.9385,214.3421,1039,220" style="stroke: #A80036; stroke-width: 1.0;"/><text fill="#000000" font-family="sans-serif" font-size="13" lengthAdjust="spacingAndGlyphs" textLength="8" x="1032.1438" y="209.1348">1</text><path d="M658,99 C711,108 794,123 821,140 C850,160 872,193 884,215 " fill="none" style="stroke: #A80036; stroke-width: 1.0;"/><polygon fill="#A80036" points="887,220,885.799,210.2246,884.4273,215.7127,878.9393,214.3409,887,220" style="stroke: #A80036; stroke-width: 1.0;"/><text fill="#000000" font-family="sans-serif" font-size="13" lengthAdjust="spacingAndGlyphs" textLength="6" x="881.1438" y="209.1348">*</text><path d="M624,108 C644,135 683,187 705,216 " fill="none" style="stroke: #A80036; stroke-width: 1.0;"/><polygon fill="#A80036" points="708,220,705.8,210.4,705,216,699.4,215.2,708,220" style="stroke: #A80036; stroke-width: 1.0;"/><text fill="#000000" font-family="sans-serif" font-size="13" lengthAdjust="spacingAndGlyphs" textLength="6" x="700.0094" y="209.1348">*</text></g></svg>