<?xml version="1.0" encoding="UTF-8" standalone="yes"?><svg xmlns="http://www.w3.org/2000/svg" xmlns:xlink="http://www.w3.org/1999/xlink" height="383px" style="width:1230px;height:383px;" version="1.1" viewBox="0 0 1230 383" width="1230px"><defs><filter height="300%" id="f1" width="300%" x="-1" y="-1"><feGaussianBlur result="blurOut" stdDeviation="2.0"/><feColorMatrix in="blurOut" result="blurOut2" type="matrix" values="0 0 0 0 0 0 0 0 0 0 0 0 0 0 0 0 0 0 .4 0"/><feOffset dx="4.0" dy="4.0" in="blurOut2" result="blurOut3"/><feBlend in="SourceGraphic" in2="blurOut3" mode="normal"/></filter></defs><g><polygon fill="#FFFFFF" filter="url(#f1)" points="31,220,45,220,52,242.4883,642,242.4883,642,376,31,376,31,220" style="stroke: #000000; stroke-width: 2.0;"/><line style="stroke: #000000; stroke-width: 2.0;" x1="31" x2="52" y1="242.4883" y2="242.4883"/><text fill="#000000" font-family="sans-serif" font-size="14" font-weight="bold" lengthAdjust="spacingAndGlyphs" textLength="8" x="34" y="236.5352">v</text><polygon fill="#FFFFFF" filter="url(#f1)" points="682,220,702,220,709,242.4883,1223,242.4883,1223,376,682,376,682,220" style="stroke: #000000; stroke-width: 2.0;"/><line style="stroke: #000000; stroke-width: 2.0;" x1="682" x2="709" y1="242.4883" y2="242.4883"/><text fill="#000000" font-family="sans-serif" font-size="14" font-weight="bold" lengthAdjust="spacingAndGlyphs" textLength="14" x="685" y="236.5352">m</text><polygon fill="#FFFFFF" filter="url(#f1)" points="563,48,576,48,583,70.4883,724,70.4883,724,164,563,164,563,48" style="stroke: #000000; stroke-width: 2.0;"/><line style="stroke: #000000; stroke-width: 2.0;" x1="563" x2="583" y1="70.4883" y2="70.4883"/><text fill="#000000" font-family="sans-serif" font-size="14" font-weight="bold" lengthAdjust="spacingAndGlyphs" textLength="7" x="566" y="64.5352">c</text><rect fill="#FEFECE" filter="url(#f1)" height="32" style="stroke: #A80036; stroke-width: 1.5;" width="103" x="292" y="300"/><ellipse cx="307" cy="316" fill="#ADD1B2" rx="11" ry="11" style="stroke: #A80036; stroke-width: 1.0;"/><path d="M309.9731,321.6431 Q309.3921,321.9419 308.7529,322.0913 Q308.1138,322.2407 307.4082,322.2407 Q304.9014,322.2407 303.5815,320.5889 Q302.2617,318.937 302.2617,315.8159 Q302.2617,312.6865 303.5815,311.0347 Q304.9014,309.3828 307.4082,309.3828 Q308.1138,309.3828 308.7612,309.5322 Q309.4087,309.6816 309.9731,309.9805 L309.9731,312.7031 Q309.3423,312.1221 308.7488,311.8523 Q308.1553,311.5825 307.5244,311.5825 Q306.1797,311.5825 305.4949,312.6492 Q304.8101,313.7158 304.8101,315.8159 Q304.8101,317.9077 305.4949,318.9744 Q306.1797,320.041 307.5244,320.041 Q308.1553,320.041 308.7488,319.7712 Q309.3423,319.5015 309.9731,318.9204 Z "/><text fill="#000000" font-family="sans-serif" font-size="12" lengthAdjust="spacingAndGlyphs" textLength="71" x="321" y="320.5352">MainWindow</text><rect fill="#FEFECE" filter="url(#f1)" height="32" style="stroke: #A80036; stroke-width: 1.5;" width="108" x="100" y="300"/><ellipse cx="115" cy="316" fill="#ADD1B2" rx="11" ry="11" style="stroke: #A80036; stroke-width: 1.0;"/><path d="M117.9731,321.6431 Q117.3921,321.9419 116.7529,322.0913 Q116.1138,322.2407 115.4082,322.2407 Q112.9014,322.2407 111.5815,320.5889 Q110.2617,318.937 110.2617,315.8159 Q110.2617,312.6865 111.5815,311.0347 Q112.9014,309.3828 115.4082,309.3828 Q116.1138,309.3828 116.7612,309.5322 Q117.4087,309.6816 117.9731,309.9805 L117.9731,312.7031 Q117.3423,312.1221 116.7488,311.8523 Q116.1553,311.5825 115.5244,311.5825 Q114.1797,311.5825 113.4949,312.6492 Q112.8101,313.7158 112.8101,315.8159 Q112.8101,317.9077 113.4949,318.9744 Q114.1797,320.041 115.5244,320.041 Q116.1553,320.041 116.7488,319.7712 Q117.3423,319.5015 117.9731,318.9204 Z "/><text fill="#000000" font-family="sans-serif" font-size="12" lengthAdjust="spacingAndGlyphs" textLength="76" x="129" y="320.5352">ClientWindow</text><rect fill="#FEFECE" filter="url(#f1)" height="32" style="stroke: #A80036; stroke-width: 1.5;" width="116" x="478" y="300"/><ellipse cx="493" cy="316" fill="#ADD1B2" rx="11" ry="11" style="stroke: #A80036; stroke-width: 1.0;"/><path d="M495.9731,321.6431 Q495.3921,321.9419 494.7529,322.0913 Q494.1138,322.2407 493.4082,322.2407 Q490.9014,322.2407 489.5815,320.5889 Q488.2617,318.937 488.2617,315.8159 Q488.2617,312.6865 489.5815,311.0347 Q490.9014,309.3828 493.4082,309.3828 Q494.1138,309.3828 494.7612,309.5322 Q495.4087,309.6816 495.9731,309.9805 L495.9731,312.7031 Q495.3423,312.1221 494.7488,311.8523 Q494.1553,311.5825 493.5244,311.5825 Q492.1797,311.5825 491.4949,312.6492 Q490.8101,313.7158 490.8101,315.8159 Q490.8101,317.9077 491.4949,318.9744 Q492.1797,320.041 493.5244,320.041 Q494.1553,320.041 494.7488,319.7712 Q495.3423,319.5015 495.9731,318.9204 Z "/><text fill="#000000" font-family="sans-serif" font-size="12" lengthAdjust="spacingAndGlyphs" textLength="84" x="507" y="320.5352">HistoryWindow</text><rect fill="#FEFECE" filter="url(#f1)" height="32" style="stroke: #A80036; stroke-width: 1.5;" width="64" x="751" y="300"/><ellipse cx="766" cy="316" fill="#ADD1B2" rx="11" ry="11" style="stroke: #A80036; stroke-width: 1.0;"/><path d="M768.9731,321.6431 Q768.3921,321.9419 767.7529,322.0913 Q767.1138,322.2407 766.4082,322.2407 Q763.9014,322.2407 762.5815,320.5889 Q761.2617,318.937 761.2617,315.8159 Q761.2617,312.6865 762.5815,311.0347 Q763.9014,309.3828 766.4082,309.3828 Q767.1138,309.3828 767.7612,309.5322 Q768.4087,309.6816 768.9731,309.9805 L768.9731,312.7031 Q768.3423,312.1221 767.7488,311.8523 Q767.1553,311.5825 766.5244,311.5825 Q765.1797,311.5825 764.4949,312.6492 Q763.8101,313.7158 763.8101,315.8159 Q763.8101,317.9077 764.4949,318.9744 Q765.1797,320.041 766.5244,320.041 Q767.1553,320.041 767.7488,319.7712 Q768.3423,319.5015 768.9731,318.9204 Z "/><text fill="#000000" font-family="sans-serif" font-size="12" lengthAdjust="spacingAndGlyphs" textLength="32" x="780" y="320.5352">Client</text><rect fill="#FEFECE" filter="url(#f1)" height="32" style="stroke: #A80036; stroke-width: 1.5;" width="74" x="898" y="300"/><ellipse cx="913" cy="316" fill="#ADD1B2" rx="11" ry="11" style="stroke: #A80036; stroke-width: 1.0;"/><path d="M915.9731,321.6431 Q915.3921,321.9419 914.7529,322.0913 Q914.1138,322.2407 913.4082,322.2407 Q910.9014,322.2407 909.5815,320.5889 Q908.2617,318.937 908.2617,315.8159 Q908.2617,312.6865 909.5815,311.0347 Q910.9014,309.3828 913.4082,309.3828 Q914.1138,309.3828 914.7612,309.5322 Q915.4087,309.6816 915.9731,309.9805 L915.9731,312.7031 Q915.3423,312.1221 914.7488,311.8523 Q914.1553,311.5825 913.5244,311.5825 Q912.1797,311.5825 911.4949,312.6492 Q910.8101,313.7158 910.8101,315.8159 Q910.8101,317.9077 911.4949,318.9744 Q912.1797,320.041 913.5244,320.041 Q914.1553,320.041 914.7488,319.7712 Q915.3423,319.5015 915.9731,318.9204 Z "/><text fill="#000000" font-family="sans-serif" font-size="12" lengthAdjust="spacingAndGlyphs" textLength="42" x="927" y="320.5352">Facture</text><rect fill="#FEFECE" filter="url(#f1)" height="32" style="stroke: #A80036; stroke-width: 1.5;" width="119" x="1056" y="300"/><ellipse cx="1071" cy="316" fill="#ADD1B2" rx="11" ry="11" style="stroke: #A80036; stroke-width: 1.0;"/><path d="M1073.9731,321.6431 Q1073.3921,321.9419 1072.7529,322.0913 Q1072.1138,322.2407 1071.4082,322.2407 Q1068.9014,322.2407 1067.5815,320.5889 Q1066.2617,318.937 1066.2617,315.8159 Q1066.2617,312.6865 1067.5815,311.0347 Q1068.9014,309.3828 1071.4082,309.3828 Q1072.1138,309.3828 1072.7612,309.5322 Q1073.4087,309.6816 1073.9731,309.9805 L1073.9731,312.7031 Q1073.3423,312.1221 1072.7488,311.8523 Q1072.1553,311.5825 1071.5244,311.5825 Q1070.1797,311.5825 1069.4949,312.6492 Q1068.8101,313.7158 1068.8101,315.8159 Q1068.8101,317.9077 1069.4949,318.9744 Q1070.1797,320.041 1071.5244,320.041 Q1072.1553,320.041 1072.7488,319.7712 Q1073.3423,319.5015 1073.9731,318.9204 Z "/><text fill="#000000" font-family="sans-serif" font-size="12" lengthAdjust="spacingAndGlyphs" textLength="87" x="1085" y="320.5352">BonCommande</text><rect fill="#FEFECE" filter="url(#f1)" height="32" style="stroke: #A80036; stroke-width: 1.5;" width="92" x="608" y="108"/><ellipse cx="623" cy="124" fill="#ADD1B2" rx="11" ry="11" style="stroke: #A80036; stroke-width: 1.0;"/><path d="M625.9731,129.6431 Q625.3921,129.9419 624.7529,130.0913 Q624.1138,130.2407 623.4082,130.2407 Q620.9014,130.2407 619.5815,128.5889 Q618.2617,126.937 618.2617,123.8159 Q618.2617,120.6865 619.5815,119.0347 Q620.9014,117.3828 623.4082,117.3828 Q624.1138,117.3828 624.7612,117.5322 Q625.4087,117.6816 625.9731,117.9805 L625.9731,120.7031 Q625.3423,120.1221 624.7488,119.8523 Q624.1553,119.5825 623.5244,119.5825 Q622.1797,119.5825 621.4949,120.6492 Q620.8101,121.7158 620.8101,123.8159 Q620.8101,125.9077 621.4949,126.9744 Q622.1797,128.041 623.5244,128.041 Q624.1553,128.041 624.7488,127.7712 Q625.3423,127.5015 625.9731,126.9204 Z "/><text fill="#000000" font-family="sans-serif" font-size="12" lengthAdjust="spacingAndGlyphs" textLength="60" x="637" y="128.5352">Controleur</text><path d="M645,140 C636,154 622,172 604,180 C570,196 469,171 437,188 C390,213 361,272 349,300 " fill="none" style="stroke: #A80036; stroke-width: 1.0;"/><text fill="#000000" font-family="sans-serif" font-size="13" lengthAdjust="spacingAndGlyphs" textLength="8" x="357.8094" y="289.2518">1</text><path d="M645,140 C636,154 622,172 604,180 C568,197 284,171 250,188 C203,212 173,271 160,300 " fill="none" style="stroke: #A80036; stroke-width: 1.0;"/><text fill="#000000" font-family="sans-serif" font-size="13" lengthAdjust="spacingAndGlyphs" textLength="8" x="169.775" y="289.3512">1</text><path d="M644,140 C622,176 568,264 546,300 " fill="none" style="stroke: #A80036; stroke-width: 1.0;"/><text fill="#000000" font-family="sans-serif" font-size="13" lengthAdjust="spacingAndGlyphs" textLength="8" x="557.425" y="289.3512">1</text><path d="M700,130 C744,137 810,153 856,188 C892,217 916,267 927,295 " fill="none" style="stroke: #A80036; stroke-width: 1.0;"/><polygon fill="#A80036" points="929,300,929.3714,290.1581,927.143,295.3576,921.9436,293.1293,929,300" style="stroke: #A80036; stroke-width: 1.0;"/><text fill="#000000" font-family="sans-serif" font-size="13" lengthAdjust="spacingAndGlyphs" textLength="8" x="924.9688" y="289.1348">1</text><path d="M675,140 C690,152 709,170 723,188 C747,222 767,268 776,295 " fill="none" style="stroke: #A80036; stroke-width: 1.0;"/><polygon fill="#A80036" points="778,300,778.3714,290.1581,776.143,295.3576,770.9436,293.1293,778,300" style="stroke: #A80036; stroke-width: 1.0;"/><text fill="#000000" font-family="sans-serif" font-size="13" lengthAdjust="spacingAndGlyphs" textLength="6" x="775.175" y="289.1348">*</text><path d="M700,128 C785,137 961,157 1013,188 C1057,215 1089,266 1105,296 " fill="none" style="stroke: #A80036; stroke-width: 1.0;"/><polygon fill="#A80036" points="1107,300,1106.5528,290.1613,1104.7639,295.5279,1099.3974,293.739,1107,300" style="stroke: #A80036; stroke-width: 1.0;"/><text fill="#000000" font-family="sans-serif" font-size="13" lengthAdjust="spacingAndGlyphs" textLength="6" x="1102.2469" y="289.1348">*</text><path d="M59,220 C63,208 69,197 78,188 C115,154 479,131 558,124 " fill="none" style="stroke: #A80036; stroke-width: 1.0; stroke-dasharray: 7.0,7.0;"/><polygon fill="#A80036" points="563,124,554,120,558,124,554,128,563,124" style="stroke: #A80036; stroke-width: 1.0;"/><path d="M563,124 C495,128 82,152 43,188 C11,220 16,279 28,304 " fill="none" style="stroke: #A80036; stroke-width: 1.0; stroke-dasharray: 7.0,7.0;"/><polygon fill="#A80036" points="31,308,28.8,298.4,28,304,22.4,303.2,31,308" style="stroke: #A80036; stroke-width: 1.0;"/><path d="M580,164 C583,170 587,176 592,180 C606,193 619,177 634,188 C658,208 673,241 681,268 " fill="none" style="stroke: #A80036; stroke-width: 1.0; stroke-dasharray: 7.0,7.0;"/><polygon fill="#A80036" points="682,273,684.1584,263.3906,681.02,268.097,676.3135,264.9586,682,273" style="stroke: #A80036; stroke-width: 1.0;"/></g></svg>