<?xml version="1.0" encoding="UTF-8" standalone="no"?><svg xmlns="http://www.w3.org/2000/svg" xmlns:xlink="http://www.w3.org/1999/xlink" contentScriptType="application/ecmascript" contentStyleType="text/css" height="226px" preserveAspectRatio="none" style="width:724px;height:226px;" version="1.1" viewBox="0 0 724 226" width="724px" zoomAndPan="magnify"><defs><filter height="300%" id="f1y2ew6px3732n" width="300%" x="-1" y="-1"><feGaussianBlur result="blurOut" stdDeviation="2.0"/><feColorMatrix in="blurOut" result="blurOut2" type="matrix" values="0 0 0 0 0 0 0 0 0 0 0 0 0 0 0 0 0 0 .4 0"/><feOffset dx="4.0" dy="4.0" in="blurOut2" result="blurOut3"/><feBlend in="SourceGraphic" in2="blurOut3" mode="normal"/></filter></defs><g><!--cluster v--><polygon fill="#FFFFFF" filter="url(#f1y2ew6px3732n)" points="253,55,267,55,274,77.4883,702,77.4883,702,122,253,122,253,55" style="stroke: #000000; stroke-width: 1.5;"/><line style="stroke: #000000; stroke-width: 1.5;" x1="253" x2="274" y1="77.4883" y2="77.4883"/><text fill="#000000" font-family="sans-serif" font-size="14" font-weight="bold" lengthAdjust="spacingAndGlyphs" textLength="8" x="257" y="70.5352">v</text><!--cluster m--><polygon fill="#FFFFFF" filter="url(#f1y2ew6px3732n)" points="14,147,34,147,41,169.4883,393,169.4883,393,214,14,214,14,147" style="stroke: #000000; stroke-width: 1.5;"/><line style="stroke: #000000; stroke-width: 1.5;" x1="14" x2="41" y1="169.4883" y2="169.4883"/><text fill="#000000" font-family="sans-serif" font-size="14" font-weight="bold" lengthAdjust="spacingAndGlyphs" textLength="14" x="18" y="162.5352">m</text><!--cluster c--><polygon fill="#FFFFFF" filter="url(#f1y2ew6px3732n)" points="91,55,104,55,111,77.4883,234,77.4883,234,122,91,122,91,55" style="stroke: #000000; stroke-width: 1.5;"/><line style="stroke: #000000; stroke-width: 1.5;" x1="91" x2="111" y1="77.4883" y2="77.4883"/><text fill="#000000" font-family="sans-serif" font-size="14" font-weight="bold" lengthAdjust="spacingAndGlyphs" textLength="7" x="95" y="70.5352">c</text><!--class MainWindow--><rect fill="#FEFECE" filter="url(#f1y2ew6px3732n)" height="32" id="MainWindow" style="stroke: #A80036; stroke-width: 1.5;" width="103" x="590.5" y="82"/><ellipse cx="605.5" cy="98" fill="#ADD1B2" rx="11" ry="11" style="stroke: #A80036; stroke-width: 1.0;"/><path d="M607.9731,104.1431 Q607.3921,104.4419 606.7529,104.5913 Q606.1138,104.7407 605.4082,104.7407 Q602.9014,104.7407 601.5815,103.0889 Q600.2617,101.437 600.2617,98.3159 Q600.2617,95.1865 601.5815,93.5347 Q602.9014,91.8828 605.4082,91.8828 Q606.1138,91.8828 606.7612,92.0322 Q607.4087,92.1816 607.9731,92.4805 L607.9731,95.2031 Q607.3423,94.6221 606.7488,94.3523 Q606.1553,94.0825 605.5244,94.0825 Q604.1797,94.0825 603.4949,95.1492 Q602.8101,96.2158 602.8101,98.3159 Q602.8101,100.4077 603.4949,101.4744 Q604.1797,102.541 605.5244,102.541 Q606.1553,102.541 606.7488,102.2712 Q607.3423,102.0015 607.9731,101.4204 Z "/><text fill="#000000" font-family="sans-serif" font-size="12" lengthAdjust="spacingAndGlyphs" textLength="71" x="619.5" y="102.5352">MainWindow</text><!--class ClientWindow--><rect fill="#FEFECE" filter="url(#f1y2ew6px3732n)" height="32" id="ClientWindow" style="stroke: #A80036; stroke-width: 1.5;" width="108" x="447" y="82"/><ellipse cx="462" cy="98" fill="#ADD1B2" rx="11" ry="11" style="stroke: #A80036; stroke-width: 1.0;"/><path d="M464.4731,104.1431 Q463.8921,104.4419 463.2529,104.5913 Q462.6138,104.7407 461.9082,104.7407 Q459.4014,104.7407 458.0815,103.0889 Q456.7617,101.437 456.7617,98.3159 Q456.7617,95.1865 458.0815,93.5347 Q459.4014,91.8828 461.9082,91.8828 Q462.6138,91.8828 463.2612,92.0322 Q463.9087,92.1816 464.4731,92.4805 L464.4731,95.2031 Q463.8423,94.6221 463.2488,94.3523 Q462.6553,94.0825 462.0244,94.0825 Q460.6797,94.0825 459.9949,95.1492 Q459.3101,96.2158 459.3101,98.3159 Q459.3101,100.4077 459.9949,101.4744 Q460.6797,102.541 462.0244,102.541 Q462.6553,102.541 463.2488,102.2712 Q463.8423,102.0015 464.4731,101.4204 Z "/><text fill="#000000" font-family="sans-serif" font-size="12" lengthAdjust="spacingAndGlyphs" textLength="76" x="476" y="102.5352">ClientWindow</text><!--class HistoryWindow--><rect fill="#FEFECE" filter="url(#f1y2ew6px3732n)" height="32" id="HistoryWindow" style="stroke: #A80036; stroke-width: 1.5;" width="116" x="296" y="82"/><ellipse cx="311" cy="98" fill="#ADD1B2" rx="11" ry="11" style="stroke: #A80036; stroke-width: 1.0;"/><path d="M313.4731,104.1431 Q312.8921,104.4419 312.2529,104.5913 Q311.6138,104.7407 310.9082,104.7407 Q308.4014,104.7407 307.0815,103.0889 Q305.7617,101.437 305.7617,98.3159 Q305.7617,95.1865 307.0815,93.5347 Q308.4014,91.8828 310.9082,91.8828 Q311.6138,91.8828 312.2612,92.0322 Q312.9087,92.1816 313.4731,92.4805 L313.4731,95.2031 Q312.8423,94.6221 312.2488,94.3523 Q311.6553,94.0825 311.0244,94.0825 Q309.6797,94.0825 308.9949,95.1492 Q308.3101,96.2158 308.3101,98.3159 Q308.3101,100.4077 308.9949,101.4744 Q309.6797,102.541 311.0244,102.541 Q311.6553,102.541 312.2488,102.2712 Q312.8423,102.0015 313.4731,101.4204 Z "/><text fill="#000000" font-family="sans-serif" font-size="12" lengthAdjust="spacingAndGlyphs" textLength="84" x="325" y="102.5352">HistoryWindow</text><!--class Client--><rect fill="#FEFECE" filter="url(#f1y2ew6px3732n)" height="32" id="Client" style="stroke: #A80036; stroke-width: 1.5;" width="64" x="212" y="174"/><ellipse cx="227" cy="190" fill="#ADD1B2" rx="11" ry="11" style="stroke: #A80036; stroke-width: 1.0;"/><path d="M229.4731,196.1431 Q228.8921,196.4419 228.2529,196.5913 Q227.6138,196.7407 226.9082,196.7407 Q224.4014,196.7407 223.0815,195.0889 Q221.7617,193.437 221.7617,190.3159 Q221.7617,187.1865 223.0815,185.5347 Q224.4014,183.8828 226.9082,183.8828 Q227.6138,183.8828 228.2612,184.0322 Q228.9087,184.1816 229.4731,184.4805 L229.4731,187.2031 Q228.8423,186.6221 228.2488,186.3523 Q227.6553,186.0825 227.0244,186.0825 Q225.6797,186.0825 224.9949,187.1492 Q224.3101,188.2158 224.3101,190.3159 Q224.3101,192.4077 224.9949,193.4744 Q225.6797,194.541 227.0244,194.541 Q227.6553,194.541 228.2488,194.2712 Q228.8423,194.0015 229.4731,193.4204 Z "/><text fill="#000000" font-family="sans-serif" font-size="12" lengthAdjust="spacingAndGlyphs" textLength="32" x="241" y="194.5352">Client</text><!--class Facture--><rect fill="#FEFECE" filter="url(#f1y2ew6px3732n)" height="32" id="Facture" style="stroke: #A80036; stroke-width: 1.5;" width="74" x="311" y="174"/><ellipse cx="326" cy="190" fill="#ADD1B2" rx="11" ry="11" style="stroke: #A80036; stroke-width: 1.0;"/><path d="M328.4731,196.1431 Q327.8921,196.4419 327.2529,196.5913 Q326.6138,196.7407 325.9082,196.7407 Q323.4014,196.7407 322.0815,195.0889 Q320.7617,193.437 320.7617,190.3159 Q320.7617,187.1865 322.0815,185.5347 Q323.4014,183.8828 325.9082,183.8828 Q326.6138,183.8828 327.2612,184.0322 Q327.9087,184.1816 328.4731,184.4805 L328.4731,187.2031 Q327.8423,186.6221 327.2488,186.3523 Q326.6553,186.0825 326.0244,186.0825 Q324.6797,186.0825 323.9949,187.1492 Q323.3101,188.2158 323.3101,190.3159 Q323.3101,192.4077 323.9949,193.4744 Q324.6797,194.541 326.0244,194.541 Q326.6553,194.541 327.2488,194.2712 Q327.8423,194.0015 328.4731,193.4204 Z "/><text fill="#000000" font-family="sans-serif" font-size="12" lengthAdjust="spacingAndGlyphs" textLength="42" x="340" y="194.5352">Facture</text><!--class BonCommande--><rect fill="#FEFECE" filter="url(#f1y2ew6px3732n)" height="32" id="BonCommande" style="stroke: #A80036; stroke-width: 1.5;" width="119" x="57.5" y="174"/><ellipse cx="72.5" cy="190" fill="#ADD1B2" rx="11" ry="11" style="stroke: #A80036; stroke-width: 1.0;"/><path d="M74.9731,196.1431 Q74.3921,196.4419 73.7529,196.5913 Q73.1138,196.7407 72.4082,196.7407 Q69.9014,196.7407 68.5815,195.0889 Q67.2617,193.437 67.2617,190.3159 Q67.2617,187.1865 68.5815,185.5347 Q69.9014,183.8828 72.4082,183.8828 Q73.1138,183.8828 73.7612,184.0322 Q74.4087,184.1816 74.9731,184.4805 L74.9731,187.2031 Q74.3423,186.6221 73.7488,186.3523 Q73.1553,186.0825 72.5244,186.0825 Q71.1797,186.0825 70.4949,187.1492 Q69.8101,188.2158 69.8101,190.3159 Q69.8101,192.4077 70.4949,193.4744 Q71.1797,194.541 72.5244,194.541 Q73.1553,194.541 73.7488,194.2712 Q74.3423,194.0015 74.9731,193.4204 Z "/><text fill="#000000" font-family="sans-serif" font-size="12" lengthAdjust="spacingAndGlyphs" textLength="87" x="86.5" y="194.5352">BonCommande</text><!--class Controleur--><rect fill="#FEFECE" filter="url(#f1y2ew6px3732n)" height="32" id="Controleur" style="stroke: #A80036; stroke-width: 1.5;" width="92" x="134" y="82"/><ellipse cx="149" cy="98" fill="#ADD1B2" rx="11" ry="11" style="stroke: #A80036; stroke-width: 1.0;"/><path d="M151.4731,104.1431 Q150.8921,104.4419 150.2529,104.5913 Q149.6138,104.7407 148.9082,104.7407 Q146.4014,104.7407 145.0815,103.0889 Q143.7617,101.437 143.7617,98.3159 Q143.7617,95.1865 145.0815,93.5347 Q146.4014,91.8828 148.9082,91.8828 Q149.6138,91.8828 150.2612,92.0322 Q150.9087,92.1816 151.4731,92.4805 L151.4731,95.2031 Q150.8423,94.6221 150.2488,94.3523 Q149.6553,94.0825 149.0244,94.0825 Q147.6797,94.0825 146.9949,95.1492 Q146.3101,96.2158 146.3101,98.3159 Q146.3101,100.4077 146.9949,101.4744 Q147.6797,102.541 149.0244,102.541 Q149.6553,102.541 150.2488,102.2712 Q150.8423,102.0015 151.4731,101.4204 Z "/><text fill="#000000" font-family="sans-serif" font-size="12" lengthAdjust="spacingAndGlyphs" textLength="60" x="163" y="102.5352">Controleur</text><!--link Controleur to MainWindow--><path d="M192.1513,81.7688 C206.6252,63.9339 232.6333,36.3167 262.5,25 C323.3869,1.9296 494.3471,2.6442 555.5,25 C586.3213,36.2674 613.7407,63.8997 629.0806,81.7509 " fill="none" id="Controleur-MainWindow" style="stroke: #A80036; stroke-width: 1.0;"/><text fill="#000000" font-family="sans-serif" font-size="13" lengthAdjust="spacingAndGlyphs" textLength="8" x="615.2646" y="71.2089">1</text><!--link Controleur to ClientWindow--><path d="M192.1513,81.7688 C206.6252,63.9339 232.6333,36.3167 262.5,25 C324.8415,1.3784 349.7584,2.4625 412.5,25 C443.8032,36.2445 471.9269,63.8838 487.6982,81.7426 " fill="none" id="Controleur-ClientWindow" style="stroke: #A80036; stroke-width: 1.0;"/><text fill="#000000" font-family="sans-serif" font-size="13" lengthAdjust="spacingAndGlyphs" textLength="8" x="484.5007" y="71.1977">1</text><!--link Controleur to HistoryWindow--><path d="M226.172,98 C247.5162,98 273.1006,98 295.7543,98 " fill="none" id="Controleur-HistoryWindow" style="stroke: #A80036; stroke-width: 1.0;"/><text fill="#000000" font-family="sans-serif" font-size="13" lengthAdjust="spacingAndGlyphs" textLength="8" x="280.1681" y="94.6732">1</text><!--link Controleur to Facture--><path d="M224.925,114.0953 C246.4813,122.6142 272.2791,134.003 294,147 C305.3379,153.7842 316.9256,162.7002 326.4451,170.6536 " fill="none" id="Controleur-Facture" style="stroke: #A80036; stroke-width: 1.0;"/><polygon fill="#A80036" points="330.3915,173.9943,326.1067,165.1264,326.5753,170.7638,320.9378,171.2323,330.3915,173.9943" style="stroke: #A80036; stroke-width: 1.0;"/><text fill="#000000" font-family="sans-serif" font-size="13" lengthAdjust="spacingAndGlyphs" textLength="8" x="314.6935" y="163.2441">1</text><!--link Controleur to Client--><path d="M191.1479,114.0252 C201.911,129.497 218.2484,152.982 229.9078,169.7425 " fill="none" id="Controleur-Client" style="stroke: #A80036; stroke-width: 1.0;"/><polygon fill="#A80036" points="232.7651,173.8498,230.9092,164.1774,229.9098,169.7452,224.342,168.7458,232.7651,173.8498" style="stroke: #A80036; stroke-width: 1.0;"/><text fill="#000000" font-family="sans-serif" font-size="13" lengthAdjust="spacingAndGlyphs" textLength="6" x="221.8719" y="163.3418">*</text><!--link Controleur to BonCommande--><path d="M169.0262,114.0252 C158.5212,129.3659 142.6214,152.5846 131.1648,169.3149 " fill="none" id="Controleur-BonCommande" style="stroke: #A80036; stroke-width: 1.0;"/><polygon fill="#A80036" points="128.0594,173.8498,136.4447,168.6839,130.8843,169.7243,129.8439,164.164,128.0594,173.8498" style="stroke: #A80036; stroke-width: 1.0;"/><text fill="#000000" font-family="sans-serif" font-size="13" lengthAdjust="spacingAndGlyphs" textLength="6" x="124.8298" y="163.3418">*</text><!--link v to c--><path d="M252.8828,63.4643 C252.8388,63.3447 252.7947,63.225 252.7503,63.1053 C252.6615,62.866 252.5718,62.6263 252.4812,62.3865 C252.1189,61.4273 251.7419,60.4652 251.3498,59.5023 C250.5655,57.5766 249.7206,55.6482 248.8109,53.7355 C246.9914,49.9103 244.9124,46.1481 242.5395,42.5967 C237.7937,35.4939 231.8722,29.2344 224.5,25 C189.8143,5.0776 169.1857,5.0776 134.5,25 C127.1678,29.2114 121.3224,35.4588 116.6698,42.5563 C114.3435,46.1051 112.3153,49.8664 110.5486,53.6921 C110.4382,53.9312 110.3288,54.1706 110.2204,54.4102 C110.1662,54.53 110.1122,54.6498 110.0585,54.7697 " fill="none" id="v-c" style="stroke: #A80036; stroke-width: 1.0; stroke-dasharray: 7.0,7.0;"/><polygon fill="#A80036" points="110.0585,54.7697,117.3876,48.1906,112.1021,50.2064,110.0863,44.9209,110.0585,54.7697" style="stroke: #A80036; stroke-width: 1.0;"/><!--link c to v--><path d="M110.0585,54.7697 C110.1122,54.6498 110.1662,54.53 110.2204,54.4102 C110.3288,54.1706 110.4382,53.9312 110.5486,53.6921 C112.3153,49.8664 114.3435,46.1051 116.6698,42.5563 C121.3224,35.4588 127.1678,29.2114 134.5,25 C169.1857,5.0776 189.8143,5.0776 224.5,25 C231.8722,29.2344 237.7937,35.4939 242.5395,42.5967 C244.9124,46.1481 246.9914,49.9103 248.8109,53.7355 C249.7206,55.6482 250.5655,57.5766 251.3498,59.5023 C251.7419,60.4652 252.1189,61.4273 252.4812,62.3865 C252.5718,62.6263 252.6615,62.866 252.7503,63.1053 C252.7947,63.225 252.8388,63.3447 252.8828,63.4643 " fill="none" id="c-v" style="stroke: #A80036; stroke-width: 1.0; stroke-dasharray: 7.0,7.0;"/><polygon fill="#A80036" points="252.8828,63.4643,253.5334,53.6369,251.1584,58.771,246.0242,56.396,252.8828,63.4643" style="stroke: #A80036; stroke-width: 1.0;"/><!--link c to m--><path d="M90.841,102.9271 C90.777,102.9676 90.7127,103.0084 90.6482,103.0493 C90.519,103.1312 90.3887,103.2141 90.2572,103.2978 C86.0494,105.9773 80.6467,109.5857 74.7853,113.9195 C68.9239,118.2533 62.6037,123.3125 56.5608,128.8937 C53.5393,131.6844 50.5872,134.6055 47.7964,137.6317 C46.401,139.1447 45.0459,140.6841 43.7427,142.2466 C43.0911,143.0278 42.4524,143.8148 41.8282,144.6072 C41.516,145.0033 41.2075,145.4009 40.9027,145.7997 C40.7504,145.9991 40.5989,146.1988 40.4485,146.3989 C40.3732,146.4989 40.2982,146.599 40.2235,146.6992 C40.1861,146.7493 40.1488,146.7994 40.1116,146.8495 " fill="none" id="c-m" style="stroke: #A80036; stroke-width: 1.0; stroke-dasharray: 7.0,7.0;"/><polygon fill="#A80036" points="40.1116,146.8495,48.6901,142.0113,43.0937,142.8362,42.2688,137.2398,40.1116,146.8495" style="stroke: #A80036; stroke-width: 1.0;"/><!--
@startuml
hide methods
hide attributes

package v{
	class MainWindow
	class ClientWindow
	class HistoryWindow
}
package m{
  class Client
  class Facture
  class BonCommande
}
package c{
	class Controleur {
	}
}
Controleur - "1" MainWindow
Controleur - "1" ClientWindow
Controleur - "1" HistoryWindow
Controleur -> "1" Facture
Controleur -> "*" Client
Controleur -> "*" BonCommande

v ..> c
c ..> v
c ..> m

@enduml

PlantUML version 1.2018.13(Mon Nov 26 18:11:51 CET 2018)
(APACHE source distribution)
Java Runtime: Java(TM) SE Runtime Environment
JVM: Java HotSpot(TM) 64-Bit Server VM
Java Version: 1.8.0_152-b16
Operating System: Mac OS X
OS Version: 10.14.4
Default Encoding: UTF-8
Language: fr
Country: FR
--></g></svg>