<?xml version="1.0" encoding="UTF-8" standalone="yes"?><svg xmlns="http://www.w3.org/2000/svg" xmlns:xlink="http://www.w3.org/1999/xlink" height="277px" style="width:937px;height:277px;" version="1.1" viewBox="0 0 937 277" width="937px"><defs><filter height="300%" id="f1" width="300%" x="-1" y="-1"><feGaussianBlur result="blurOut" stdDeviation="2.0"/><feColorMatrix in="blurOut" result="blurOut2" type="matrix" values="0 0 0 0 0 0 0 0 0 0 0 0 0 0 0 0 0 0 .4 0"/><feOffset dx="4.0" dy="4.0" in="blurOut2" result="blurOut3"/><feBlend in="SourceGraphic" in2="blurOut3" mode="normal"/></filter></defs><g><polygon fill="#FFFFFF" filter="url(#f1)" points="30,171,44,171,51,193.4883,495,193.4883,495,270,30,270,30,171" style="stroke: #000000; stroke-width: 2.0;"/><line style="stroke: #000000; stroke-width: 2.0;" x1="30" x2="51" y1="193.4883" y2="193.4883"/><text fill="#000000" font-family="sans-serif" font-size="14" font-weight="bold" lengthAdjust="spacingAndGlyphs" textLength="8" x="34" y="186.5352">v</text><polygon fill="#FFFFFF" filter="url(#f1)" points="535,171,555,171,562,193.4883,930,193.4883,930,270,535,270,535,171" style="stroke: #000000; stroke-width: 2.0;"/><line style="stroke: #000000; stroke-width: 2.0;" x1="535" x2="562" y1="193.4883" y2="193.4883"/><text fill="#000000" font-family="sans-serif" font-size="14" font-weight="bold" lengthAdjust="spacingAndGlyphs" textLength="14" x="539" y="186.5352">m</text><polygon fill="#FFFFFF" filter="url(#f1)" points="422,32,435,32,442,54.4883,581,54.4883,581,131,422,131,422,32" style="stroke: #000000; stroke-width: 2.0;"/><line style="stroke: #000000; stroke-width: 2.0;" x1="422" x2="442" y1="54.4883" y2="54.4883"/><text fill="#000000" font-family="sans-serif" font-size="14" font-weight="bold" lengthAdjust="spacingAndGlyphs" textLength="7" x="426" y="47.5352">c</text><rect fill="#FEFECE" filter="url(#f1)" height="32" style="stroke: #A80036; stroke-width: 1.5;" width="103" x="216.5" y="214"/><ellipse cx="231.5" cy="230" fill="#ADD1B2" rx="11" ry="11" style="stroke: #A80036; stroke-width: 1.0;"/><path d="M234.4731,235.6431 Q233.8921,235.9419 233.2529,236.0913 Q232.6138,236.2407 231.9082,236.2407 Q229.4014,236.2407 228.0815,234.5889 Q226.7617,232.937 226.7617,229.8159 Q226.7617,226.6865 228.0815,225.0347 Q229.4014,223.3828 231.9082,223.3828 Q232.6138,223.3828 233.2612,223.5322 Q233.9087,223.6816 234.4731,223.9805 L234.4731,226.7031 Q233.8423,226.1221 233.2488,225.8523 Q232.6553,225.5825 232.0244,225.5825 Q230.6797,225.5825 229.9949,226.6492 Q229.3101,227.7158 229.3101,229.8159 Q229.3101,231.9077 229.9949,232.9744 Q230.6797,234.041 232.0244,234.041 Q232.6553,234.041 233.2488,233.7712 Q233.8423,233.5015 234.4731,232.9204 Z "/><text fill="#000000" font-family="sans-serif" font-size="12" lengthAdjust="spacingAndGlyphs" textLength="71" x="245.5" y="234.5352">MainWindow</text><rect fill="#FEFECE" filter="url(#f1)" height="32" style="stroke: #A80036; stroke-width: 1.5;" width="108" x="73" y="214"/><ellipse cx="88" cy="230" fill="#ADD1B2" rx="11" ry="11" style="stroke: #A80036; stroke-width: 1.0;"/><path d="M90.9731,235.6431 Q90.3921,235.9419 89.7529,236.0913 Q89.1138,236.2407 88.4082,236.2407 Q85.9014,236.2407 84.5815,234.5889 Q83.2617,232.937 83.2617,229.8159 Q83.2617,226.6865 84.5815,225.0347 Q85.9014,223.3828 88.4082,223.3828 Q89.1138,223.3828 89.7612,223.5322 Q90.4087,223.6816 90.9731,223.9805 L90.9731,226.7031 Q90.3423,226.1221 89.7488,225.8523 Q89.1553,225.5825 88.5244,225.5825 Q87.1797,225.5825 86.4949,226.6492 Q85.8101,227.7158 85.8101,229.8159 Q85.8101,231.9077 86.4949,232.9744 Q87.1797,234.041 88.5244,234.041 Q89.1553,234.041 89.7488,233.7712 Q90.3423,233.5015 90.9731,232.9204 Z "/><text fill="#000000" font-family="sans-serif" font-size="12" lengthAdjust="spacingAndGlyphs" textLength="76" x="102" y="234.5352">ClientWindow</text><rect fill="#FEFECE" filter="url(#f1)" height="32" style="stroke: #A80036; stroke-width: 1.5;" width="116" x="355" y="214"/><ellipse cx="370" cy="230" fill="#ADD1B2" rx="11" ry="11" style="stroke: #A80036; stroke-width: 1.0;"/><path d="M372.9731,235.6431 Q372.3921,235.9419 371.7529,236.0913 Q371.1138,236.2407 370.4082,236.2407 Q367.9014,236.2407 366.5815,234.5889 Q365.2617,232.937 365.2617,229.8159 Q365.2617,226.6865 366.5815,225.0347 Q367.9014,223.3828 370.4082,223.3828 Q371.1138,223.3828 371.7612,223.5322 Q372.4087,223.6816 372.9731,223.9805 L372.9731,226.7031 Q372.3423,226.1221 371.7488,225.8523 Q371.1553,225.5825 370.5244,225.5825 Q369.1797,225.5825 368.4949,226.6492 Q367.8101,227.7158 367.8101,229.8159 Q367.8101,231.9077 368.4949,232.9744 Q369.1797,234.041 370.5244,234.041 Q371.1553,234.041 371.7488,233.7712 Q372.3423,233.5015 372.9731,232.9204 Z "/><text fill="#000000" font-family="sans-serif" font-size="12" lengthAdjust="spacingAndGlyphs" textLength="84" x="384" y="234.5352">HistoryWindow</text><rect fill="#FEFECE" filter="url(#f1)" height="32" style="stroke: #A80036; stroke-width: 1.5;" width="64" x="578" y="214"/><ellipse cx="593" cy="230" fill="#ADD1B2" rx="11" ry="11" style="stroke: #A80036; stroke-width: 1.0;"/><path d="M595.9731,235.6431 Q595.3921,235.9419 594.7529,236.0913 Q594.1138,236.2407 593.4082,236.2407 Q590.9014,236.2407 589.5815,234.5889 Q588.2617,232.937 588.2617,229.8159 Q588.2617,226.6865 589.5815,225.0347 Q590.9014,223.3828 593.4082,223.3828 Q594.1138,223.3828 594.7612,223.5322 Q595.4087,223.6816 595.9731,223.9805 L595.9731,226.7031 Q595.3423,226.1221 594.7488,225.8523 Q594.1553,225.5825 593.5244,225.5825 Q592.1797,225.5825 591.4949,226.6492 Q590.8101,227.7158 590.8101,229.8159 Q590.8101,231.9077 591.4949,232.9744 Q592.1797,234.041 593.5244,234.041 Q594.1553,234.041 594.7488,233.7712 Q595.3423,233.5015 595.9731,232.9204 Z "/><text fill="#000000" font-family="sans-serif" font-size="12" lengthAdjust="spacingAndGlyphs" textLength="32" x="607" y="234.5352">Client</text><rect fill="#FEFECE" filter="url(#f1)" height="32" style="stroke: #A80036; stroke-width: 1.5;" width="74" x="677" y="214"/><ellipse cx="692" cy="230" fill="#ADD1B2" rx="11" ry="11" style="stroke: #A80036; stroke-width: 1.0;"/><path d="M694.9731,235.6431 Q694.3921,235.9419 693.7529,236.0913 Q693.1138,236.2407 692.4082,236.2407 Q689.9014,236.2407 688.5815,234.5889 Q687.2617,232.937 687.2617,229.8159 Q687.2617,226.6865 688.5815,225.0347 Q689.9014,223.3828 692.4082,223.3828 Q693.1138,223.3828 693.7612,223.5322 Q694.4087,223.6816 694.9731,223.9805 L694.9731,226.7031 Q694.3423,226.1221 693.7488,225.8523 Q693.1553,225.5825 692.5244,225.5825 Q691.1797,225.5825 690.4949,226.6492 Q689.8101,227.7158 689.8101,229.8159 Q689.8101,231.9077 690.4949,232.9744 Q691.1797,234.041 692.5244,234.041 Q693.1553,234.041 693.7488,233.7712 Q694.3423,233.5015 694.9731,232.9204 Z "/><text fill="#000000" font-family="sans-serif" font-size="12" lengthAdjust="spacingAndGlyphs" textLength="42" x="706" y="234.5352">Facture</text><rect fill="#FEFECE" filter="url(#f1)" height="32" style="stroke: #A80036; stroke-width: 1.5;" width="119" x="786.5" y="214"/><ellipse cx="801.5" cy="230" fill="#ADD1B2" rx="11" ry="11" style="stroke: #A80036; stroke-width: 1.0;"/><path d="M804.4731,235.6431 Q803.8921,235.9419 803.2529,236.0913 Q802.6138,236.2407 801.9082,236.2407 Q799.4014,236.2407 798.0815,234.5889 Q796.7617,232.937 796.7617,229.8159 Q796.7617,226.6865 798.0815,225.0347 Q799.4014,223.3828 801.9082,223.3828 Q802.6138,223.3828 803.2612,223.5322 Q803.9087,223.6816 804.4731,223.9805 L804.4731,226.7031 Q803.8423,226.1221 803.2488,225.8523 Q802.6553,225.5825 802.0244,225.5825 Q800.6797,225.5825 799.9949,226.6492 Q799.3101,227.7158 799.3101,229.8159 Q799.3101,231.9077 799.9949,232.9744 Q800.6797,234.041 802.0244,234.041 Q802.6553,234.041 803.2488,233.7712 Q803.8423,233.5015 804.4731,232.9204 Z "/><text fill="#000000" font-family="sans-serif" font-size="12" lengthAdjust="spacingAndGlyphs" textLength="87" x="815.5" y="234.5352">BonCommande</text><rect fill="#FEFECE" filter="url(#f1)" height="32" style="stroke: #A80036; stroke-width: 1.5;" width="92" x="465" y="75"/><ellipse cx="480" cy="91" fill="#ADD1B2" rx="11" ry="11" style="stroke: #A80036; stroke-width: 1.0;"/><path d="M482.9731,96.6431 Q482.3921,96.9419 481.7529,97.0913 Q481.1138,97.2407 480.4082,97.2407 Q477.9014,97.2407 476.5815,95.5889 Q475.2617,93.937 475.2617,90.8159 Q475.2617,87.6865 476.5815,86.0347 Q477.9014,84.3828 480.4082,84.3828 Q481.1138,84.3828 481.7612,84.5322 Q482.4087,84.6816 482.9731,84.9805 L482.9731,87.7031 Q482.3423,87.1221 481.7488,86.8523 Q481.1553,86.5825 480.5244,86.5825 Q479.1797,86.5825 478.4949,87.6492 Q477.8101,88.7158 477.8101,90.8159 Q477.8101,92.9077 478.4949,93.9744 Q479.1797,95.041 480.5244,95.041 Q481.1553,95.041 481.7488,94.7712 Q482.3423,94.5015 482.9731,93.9204 Z "/><text fill="#000000" font-family="sans-serif" font-size="12" lengthAdjust="spacingAndGlyphs" textLength="60" x="494" y="95.5352">Controleur</text><path d="M501.595,107.183 C492.909,120.444 478.692,138.379 461,147 C436.377,158.999 362.754,143.273 338,155 C311.119,167.734 289.521,195.7706 277.752,213.7256 " fill="none" style="stroke: #A80036; stroke-width: 1.0;"/><text fill="#000000" font-family="sans-serif" font-size="13" lengthAdjust="spacingAndGlyphs" textLength="8" x="271.7293" y="203.1749">1</text><path d="M501.839,107.073 C493.216,120.457 478.956,138.629 461,147 C434.603,159.306 225.615,143.173 199,155 C171.289,167.314 148.941,195.7656 136.851,213.8711 " fill="none" style="stroke: #A80036; stroke-width: 1.0;"/><text fill="#000000" font-family="sans-serif" font-size="13" lengthAdjust="spacingAndGlyphs" textLength="8" x="130.8623" y="203.3704">1</text><path d="M499.566,107.217 C480.683,134.001 443.196,187.17 424.361,213.8862 " fill="none" style="stroke: #A80036; stroke-width: 1.0;"/><text fill="#000000" font-family="sans-serif" font-size="13" lengthAdjust="spacingAndGlyphs" textLength="8" x="418.8913" y="203.3907">1</text><path d="M557.134,103.648 C588.471,113.865 629.589,130.596 660,155 C678.645,169.961 693.878,192.912 703.355,209.4847 " fill="none" style="stroke: #A80036; stroke-width: 1.0;"/><polygon fill="#A80036" points="705.874,213.978,704.9624,204.1714,703.4291,209.6165,697.984,208.0832,705.874,213.978" style="stroke: #A80036; stroke-width: 1.0;"/><text fill="#000000" font-family="sans-serif" font-size="13" lengthAdjust="spacingAndGlyphs" textLength="8" x="693.5541" y="203.222">1</text><path d="M530.066,107.253 C543.533,119.425 561.361,137.013 574,155 C585.965,172.028 595.866,193.649 602.236,209.2967 " fill="none" style="stroke: #A80036; stroke-width: 1.0;"/><polygon fill="#A80036" points="604.098,213.9496,604.4676,204.1077,602.2402,209.3076,597.0403,207.0802,604.098,213.9496" style="stroke: #A80036; stroke-width: 1.0;"/><text fill="#000000" font-family="sans-serif" font-size="13" lengthAdjust="spacingAndGlyphs" textLength="6" x="594.9267" y="203.1834">*</text><path d="M557.003,95.07 C610.774,101.43 701.047,117.195 769,155 C793.805,168.8 816.318,192.679 830.505,209.788 " fill="none" style="stroke: #A80036; stroke-width: 1.0;"/><polygon fill="#A80036" points="833.928,213.9815,831.3341,204.4804,830.7657,210.1086,825.1374,209.5401,833.928,213.9815" style="stroke: #A80036; stroke-width: 1.0;"/><text fill="#000000" font-family="sans-serif" font-size="13" lengthAdjust="spacingAndGlyphs" textLength="6" x="822.5586" y="203.2267">*</text><path d="M63.6419,170.8163 C63.7012,170.6953 63.7608,170.5746 63.8207,170.454 C64.7793,168.5247 65.8191,166.6471 66.9534,164.8402 C69.2221,161.2264 71.8688,157.8955 75,155 C103.823,128.347 187.0135,112.6315 265.703,103.45 C305.0478,98.8593 343.2673,95.902 373.0029,94.0278 C387.8708,93.0907 400.6177,92.4244 410.3238,91.96 C412.7503,91.8439 414.9868,91.7405 417.0189,91.6485 C418.0349,91.6026 418.9998,91.5595 419.9118,91.5192 C420.3679,91.499 420.8106,91.4796 421.24,91.4607 C421.4546,91.4513 421.6659,91.4421 421.8739,91.433 " fill="none" style="stroke: #A80036; stroke-width: 1.0; stroke-dasharray: 7.0,7.0;"/><polygon fill="#A80036" points="421.8739,91.433,412.7081,87.829,416.8786,91.6509,413.0567,95.8214,421.8739,91.433" style="stroke: #A80036; stroke-width: 1.0;"/><path d="M421.6642,91.1296 C421.4416,91.1344 421.2153,91.1394 420.9851,91.1446 C420.5248,91.1549 420.0494,91.1659 419.5591,91.1774 C418.5784,91.2006 417.5382,91.2263 416.4404,91.2547 C414.2448,91.3115 411.8191,91.3792 409.1794,91.4589 C398.6206,91.778 384.6384,92.291 368.27,93.0806 C335.5332,94.6597 293.2518,97.345 249.7246,101.7973 C162.6701,110.7018 70.6321,126.674 40,155 C27.4754,166.582 22.7014,185.1307 23.1461,200.8833 C23.3684,208.7596 24.8953,215.9369 27.4104,221.1949 C28.0392,222.5094 28.7297,223.704 29.4771,224.7595 C29.5705,224.8914 29.6648,225.0212 29.76,225.1488 C29.8076,225.2125 29.8554,225.2758 29.9034,225.3384 " fill="none" style="stroke: #A80036; stroke-width: 1.0; stroke-dasharray: 7.0,7.0;"/><polygon fill="#A80036" points="29.9034,225.3384,27.6036,215.7619,26.8619,221.3699,21.2539,220.6282,29.9034,225.3384" style="stroke: #A80036; stroke-width: 1.0;"/><path d="M437.8879,131.2293 C437.928,131.318 437.9683,131.4066 438.0088,131.4951 C438.0898,131.672 438.1717,131.8487 438.2544,132.0249 C440.8999,137.6644 444.3918,142.9123 449,147 C461.912,158.453 472.455,145.709 487,155 C503.433,165.4975 516.7648,182.6331 526.2919,197.877 C528.6737,201.688 530.8176,205.3807 532.7129,208.822 C533.1867,209.6823 533.6449,210.5269 534.0875,211.3536 C534.3087,211.767 534.5261,212.176 534.7394,212.5802 C534.7928,212.6813 534.8459,212.782 534.8987,212.8825 " fill="none" style="stroke: #A80036; stroke-width: 1.0; stroke-dasharray: 7.0,7.0;"/><polygon fill="#A80036" points="534.8987,212.8825,534.2486,203.0551,532.5708,208.4575,527.1685,206.7797,534.8987,212.8825" style="stroke: #A80036; stroke-width: 1.0;"/></g></svg>