<?xml version="1.0" encoding="UTF-8" standalone="yes"?><svg xmlns="http://www.w3.org/2000/svg" xmlns:xlink="http://www.w3.org/1999/xlink" height="383px" style="width:1233px;height:383px;" version="1.1" viewBox="0 0 1233 383" width="1233px"><defs><filter height="300%" id="f1" width="300%" x="-1" y="-1"><feGaussianBlur result="blurOut" stdDeviation="2.0"/><feColorMatrix in="blurOut" result="blurOut2" type="matrix" values="0 0 0 0 0 0 0 0 0 0 0 0 0 0 0 0 0 0 .4 0"/><feOffset dx="4.0" dy="4.0" in="blurOut2" result="blurOut3"/><feBlend in="SourceGraphic" in2="blurOut3" mode="normal"/></filter></defs><g><polygon fill="#FFFFFF" filter="url(#f1)" points="34,220,48,220,55,242.4883,645,242.4883,645,376,34,376,34,220" style="stroke: #000000; stroke-width: 2.0;"/><line style="stroke: #000000; stroke-width: 2.0;" x1="34" x2="55" y1="242.4883" y2="242.4883"/><text fill="#000000" font-family="sans-serif" font-size="14" font-weight="bold" lengthAdjust="spacingAndGlyphs" textLength="8" x="38" y="235.5352">v</text><polygon fill="#FFFFFF" filter="url(#f1)" points="685,220,705,220,712,242.4883,1226,242.4883,1226,376,685,376,685,220" style="stroke: #000000; stroke-width: 2.0;"/><line style="stroke: #000000; stroke-width: 2.0;" x1="685" x2="712" y1="242.4883" y2="242.4883"/><text fill="#000000" font-family="sans-serif" font-size="14" font-weight="bold" lengthAdjust="spacingAndGlyphs" textLength="14" x="689" y="235.5352">m</text><polygon fill="#FFFFFF" filter="url(#f1)" points="566,48,579,48,586,70.4883,727,70.4883,727,164,566,164,566,48" style="stroke: #000000; stroke-width: 2.0;"/><line style="stroke: #000000; stroke-width: 2.0;" x1="566" x2="586" y1="70.4883" y2="70.4883"/><text fill="#000000" font-family="sans-serif" font-size="14" font-weight="bold" lengthAdjust="spacingAndGlyphs" textLength="7" x="570" y="63.5352">c</text><rect fill="#FEFECE" filter="url(#f1)" height="32" style="stroke: #A80036; stroke-width: 1.5;" width="103" x="295" y="300"/><ellipse cx="310" cy="316" fill="#ADD1B2" rx="11" ry="11" style="stroke: #A80036; stroke-width: 1.0;"/><path d="M312.9731,321.6431 Q312.3921,321.9419 311.7529,322.0913 Q311.1138,322.2407 310.4082,322.2407 Q307.9014,322.2407 306.5815,320.5889 Q305.2617,318.937 305.2617,315.8159 Q305.2617,312.6865 306.5815,311.0347 Q307.9014,309.3828 310.4082,309.3828 Q311.1138,309.3828 311.7612,309.5322 Q312.4087,309.6816 312.9731,309.9805 L312.9731,312.7031 Q312.3423,312.1221 311.7488,311.8523 Q311.1553,311.5825 310.5244,311.5825 Q309.1797,311.5825 308.4949,312.6492 Q307.8101,313.7158 307.8101,315.8159 Q307.8101,317.9077 308.4949,318.9744 Q309.1797,320.041 310.5244,320.041 Q311.1553,320.041 311.7488,319.7712 Q312.3423,319.5015 312.9731,318.9204 Z "/><text fill="#000000" font-family="sans-serif" font-size="12" lengthAdjust="spacingAndGlyphs" textLength="71" x="324" y="320.5352">MainWindow</text><rect fill="#FEFECE" filter="url(#f1)" height="32" style="stroke: #A80036; stroke-width: 1.5;" width="108" x="103" y="300"/><ellipse cx="118" cy="316" fill="#ADD1B2" rx="11" ry="11" style="stroke: #A80036; stroke-width: 1.0;"/><path d="M120.9731,321.6431 Q120.3921,321.9419 119.7529,322.0913 Q119.1138,322.2407 118.4082,322.2407 Q115.9014,322.2407 114.5815,320.5889 Q113.2617,318.937 113.2617,315.8159 Q113.2617,312.6865 114.5815,311.0347 Q115.9014,309.3828 118.4082,309.3828 Q119.1138,309.3828 119.7612,309.5322 Q120.4087,309.6816 120.9731,309.9805 L120.9731,312.7031 Q120.3423,312.1221 119.7488,311.8523 Q119.1553,311.5825 118.5244,311.5825 Q117.1797,311.5825 116.4949,312.6492 Q115.8101,313.7158 115.8101,315.8159 Q115.8101,317.9077 116.4949,318.9744 Q117.1797,320.041 118.5244,320.041 Q119.1553,320.041 119.7488,319.7712 Q120.3423,319.5015 120.9731,318.9204 Z "/><text fill="#000000" font-family="sans-serif" font-size="12" lengthAdjust="spacingAndGlyphs" textLength="76" x="132" y="320.5352">ClientWindow</text><rect fill="#FEFECE" filter="url(#f1)" height="32" style="stroke: #A80036; stroke-width: 1.5;" width="116" x="481" y="300"/><ellipse cx="496" cy="316" fill="#ADD1B2" rx="11" ry="11" style="stroke: #A80036; stroke-width: 1.0;"/><path d="M498.9731,321.6431 Q498.3921,321.9419 497.7529,322.0913 Q497.1138,322.2407 496.4082,322.2407 Q493.9014,322.2407 492.5815,320.5889 Q491.2617,318.937 491.2617,315.8159 Q491.2617,312.6865 492.5815,311.0347 Q493.9014,309.3828 496.4082,309.3828 Q497.1138,309.3828 497.7612,309.5322 Q498.4087,309.6816 498.9731,309.9805 L498.9731,312.7031 Q498.3423,312.1221 497.7488,311.8523 Q497.1553,311.5825 496.5244,311.5825 Q495.1797,311.5825 494.4949,312.6492 Q493.8101,313.7158 493.8101,315.8159 Q493.8101,317.9077 494.4949,318.9744 Q495.1797,320.041 496.5244,320.041 Q497.1553,320.041 497.7488,319.7712 Q498.3423,319.5015 498.9731,318.9204 Z "/><text fill="#000000" font-family="sans-serif" font-size="12" lengthAdjust="spacingAndGlyphs" textLength="84" x="510" y="320.5352">HistoryWindow</text><rect fill="#FEFECE" filter="url(#f1)" height="32" style="stroke: #A80036; stroke-width: 1.5;" width="64" x="754" y="300"/><ellipse cx="769" cy="316" fill="#ADD1B2" rx="11" ry="11" style="stroke: #A80036; stroke-width: 1.0;"/><path d="M771.9731,321.6431 Q771.3921,321.9419 770.7529,322.0913 Q770.1138,322.2407 769.4082,322.2407 Q766.9014,322.2407 765.5815,320.5889 Q764.2617,318.937 764.2617,315.8159 Q764.2617,312.6865 765.5815,311.0347 Q766.9014,309.3828 769.4082,309.3828 Q770.1138,309.3828 770.7612,309.5322 Q771.4087,309.6816 771.9731,309.9805 L771.9731,312.7031 Q771.3423,312.1221 770.7488,311.8523 Q770.1553,311.5825 769.5244,311.5825 Q768.1797,311.5825 767.4949,312.6492 Q766.8101,313.7158 766.8101,315.8159 Q766.8101,317.9077 767.4949,318.9744 Q768.1797,320.041 769.5244,320.041 Q770.1553,320.041 770.7488,319.7712 Q771.3423,319.5015 771.9731,318.9204 Z "/><text fill="#000000" font-family="sans-serif" font-size="12" lengthAdjust="spacingAndGlyphs" textLength="32" x="783" y="320.5352">Client</text><rect fill="#FEFECE" filter="url(#f1)" height="32" style="stroke: #A80036; stroke-width: 1.5;" width="74" x="901" y="300"/><ellipse cx="916" cy="316" fill="#ADD1B2" rx="11" ry="11" style="stroke: #A80036; stroke-width: 1.0;"/><path d="M918.9731,321.6431 Q918.3921,321.9419 917.7529,322.0913 Q917.1138,322.2407 916.4082,322.2407 Q913.9014,322.2407 912.5815,320.5889 Q911.2617,318.937 911.2617,315.8159 Q911.2617,312.6865 912.5815,311.0347 Q913.9014,309.3828 916.4082,309.3828 Q917.1138,309.3828 917.7612,309.5322 Q918.4087,309.6816 918.9731,309.9805 L918.9731,312.7031 Q918.3423,312.1221 917.7488,311.8523 Q917.1553,311.5825 916.5244,311.5825 Q915.1797,311.5825 914.4949,312.6492 Q913.8101,313.7158 913.8101,315.8159 Q913.8101,317.9077 914.4949,318.9744 Q915.1797,320.041 916.5244,320.041 Q917.1553,320.041 917.7488,319.7712 Q918.3423,319.5015 918.9731,318.9204 Z "/><text fill="#000000" font-family="sans-serif" font-size="12" lengthAdjust="spacingAndGlyphs" textLength="42" x="930" y="320.5352">Facture</text><rect fill="#FEFECE" filter="url(#f1)" height="32" style="stroke: #A80036; stroke-width: 1.5;" width="119" x="1059" y="300"/><ellipse cx="1074" cy="316" fill="#ADD1B2" rx="11" ry="11" style="stroke: #A80036; stroke-width: 1.0;"/><path d="M1076.9731,321.6431 Q1076.3921,321.9419 1075.7529,322.0913 Q1075.1138,322.2407 1074.4082,322.2407 Q1071.9014,322.2407 1070.5815,320.5889 Q1069.2617,318.937 1069.2617,315.8159 Q1069.2617,312.6865 1070.5815,311.0347 Q1071.9014,309.3828 1074.4082,309.3828 Q1075.1138,309.3828 1075.7612,309.5322 Q1076.4087,309.6816 1076.9731,309.9805 L1076.9731,312.7031 Q1076.3423,312.1221 1075.7488,311.8523 Q1075.1553,311.5825 1074.5244,311.5825 Q1073.1797,311.5825 1072.4949,312.6492 Q1071.8101,313.7158 1071.8101,315.8159 Q1071.8101,317.9077 1072.4949,318.9744 Q1073.1797,320.041 1074.5244,320.041 Q1075.1553,320.041 1075.7488,319.7712 Q1076.3423,319.5015 1076.9731,318.9204 Z "/><text fill="#000000" font-family="sans-serif" font-size="12" lengthAdjust="spacingAndGlyphs" textLength="87" x="1088" y="320.5352">BonCommande</text><rect fill="#FEFECE" filter="url(#f1)" height="32" style="stroke: #A80036; stroke-width: 1.5;" width="92" x="611" y="108"/><ellipse cx="626" cy="124" fill="#ADD1B2" rx="11" ry="11" style="stroke: #A80036; stroke-width: 1.0;"/><path d="M628.9731,129.6431 Q628.3921,129.9419 627.7529,130.0913 Q627.1138,130.2407 626.4082,130.2407 Q623.9014,130.2407 622.5815,128.5889 Q621.2617,126.937 621.2617,123.8159 Q621.2617,120.6865 622.5815,119.0347 Q623.9014,117.3828 626.4082,117.3828 Q627.1138,117.3828 627.7612,117.5322 Q628.4087,117.6816 628.9731,117.9805 L628.9731,120.7031 Q628.3423,120.1221 627.7488,119.8523 Q627.1553,119.5825 626.5244,119.5825 Q625.1797,119.5825 624.4949,120.6492 Q623.8101,121.7158 623.8101,123.8159 Q623.8101,125.9077 624.4949,126.9744 Q625.1797,128.041 626.5244,128.041 Q627.1553,128.041 627.7488,127.7712 Q628.3423,127.5015 628.9731,126.9204 Z "/><text fill="#000000" font-family="sans-serif" font-size="12" lengthAdjust="spacingAndGlyphs" textLength="60" x="640" y="128.5352">Controleur</text><path d="M648,140 C639,154 625,172 607,180 C573,196 472,171 440,188 C393,213 364,272 352,300 " fill="none" style="stroke: #A80036; stroke-width: 1.0;"/><text fill="#000000" font-family="sans-serif" font-size="13" lengthAdjust="spacingAndGlyphs" textLength="8" x="360.8094" y="289.2518">1</text><path d="M648,140 C639,154 625,172 607,180 C571,197 287,171 253,188 C206,212 176,271 163,300 " fill="none" style="stroke: #A80036; stroke-width: 1.0;"/><text fill="#000000" font-family="sans-serif" font-size="13" lengthAdjust="spacingAndGlyphs" textLength="8" x="172.775" y="289.3512">1</text><path d="M647,140 C625,176 571,264 549,300 " fill="none" style="stroke: #A80036; stroke-width: 1.0;"/><text fill="#000000" font-family="sans-serif" font-size="13" lengthAdjust="spacingAndGlyphs" textLength="8" x="560.425" y="289.3512">1</text><path d="M703,130 C747,137 813,153 859,188 C895,217 919,267 930,295 " fill="none" style="stroke: #A80036; stroke-width: 1.0;"/><polygon fill="#A80036" points="932,300,932.3714,290.1581,930.143,295.3576,924.9436,293.1293,932,300" style="stroke: #A80036; stroke-width: 1.0;"/><text fill="#000000" font-family="sans-serif" font-size="13" lengthAdjust="spacingAndGlyphs" textLength="8" x="927.9688" y="289.1348">1</text><path d="M678,140 C693,152 712,170 726,188 C750,222 770,268 779,295 " fill="none" style="stroke: #A80036; stroke-width: 1.0;"/><polygon fill="#A80036" points="781,300,781.3714,290.1581,779.143,295.3576,773.9436,293.1293,781,300" style="stroke: #A80036; stroke-width: 1.0;"/><text fill="#000000" font-family="sans-serif" font-size="13" lengthAdjust="spacingAndGlyphs" textLength="6" x="778.175" y="289.1348">*</text><path d="M703,128 C788,137 964,157 1016,188 C1060,215 1092,266 1108,296 " fill="none" style="stroke: #A80036; stroke-width: 1.0;"/><polygon fill="#A80036" points="1110,300,1109.5528,290.1613,1107.7639,295.5279,1102.3974,293.739,1110,300" style="stroke: #A80036; stroke-width: 1.0;"/><text fill="#000000" font-family="sans-serif" font-size="13" lengthAdjust="spacingAndGlyphs" textLength="6" x="1105.2469" y="289.1348">*</text><path d="M62.0186,219.894 C62.0904,219.6852 62.1628,219.4767 62.2358,219.2684 C62.8197,217.6023 63.4412,215.9526 64.103,214.3232 C65.4268,211.0645 66.9121,207.8867 68.582,204.8203 C71.9219,198.6875 76,193 81,188 C101,169.5 216.5,154.25 330.875,143.25 C388.0625,137.75 444.9688,133.3125 489.5156,130.0625 C511.7891,128.4375 530.9727,127.1094 545.5566,126.0938 C552.8486,125.5859 558.9907,125.1563 563.7942,124.8066 C564.3946,124.7629 564.9741,124.7205 565.5324,124.6793 " fill="none" style="stroke: #A80036; stroke-width: 1.0; stroke-dasharray: 7.0,7.0;"/><polygon fill="#A80036" points="565.5324,124.6793,556.2624,121.3525,560.5459,125.0473,556.8512,129.3308,565.5324,124.6793" style="stroke: #A80036; stroke-width: 1.0;"/><path d="M565.2383,124.3776 C564.6526,124.4057 564.0437,124.4352 563.4121,124.4661 C558.3594,124.7134 551.8516,125.0518 544.0938,125.4785 C528.5781,126.332 508.0625,127.5391 484.1875,129.0781 C436.4375,132.1563 375.25,136.5625 313.75,142.125 C190.75,153.25 66.5,169 46,188 C26,208 20.75,239 22.625,265.5 C23.5625,278.75 26.2813,290.875 29.8281,299.9375 C30.7148,302.2031 31.6533,304.2773 32.6287,306.1299 C32.8725,306.593 33.1186,307.0423 33.3668,307.4772 C33.491,307.6947 33.6156,307.9086 33.7407,308.1189 C33.8032,308.224 33.8659,308.3282 33.9287,308.4315 " fill="none" style="stroke: #A80036; stroke-width: 1.0; stroke-dasharray: 7.0,7.0;"/><polygon fill="#A80036" points="33.9287,308.4315,32.6715,298.6632,31.3314,304.159,25.8356,302.8189,33.9287,308.4315" style="stroke: #A80036; stroke-width: 1.0;"/><path d="M583.2268,164.0598 C583.2679,164.1469 583.3093,164.2339 583.3508,164.3208 C583.517,164.6684 583.6865,165.0146 583.8594,165.3594 C586.625,170.875 590.25,176 595,180 C609,193 622,177 637,188 C660,206.5 674,236.5 682.375,262.75 C682.8984,264.3906 683.3999,266.0166 683.8802,267.6242 C684.1204,268.428 684.3552,269.2272 684.5849,270.0214 C684.6998,270.4184 684.8133,270.8143 684.9256,271.2087 " fill="none" style="stroke: #A80036; stroke-width: 1.0; stroke-dasharray: 7.0,7.0;"/><polygon fill="#A80036" points="684.9256,271.2087,686.3094,261.4576,683.557,266.3997,678.6149,263.6473,684.9256,271.2087" style="stroke: #A80036; stroke-width: 1.0;"/></g></svg>