<?xml version="1.0" encoding="UTF-8" standalone="no"?><svg xmlns="http://www.w3.org/2000/svg" xmlns:xlink="http://www.w3.org/1999/xlink" contentScriptType="application/ecmascript" contentStyleType="text/css" height="467px" preserveAspectRatio="none" style="width:712px;height:467px;" version="1.1" viewBox="0 0 712 467" width="712px" zoomAndPan="magnify"><defs><filter height="300%" id="fga6tns6z4ifu" width="300%" x="-1" y="-1"><feGaussianBlur result="blurOut" stdDeviation="2.0"/><feColorMatrix in="blurOut" result="blurOut2" type="matrix" values="0 0 0 0 0 0 0 0 0 0 0 0 0 0 0 0 0 0 .4 0"/><feOffset dx="4.0" dy="4.0" in="blurOut2" result="blurOut3"/><feBlend in="SourceGraphic" in2="blurOut3" mode="normal"/></filter></defs><g><line style="stroke: #A80036; stroke-width: 1.0; stroke-dasharray: 5.0,5.0;" x1="41" x2="41" y1="86.4883" y2="455.5938"/><line style="stroke: #A80036; stroke-width: 1.0; stroke-dasharray: 5.0,5.0;" x1="159" x2="159" y1="86.4883" y2="455.5938"/><line style="stroke: #A80036; stroke-width: 1.0; stroke-dasharray: 5.0,5.0;" x1="295" x2="295" y1="86.4883" y2="455.5938"/><line style="stroke: #A80036; stroke-width: 1.0; stroke-dasharray: 5.0,5.0;" x1="426" x2="426" y1="86.4883" y2="455.5938"/><line style="stroke: #A80036; stroke-width: 1.0; stroke-dasharray: 5.0,5.0;" x1="547" x2="547" y1="86.4883" y2="455.5938"/><line style="stroke: #A80036; stroke-width: 1.0; stroke-dasharray: 5.0,5.0;" x1="656" x2="656" y1="86.4883" y2="455.5938"/><text fill="#000000" font-family="sans-serif" font-size="14" lengthAdjust="spacingAndGlyphs" textLength="61" x="8" y="83.5352">:Etudiant</text><ellipse cx="41.5" cy="13" fill="#FEFECE" filter="url(#fga6tns6z4ifu)" rx="8" ry="8" style="stroke: #A80036; stroke-width: 2.0;"/><path d="M41.5,21 L41.5,48 M28.5,29 L54.5,29 M41.5,48 L28.5,63 M41.5,48 L54.5,63 " fill="none" filter="url(#fga6tns6z4ifu)" style="stroke: #A80036; stroke-width: 2.0;"/><rect fill="#FEFECE" filter="url(#fga6tns6z4ifu)" height="30.4883" style="stroke: #A80036; stroke-width: 1.5;" width="127" x="94" y="51"/><text fill="#000000" font-family="sans-serif" font-size="14" lengthAdjust="spacingAndGlyphs" textLength="113" x="101" y="71.5352">:FormInscription</text><rect fill="#FEFECE" filter="url(#fga6tns6z4ifu)" height="30.4883" style="stroke: #A80036; stroke-width: 1.5;" width="116" x="235" y="51"/><text fill="#000000" font-family="sans-serif" font-size="14" lengthAdjust="spacingAndGlyphs" textLength="102" x="242" y="71.5352">:InscriptionCtrl</text><rect fill="#FEFECE" filter="url(#fga6tns6z4ifu)" height="30.4883" style="stroke: #A80036; stroke-width: 1.5;" width="119" x="365" y="51"/><text fill="#000000" font-family="sans-serif" font-size="14" lengthAdjust="spacingAndGlyphs" textLength="105" x="372" y="71.5352">e:FicheEtudiant</text><rect fill="#FEFECE" filter="url(#fga6tns6z4ifu)" height="30.4883" style="stroke: #A80036; stroke-width: 1.5;" width="95" x="498" y="51"/><text fill="#000000" font-family="sans-serif" font-size="14" lengthAdjust="spacingAndGlyphs" textLength="81" x="505" y="71.5352">c:Catalogue</text><rect fill="#FEFECE" filter="url(#fga6tns6z4ifu)" height="30.4883" style="stroke: #A80036; stroke-width: 1.5;" width="94" x="607" y="51"/><text fill="#000000" font-family="sans-serif" font-size="14" lengthAdjust="spacingAndGlyphs" textLength="80" x="614" y="71.5352">math:Cours</text><polygon fill="#A80036" points="147.5,113.7988,157.5,117.7988,147.5,121.7988,151.5,117.7988" style="stroke: #A80036; stroke-width: 1.0;"/><line style="stroke: #A80036; stroke-width: 1.0;" x1="41.5" x2="153.5" y1="117.7988" y2="117.7988"/><text fill="#000000" font-family="sans-serif" font-size="13" lengthAdjust="spacingAndGlyphs" textLength="47" x="48.5" y="113.0566">login(e)</text><polygon fill="#A80036" points="283,143.1094,293,147.1094,283,151.1094,287,147.1094" style="stroke: #A80036; stroke-width: 1.0;"/><line style="stroke: #A80036; stroke-width: 1.0;" x1="159.5" x2="289" y1="147.1094" y2="147.1094"/><text fill="#000000" font-family="sans-serif" font-size="13" lengthAdjust="spacingAndGlyphs" textLength="47" x="166.5" y="142.3672">login(e)</text><polygon fill="#A80036" points="414.5,172.4199,424.5,176.4199,414.5,180.4199,418.5,176.4199" style="stroke: #A80036; stroke-width: 1.0;"/><line style="stroke: #A80036; stroke-width: 1.0;" x1="295" x2="420.5" y1="176.4199" y2="176.4199"/><text fill="#000000" font-family="sans-serif" font-size="13" lengthAdjust="spacingAndGlyphs" textLength="53" x="302" y="171.6777">getInfo()</text><polygon fill="#A80036" points="306,186.4199,296,190.4199,306,194.4199,302,190.4199" style="stroke: #A80036; stroke-width: 1.0;"/><line style="stroke: #A80036; stroke-width: 1.0; stroke-dasharray: 2.0,2.0;" x1="300" x2="425.5" y1="190.4199" y2="190.4199"/><polygon fill="#A80036" points="170.5,215.7305,160.5,219.7305,170.5,223.7305,166.5,219.7305" style="stroke: #A80036; stroke-width: 1.0;"/><line style="stroke: #A80036; stroke-width: 1.0; stroke-dasharray: 2.0,2.0;" x1="164.5" x2="294" y1="219.7305" y2="219.7305"/><text fill="#000000" font-family="sans-serif" font-size="13" lengthAdjust="spacingAndGlyphs" textLength="18" x="176.5" y="214.9883">OK</text><polygon fill="#A80036" points="147.5,245.041,157.5,249.041,147.5,253.041,151.5,249.041" style="stroke: #A80036; stroke-width: 1.0;"/><line style="stroke: #A80036; stroke-width: 1.0;" x1="41.5" x2="153.5" y1="249.041" y2="249.041"/><text fill="#000000" font-family="sans-serif" font-size="13" lengthAdjust="spacingAndGlyphs" textLength="94" x="48.5" y="244.2988">choisir(math,c)</text><polygon fill="#A80036" points="535.5,274.3516,545.5,278.3516,535.5,282.3516,539.5,278.3516" style="stroke: #A80036; stroke-width: 1.0;"/><line style="stroke: #A80036; stroke-width: 1.0;" x1="159.5" x2="541.5" y1="278.3516" y2="278.3516"/><text fill="#000000" font-family="sans-serif" font-size="13" lengthAdjust="spacingAndGlyphs" textLength="86" x="166.5" y="273.6094">GetInfo(math)</text><polygon fill="#A80036" points="170.5,288.3516,160.5,292.3516,170.5,296.3516,166.5,292.3516" style="stroke: #A80036; stroke-width: 1.0;"/><line style="stroke: #A80036; stroke-width: 1.0; stroke-dasharray: 2.0,2.0;" x1="164.5" x2="546.5" y1="292.3516" y2="292.3516"/><polygon fill="#A80036" points="283,317.6621,293,321.6621,283,325.6621,287,321.6621" style="stroke: #A80036; stroke-width: 1.0;"/><line style="stroke: #A80036; stroke-width: 1.0;" x1="159.5" x2="289" y1="321.6621" y2="321.6621"/><text fill="#000000" font-family="sans-serif" font-size="13" lengthAdjust="spacingAndGlyphs" textLength="97" x="166.5" y="316.9199">Ajouter(math,c)</text><polygon fill="#A80036" points="535.5,346.9727,545.5,350.9727,535.5,354.9727,539.5,350.9727" style="stroke: #A80036; stroke-width: 1.0;"/><line style="stroke: #A80036; stroke-width: 1.0;" x1="295" x2="541.5" y1="350.9727" y2="350.9727"/><text fill="#000000" font-family="sans-serif" font-size="13" lengthAdjust="spacingAndGlyphs" textLength="131" x="302" y="346.2305">chercherCours(math)</text><polygon fill="#A80036" points="306,360.9727,296,364.9727,306,368.9727,302,364.9727" style="stroke: #A80036; stroke-width: 1.0;"/><line style="stroke: #A80036; stroke-width: 1.0; stroke-dasharray: 2.0,2.0;" x1="300" x2="546.5" y1="364.9727" y2="364.9727"/><polygon fill="#A80036" points="644,390.2832,654,394.2832,644,398.2832,648,394.2832" style="stroke: #A80036; stroke-width: 1.0;"/><line style="stroke: #A80036; stroke-width: 1.0;" x1="295" x2="650" y1="394.2832" y2="394.2832"/><text fill="#000000" font-family="sans-serif" font-size="13" lengthAdjust="spacingAndGlyphs" textLength="62" x="302" y="389.541">inscrire(e)</text><polygon fill="#A80036" points="306,404.2832,296,408.2832,306,412.2832,302,408.2832" style="stroke: #A80036; stroke-width: 1.0;"/><line style="stroke: #A80036; stroke-width: 1.0; stroke-dasharray: 2.0,2.0;" x1="300" x2="655" y1="408.2832" y2="408.2832"/><polygon fill="#A80036" points="170.5,433.5938,160.5,437.5938,170.5,441.5938,166.5,437.5938" style="stroke: #A80036; stroke-width: 1.0;"/><line style="stroke: #A80036; stroke-width: 1.0; stroke-dasharray: 2.0,2.0;" x1="164.5" x2="294" y1="437.5938" y2="437.5938"/><text fill="#000000" font-family="sans-serif" font-size="13" lengthAdjust="spacingAndGlyphs" textLength="18" x="176.5" y="432.8516">OK</text><!--
@startuml

hide circle
hide empty members
hide methods
hide footbox




actor ":Etudiant"
":Etudiant" -> ":FormInscription" : login(e)
":FormInscription" -> ":InscriptionCtrl" : login(e)
":InscriptionCtrl" -> "e:FicheEtudiant" : getInfo()
"e:FicheEtudiant" - -> ":InscriptionCtrl"
":InscriptionCtrl" - -> ":FormInscription" : OK
":Etudiant" -> ":FormInscription" : choisir(math,c)
":FormInscription" -> "c:Catalogue" : GetInfo(math)
"c:Catalogue" - -> ":FormInscription"
":FormInscription" -> ":InscriptionCtrl" : Ajouter(math,c)
":InscriptionCtrl" -> "c:Catalogue" : chercherCours(math)
"c:Catalogue" - -> ":InscriptionCtrl"
":InscriptionCtrl" -> "math:Cours" : inscrire(e)
"math:Cours" - -> ":InscriptionCtrl"
":InscriptionCtrl" - -> ":FormInscription" : OK

@enduml

PlantUML version 1.2019.06(Fri May 24 19:10:25 CEST 2019)
(GPL source distribution)
Java Runtime: Java(TM) SE Runtime Environment
JVM: Java HotSpot(TM) 64-Bit Server VM
Java Version: 1.8.0_152-b16
Operating System: Mac OS X
OS Version: 10.14.5
Default Encoding: UTF-8
Language: fr
Country: FR
--></g></svg>