<?xml version="1.0" encoding="UTF-8" standalone="no"?><svg xmlns="http://www.w3.org/2000/svg" xmlns:xlink="http://www.w3.org/1999/xlink" contentScriptType="application/ecmascript" contentStyleType="text/css" height="262px" preserveAspectRatio="none" style="width:580px;height:262px;" version="1.1" viewBox="0 0 580 262" width="580px" zoomAndPan="magnify"><defs><filter height="300%" id="fukxkm2fr07j" width="300%" x="-1" y="-1"><feGaussianBlur result="blurOut" stdDeviation="2.0"/><feColorMatrix in="blurOut" result="blurOut2" type="matrix" values="0 0 0 0 0 0 0 0 0 0 0 0 0 0 0 0 0 0 .4 0"/><feOffset dx="4.0" dy="4.0" in="blurOut2" result="blurOut3"/><feBlend in="SourceGraphic" in2="blurOut3" mode="normal"/></filter></defs><g><!--entity Visiteur--><ellipse cx="32" cy="178" fill="#FEFECE" filter="url(#fukxkm2fr07j)" rx="8" ry="8" style="stroke: #A80036; stroke-width: 2.0;"/><path d="M32,186 L32,213 M19,194 L45,194 M32,213 L19,228 M32,213 L45,228 " fill="none" filter="url(#fukxkm2fr07j)" style="stroke: #A80036; stroke-width: 2.0;"/><text fill="#000000" font-family="sans-serif" font-size="14" lengthAdjust="spacingAndGlyphs" textLength="52" x="6" y="248.5352">Visiteur</text><!--entity Client--><ellipse cx="202" cy="18" fill="#FEFECE" filter="url(#fukxkm2fr07j)" rx="8" ry="8" style="stroke: #A80036; stroke-width: 2.0;"/><path d="M202,26 L202,53 M189,34 L215,34 M202,53 L189,68 M202,53 L215,68 " fill="none" filter="url(#fukxkm2fr07j)" style="stroke: #A80036; stroke-width: 2.0;"/><text fill="#000000" font-family="sans-serif" font-size="14" lengthAdjust="spacingAndGlyphs" textLength="40" x="182" y="88.5352">Client</text><ellipse cx="139.1335" cy="209.659" fill="#FEFECE" filter="url(#fukxkm2fr07j)" rx="46.1335" ry="14.659" style="stroke: #A80036; stroke-width: 1.5;"/><text fill="#000000" font-family="sans-serif" font-size="14" lengthAdjust="spacingAndGlyphs" textLength="61" x="108.6335" y="214.4031">Naviguer</text><ellipse cx="306.9767" cy="49.659" fill="#FEFECE" filter="url(#fukxkm2fr07j)" rx="40.4767" ry="14.659" style="stroke: #A80036; stroke-width: 1.5;"/><text fill="#000000" font-family="sans-serif" font-size="14" lengthAdjust="spacingAndGlyphs" textLength="53" x="280.4767" y="54.4031">Acheter</text><ellipse cx="417.163" cy="49.659" fill="#FEFECE" filter="url(#fukxkm2fr07j)" rx="29.163" ry="14.659" style="stroke: #A80036; stroke-width: 1.5;"/><text fill="#000000" font-family="sans-serif" font-size="14" lengthAdjust="spacingAndGlyphs" textLength="37" x="398.663" y="54.4031">Payer</text><ellipse cx="248.2487" cy="209.659" fill="#FEFECE" filter="url(#fukxkm2fr07j)" rx="27.7487" ry="14.659" style="stroke: #A80036; stroke-width: 1.5;"/><text fill="#000000" font-family="sans-serif" font-size="14" lengthAdjust="spacingAndGlyphs" textLength="35" x="230.7487" y="214.4031">login</text><ellipse cx="355.2193" cy="209.659" fill="#FEFECE" filter="url(#fukxkm2fr07j)" rx="44.7193" ry="14.659" style="stroke: #A80036; stroke-width: 1.5;"/><text fill="#000000" font-family="sans-serif" font-size="14" lengthAdjust="spacingAndGlyphs" textLength="59" x="325.7193" y="214.4031">Réserver</text><ellipse cx="451.182" cy="209.4456" fill="#FEFECE" filter="url(#fukxkm2fr07j)" rx="16.682" ry="13.9456" style="stroke: #A80036; stroke-width: 1.5;"/><text fill="#000000" font-family="sans-serif" font-size="14" lengthAdjust="spacingAndGlyphs" textLength="18" x="442.182" y="214.1897">CB</text><ellipse cx="535.9056" cy="209.659" fill="#FEFECE" filter="url(#fukxkm2fr07j)" rx="33.4056" ry="14.659" style="stroke: #A80036; stroke-width: 1.5;"/><text fill="#000000" font-family="sans-serif" font-size="14" lengthAdjust="spacingAndGlyphs" textLength="43" x="514.4056" y="214.4031">PayPal</text><!--link Visiteur to Naviguer--><path d="M58.332,209.5 C68.171,209.5 78.0099,209.5 87.8489,209.5 " fill="none" id="Visiteur-Naviguer" style="stroke: #A80036; stroke-width: 1.0;"/><polygon fill="#A80036" points="92.994,209.5,83.994,205.5,87.994,209.5,83.994,213.5,92.994,209.5" style="stroke: #A80036; stroke-width: 1.0;"/><!--link Client to Acheter--><path d="M222.0977,49.5 C235.0778,49.5 248.0579,49.5 261.038,49.5 " fill="none" id="Client-Acheter" style="stroke: #A80036; stroke-width: 1.0;"/><polygon fill="#A80036" points="266.2071,49.5,257.2071,45.5,261.2071,49.5,257.2071,53.5,266.2071,49.5" style="stroke: #A80036; stroke-width: 1.0;"/><!--link Client to Visiteur--><path d="M181.6655,68.2769 C156.5046,91.5557 112.4052,132.5037 75,168 C70.7668,172.0172 66.3178,176.2726 61.9523,180.4677 " fill="none" id="Client-Visiteur" style="stroke: #A80036; stroke-width: 1.0;"/><polygon fill="#A80036" points="58.3115,183.9707,67.5704,180.6132,61.9146,180.504,62.0237,174.8482,58.3115,183.9707" style="stroke: #A80036; stroke-width: 1.0;"/><!--link Acheter to Payer--><path d="M347.8203,49.5 C359.3812,49.5 370.9421,49.5 382.503,49.5 " fill="none" id="Acheter-Payer" style="stroke: #A80036; stroke-width: 1.0;"/><polygon fill="#A80036" points="387.8148,49.5,378.8148,45.5,382.8148,49.5,378.8148,53.5,387.8148,49.5" style="stroke: #A80036; stroke-width: 1.0;"/><!--link Acheter to login--><path d="M295.9632,63.6991 C285.7801,77.5422 271.0564,99.5818 263,121 C254.4977,143.6037 250.7924,171.2716 249.192,189.5895 " fill="none" id="Acheter-login" style="stroke: #A80036; stroke-width: 1.0; stroke-dasharray: 7.0,7.0;"/><polygon fill="#A80036" points="248.76,194.9582,253.4694,186.3083,249.1613,189.9743,245.4952,185.6662,248.76,194.9582" style="stroke: #A80036; stroke-width: 1.0;"/><text fill="#000000" font-family="sans-serif" font-size="13" lengthAdjust="spacingAndGlyphs" textLength="57" x="264" y="134.5684">«extend»</text><!--link Acheter to Réserver--><path d="M311.3443,63.9811 C319.9751,92.7504 339.2901,157.1338 349.0757,189.7522 " fill="none" id="Acheter-Réserver" style="stroke: #A80036; stroke-width: 1.0;"/><polygon fill="#A80036" points="350.5613,194.7042,351.8063,184.9343,349.1245,189.9151,344.1437,187.2333,350.5613,194.7042" style="stroke: #A80036; stroke-width: 1.0;"/><!--link Payer to Réserver--><!--link Payer to CB--><path d="M424.3144,83.9208 C431.7209,118.7749 442.8083,170.951 448.0512,195.6234 " fill="none" id="Payer-CB" style="stroke: #A80036; stroke-width: 1.0;"/><polygon fill="none" points="417.3874,84.9993,420.0772,63.9811,431.0816,82.0893,417.3874,84.9993" style="stroke: #A80036; stroke-width: 1.0;"/><!--link Payer to PayPal--><path d="M439.3098,79.4963 C465.0637,114.1235 506.3357,169.6152 525.5406,195.4369 " fill="none" id="Payer-PayPal" style="stroke: #A80036; stroke-width: 1.0;"/><polygon fill="none" points="433.4648,83.3671,427.1459,63.1415,444.6984,75.012,433.4648,83.3671" style="stroke: #A80036; stroke-width: 1.0;"/><!--
@startuml

hide circle
hide empty members
hide methods
hide footbox




Actor Visiteur
Actor Client
Visiteur -> (Naviguer)
Client -> (Acheter)
Client - -> Visiteur
(Acheter) -> (Payer)
(Acheter) ..> (login) : <<extend>>
(Acheter) -> (Réserver)
(Payer) -[hidden]-> (Réserver)
(Payer) <|- - (CB)
(Payer) <|- - (PayPal)
@enduml

PlantUML version 1.2019.06(Fri May 24 19:10:25 CEST 2019)
(GPL source distribution)
Java Runtime: Java(TM) SE Runtime Environment
JVM: Java HotSpot(TM) 64-Bit Server VM
Java Version: 1.8.0_152-b16
Operating System: Mac OS X
OS Version: 10.14.5
Default Encoding: UTF-8
Language: fr
Country: FR
--></g></svg>